<?xml version="1.0" encoding="utf-8" standalone="no"?>
<!DOCTYPE svg PUBLIC "-//W3C//DTD SVG 1.1//EN"
  "http://www.w3.org/Graphics/SVG/1.1/DTD/svg11.dtd">
<svg xmlns:xlink="http://www.w3.org/1999/xlink" width="481.169764pt" height="275.436691pt" viewBox="0 0 481.169764 275.436691" xmlns="http://www.w3.org/2000/svg" version="1.1">
 <metadata>
  <rdf:RDF xmlns:dc="http://purl.org/dc/elements/1.1/" xmlns:cc="http://creativecommons.org/ns#" xmlns:rdf="http://www.w3.org/1999/02/22-rdf-syntax-ns#">
   <cc:Work>
    <dc:type rdf:resource="http://purl.org/dc/dcmitype/StillImage"/>
    <dc:date>2026-04-02T14:57:49.264858</dc:date>
    <dc:format>image/svg+xml</dc:format>
    <dc:creator>
     <cc:Agent>
      <dc:title>Matplotlib v3.10.8, https://matplotlib.org/</dc:title>
     </cc:Agent>
    </dc:creator>
   </cc:Work>
  </rdf:RDF>
 </metadata>
 <defs>
  <style type="text/css">*{stroke-linejoin: round; stroke-linecap: butt}</style>
 </defs>
 <g id="figure_1">
  <g id="patch_1">
   <path d="M 0 275.436691 
L 481.169764 275.436691 
L 481.169764 0 
L 0 0 
z
" style="fill: #ffffff"/>
  </g>
  <g id="axes_1">
   <g id="patch_2">
    <path d="M 111.697594 99.983907 
C 116.179401 94.462295 119.005785 87.781881 119.847737 80.720301 
C 120.689691 73.658722 119.513221 66.501047 116.455281 60.080471 
C 113.397341 53.659895 108.581371 48.235611 102.567986 44.439037 
C 96.5546 40.642464 89.586554 38.626864 82.474959 38.626864 
L 82.474961 76.264344 
z
" style="fill: #e69f00; stroke: #ffffff; stroke-width: 0.6; stroke-linejoin: miter"/>
   </g>
   <g id="patch_3">
    <path d="M 46.148601 66.416727 
C 43.891411 74.743158 44.564202 83.597744 48.05354 91.48754 
C 51.542876 99.377336 57.640971 105.832524 65.319654 109.764723 
C 72.998337 113.696922 81.800348 114.871979 90.241628 113.091765 
C 98.682909 111.311553 106.26079 106.682081 111.697594 99.983907 
L 82.474961 76.264344 
z
" style="fill: #56b4e9; stroke: #ffffff; stroke-width: 0.6; stroke-linejoin: miter"/>
   </g>
   <g id="patch_4">
    <path d="M 55.952966 49.559219 
C 53.616881 51.879286 51.59529 54.495886 49.940013 57.341947 
C 48.284737 60.188009 47.010042 63.239003 46.148601 66.416727 
L 82.474961 76.264344 
z
" style="fill: #009e73; stroke: #ffffff; stroke-width: 0.6; stroke-linejoin: miter"/>
   </g>
   <g id="patch_5">
    <path d="M 63.566257 43.721435 
C 62.179476 44.527211 60.845612 45.42081 59.572836 46.39676 
C 58.300061 47.372711 57.090977 48.429012 55.952966 49.559219 
L 82.474961 76.264344 
z
" style="fill: #f0e442; stroke: #ffffff; stroke-width: 0.6; stroke-linejoin: miter"/>
   </g>
   <g id="patch_6">
    <path d="M 72.408139 39.998121 
C 70.862692 40.427107 69.346255 40.95444 67.868086 41.576896 
C 66.389917 42.199352 64.953038 42.91566 63.566257 43.721435 
L 82.474961 76.264344 
z
" style="fill: #0072b2; stroke: #ffffff; stroke-width: 0.6; stroke-linejoin: miter"/>
   </g>
   <g id="patch_7">
    <path d="M 78.318276 38.857101 
C 77.320002 38.968029 76.326577 39.118871 75.34037 39.30927 
C 74.354162 39.499669 73.375963 39.729471 72.408139 39.998121 
L 82.474961 76.264344 
z
" style="fill: #d55e00; stroke: #ffffff; stroke-width: 0.6; stroke-linejoin: miter"/>
   </g>
   <g id="patch_8">
    <path d="M 82.474943 38.626864 
C 81.780705 38.626864 81.0866 38.646072 80.393424 38.684467 
C 79.700248 38.722862 79.008267 38.780429 78.318276 38.857101 
L 82.474961 76.264344 
z
" style="fill: #cc79a7; stroke: #ffffff; stroke-width: 0.6; stroke-linejoin: miter"/>
   </g>
   <g id="matplotlib.axis_1"/>
   <g id="matplotlib.axis_2"/>
   <g id="patch_9">
    <path d="M 113.770538 61.359141 
Q 112.276882 62.070528 110.783226 62.781914 
" style="fill: none; stroke: #666666; stroke-width: 0.45; stroke-linecap: round"/>
   </g>
   <g id="text_1">
    <!-- 35.9% -->
    <g transform="translate(115.45424 58.265533) scale(0.055 -0.055)">
     <defs>
      <path id="ArialMT-33" d="M 269 1209 
L 831 1284 
Q 928 806 1161 595 
Q 1394 384 1728 384 
Q 2125 384 2398 659 
Q 2672 934 2672 1341 
Q 2672 1728 2419 1979 
Q 2166 2231 1775 2231 
Q 1616 2231 1378 2169 
L 1441 2663 
Q 1497 2656 1531 2656 
Q 1891 2656 2178 2843 
Q 2466 3031 2466 3422 
Q 2466 3731 2256 3934 
Q 2047 4138 1716 4138 
Q 1388 4138 1169 3931 
Q 950 3725 888 3313 
L 325 3413 
Q 428 3978 793 4289 
Q 1159 4600 1703 4600 
Q 2078 4600 2393 4439 
Q 2709 4278 2876 4000 
Q 3044 3722 3044 3409 
Q 3044 3113 2884 2869 
Q 2725 2625 2413 2481 
Q 2819 2388 3044 2092 
Q 3269 1797 3269 1353 
Q 3269 753 2831 336 
Q 2394 -81 1725 -81 
Q 1122 -81 723 278 
Q 325 638 269 1209 
z
" transform="scale(0.015625)"/>
      <path id="ArialMT-35" d="M 266 1200 
L 856 1250 
Q 922 819 1161 601 
Q 1400 384 1738 384 
Q 2144 384 2425 690 
Q 2706 997 2706 1503 
Q 2706 1984 2436 2262 
Q 2166 2541 1728 2541 
Q 1456 2541 1237 2417 
Q 1019 2294 894 2097 
L 366 2166 
L 809 4519 
L 3088 4519 
L 3088 3981 
L 1259 3981 
L 1013 2750 
Q 1425 3038 1878 3038 
Q 2478 3038 2890 2622 
Q 3303 2206 3303 1553 
Q 3303 931 2941 478 
Q 2500 -78 1738 -78 
Q 1113 -78 717 272 
Q 322 622 266 1200 
z
" transform="scale(0.015625)"/>
      <path id="ArialMT-2e" d="M 581 0 
L 581 641 
L 1222 641 
L 1222 0 
L 581 0 
z
" transform="scale(0.015625)"/>
      <path id="ArialMT-39" d="M 350 1059 
L 891 1109 
Q 959 728 1153 556 
Q 1347 384 1650 384 
Q 1909 384 2104 503 
Q 2300 622 2425 820 
Q 2550 1019 2634 1356 
Q 2719 1694 2719 2044 
Q 2719 2081 2716 2156 
Q 2547 1888 2255 1720 
Q 1963 1553 1622 1553 
Q 1053 1553 659 1965 
Q 266 2378 266 3053 
Q 266 3750 677 4175 
Q 1088 4600 1706 4600 
Q 2153 4600 2523 4359 
Q 2894 4119 3086 3673 
Q 3278 3228 3278 2384 
Q 3278 1506 3087 986 
Q 2897 466 2520 194 
Q 2144 -78 1638 -78 
Q 1100 -78 759 220 
Q 419 519 350 1059 
z
M 2653 3081 
Q 2653 3566 2395 3850 
Q 2138 4134 1775 4134 
Q 1400 4134 1122 3828 
Q 844 3522 844 3034 
Q 844 2597 1108 2323 
Q 1372 2050 1759 2050 
Q 2150 2050 2401 2323 
Q 2653 2597 2653 3081 
z
" transform="scale(0.015625)"/>
      <path id="ArialMT-25" d="M 372 3481 
Q 372 3972 619 4315 
Q 866 4659 1334 4659 
Q 1766 4659 2048 4351 
Q 2331 4044 2331 3447 
Q 2331 2866 2045 2552 
Q 1759 2238 1341 2238 
Q 925 2238 648 2547 
Q 372 2856 372 3481 
z
M 1350 4272 
Q 1141 4272 1002 4090 
Q 863 3909 863 3425 
Q 863 2984 1003 2804 
Q 1144 2625 1350 2625 
Q 1563 2625 1702 2806 
Q 1841 2988 1841 3469 
Q 1841 3913 1700 4092 
Q 1559 4272 1350 4272 
z
M 1353 -169 
L 3859 4659 
L 4316 4659 
L 1819 -169 
L 1353 -169 
z
M 3334 1075 
Q 3334 1569 3581 1911 
Q 3828 2253 4300 2253 
Q 4731 2253 5014 1945 
Q 5297 1638 5297 1041 
Q 5297 459 5011 145 
Q 4725 -169 4303 -169 
Q 3888 -169 3611 142 
Q 3334 453 3334 1075 
z
M 4316 1866 
Q 4103 1866 3964 1684 
Q 3825 1503 3825 1019 
Q 3825 581 3965 400 
Q 4106 219 4313 219 
Q 4528 219 4667 400 
Q 4806 581 4806 1063 
Q 4806 1506 4665 1686 
Q 4525 1866 4316 1866 
z
" transform="scale(0.015625)"/>
     </defs>
     <use xlink:href="#ArialMT-33"/>
     <use xlink:href="#ArialMT-35" transform="translate(55.615234 0)"/>
     <use xlink:href="#ArialMT-2e" transform="translate(111.230469 0)"/>
     <use xlink:href="#ArialMT-39" transform="translate(139.013672 0)"/>
     <use xlink:href="#ArialMT-25" transform="translate(194.628906 0)"/>
    </g>
   </g>
   <g id="patch_10">
    <path d="M 64.201794 111.947647 
Q 66.192166 108.060907 68.182538 104.174166 
" style="fill: none; stroke: #666666; stroke-width: 0.45; stroke-linecap: round"/>
   </g>
   <g id="text_2">
    <!-- 43.4% -->
    <g transform="translate(54.091482 117.886638) scale(0.055 -0.055)">
     <defs>
      <path id="ArialMT-34" d="M 2069 0 
L 2069 1097 
L 81 1097 
L 81 1613 
L 2172 4581 
L 2631 4581 
L 2631 1613 
L 3250 1613 
L 3250 1097 
L 2631 1097 
L 2631 0 
L 2069 0 
z
M 2069 1613 
L 2069 3678 
L 634 1613 
L 2069 1613 
z
" transform="scale(0.015625)"/>
     </defs>
     <use xlink:href="#ArialMT-34"/>
     <use xlink:href="#ArialMT-33" transform="translate(55.615234 0)"/>
     <use xlink:href="#ArialMT-2e" transform="translate(111.230469 0)"/>
     <use xlink:href="#ArialMT-34" transform="translate(139.013672 0)"/>
     <use xlink:href="#ArialMT-25" transform="translate(194.628906 0)"/>
    </g>
   </g>
   <g id="patch_11">
    <path d="M 44.040509 53.910793 
Q 49.703619 57.204469 55.366728 60.498144 
" style="fill: none; stroke: #666666; stroke-width: 0.45; stroke-linecap: round"/>
   </g>
   <g id="text_3">
    <!-- 8.3% -->
    <g transform="translate(30.00748 50.816387) scale(0.055 -0.055)">
     <defs>
      <path id="ArialMT-38" d="M 1131 2484 
Q 781 2613 612 2850 
Q 444 3088 444 3419 
Q 444 3919 803 4259 
Q 1163 4600 1759 4600 
Q 2359 4600 2725 4251 
Q 3091 3903 3091 3403 
Q 3091 3084 2923 2848 
Q 2756 2613 2416 2484 
Q 2838 2347 3058 2040 
Q 3278 1734 3278 1309 
Q 3278 722 2862 322 
Q 2447 -78 1769 -78 
Q 1091 -78 675 323 
Q 259 725 259 1325 
Q 259 1772 486 2073 
Q 713 2375 1131 2484 
z
M 1019 3438 
Q 1019 3113 1228 2906 
Q 1438 2700 1772 2700 
Q 2097 2700 2305 2904 
Q 2513 3109 2513 3406 
Q 2513 3716 2298 3927 
Q 2084 4138 1766 4138 
Q 1444 4138 1231 3931 
Q 1019 3725 1019 3438 
z
M 838 1322 
Q 838 1081 952 856 
Q 1066 631 1291 507 
Q 1516 384 1775 384 
Q 2178 384 2440 643 
Q 2703 903 2703 1303 
Q 2703 1709 2433 1975 
Q 2163 2241 1756 2241 
Q 1359 2241 1098 1978 
Q 838 1716 838 1322 
z
" transform="scale(0.015625)"/>
     </defs>
     <use xlink:href="#ArialMT-38"/>
     <use xlink:href="#ArialMT-2e" transform="translate(55.615234 0)"/>
     <use xlink:href="#ArialMT-33" transform="translate(83.398438 0)"/>
     <use xlink:href="#ArialMT-25" transform="translate(139.013672 0)"/>
    </g>
   </g>
   <g id="patch_12">
    <path d="M 51.124845 35.379354 
Q 57.259773 43.380169 63.394701 51.380984 
" style="fill: none; stroke: #666666; stroke-width: 0.45; stroke-linecap: round"/>
   </g>
   <g id="text_4">
    <!-- 4.1% -->
    <g transform="translate(41.395901 32.287434) scale(0.055 -0.055)">
     <defs>
      <path id="ArialMT-31" d="M 2384 0 
L 1822 0 
L 1822 3584 
Q 1619 3391 1289 3197 
Q 959 3003 697 2906 
L 697 3450 
Q 1169 3672 1522 3987 
Q 1875 4303 2022 4600 
L 2384 4600 
L 2384 0 
z
" transform="scale(0.015625)"/>
     </defs>
     <use xlink:href="#ArialMT-34"/>
     <use xlink:href="#ArialMT-2e" transform="translate(55.615234 0)"/>
     <use xlink:href="#ArialMT-31" transform="translate(83.398438 0)"/>
     <use xlink:href="#ArialMT-25" transform="translate(139.013672 0)"/>
    </g>
   </g>
   <g id="patch_13">
    <path d="M 60.273894 23.542778 
Q 65.289207 35.452797 70.304519 47.362816 
" style="fill: none; stroke: #666666; stroke-width: 0.45; stroke-linecap: round"/>
   </g>
   <g id="text_5">
    <!-- 4.1% -->
    <g transform="translate(52.105738 20.451901) scale(0.055 -0.055)">
     <use xlink:href="#ArialMT-34"/>
     <use xlink:href="#ArialMT-2e" transform="translate(55.615234 0)"/>
     <use xlink:href="#ArialMT-31" transform="translate(83.398438 0)"/>
     <use xlink:href="#ArialMT-25" transform="translate(139.013672 0)"/>
    </g>
   </g>
   <g id="patch_14">
    <path d="M 72.502367 24.609254 
Q 74.516515 35.041945 76.530663 45.474637 
" style="fill: none; stroke: #666666; stroke-width: 0.45; stroke-linecap: round"/>
   </g>
   <g id="text_6">
    <!-- 2.5% -->
    <g transform="translate(65.362532 21.514468) scale(0.055 -0.055)">
     <defs>
      <path id="ArialMT-32" d="M 3222 541 
L 3222 0 
L 194 0 
Q 188 203 259 391 
Q 375 700 629 1000 
Q 884 1300 1366 1694 
Q 2113 2306 2375 2664 
Q 2638 3022 2638 3341 
Q 2638 3675 2398 3904 
Q 2159 4134 1775 4134 
Q 1369 4134 1125 3890 
Q 881 3647 878 3216 
L 300 3275 
Q 359 3922 746 4261 
Q 1134 4600 1788 4600 
Q 2447 4600 2831 4234 
Q 3216 3869 3216 3328 
Q 3216 3053 3103 2787 
Q 2991 2522 2730 2228 
Q 2469 1934 1863 1422 
Q 1356 997 1212 845 
Q 1069 694 975 541 
L 3222 541 
z
" transform="scale(0.015625)"/>
     </defs>
     <use xlink:href="#ArialMT-32"/>
     <use xlink:href="#ArialMT-2e" transform="translate(55.615234 0)"/>
     <use xlink:href="#ArialMT-35" transform="translate(83.398438 0)"/>
     <use xlink:href="#ArialMT-25" transform="translate(139.013672 0)"/>
    </g>
   </g>
   <g id="patch_15">
    <path d="M 79.290445 18.771401 
Q 80.015551 31.862395 80.740657 44.95339 
" style="fill: none; stroke: #666666; stroke-width: 0.45; stroke-linecap: round"/>
   </g>
   <g id="text_7">
    <!-- 1.8% -->
    <g transform="translate(72.772573 15.679386) scale(0.055 -0.055)">
     <use xlink:href="#ArialMT-31"/>
     <use xlink:href="#ArialMT-2e" transform="translate(55.615234 0)"/>
     <use xlink:href="#ArialMT-38" transform="translate(83.398438 0)"/>
     <use xlink:href="#ArialMT-25" transform="translate(139.013672 0)"/>
    </g>
   </g>
   <g id="text_8">
    <!-- Total: 0.112 Mt CO$_2$ eq -->
    <g style="fill: #333333" transform="translate(46.424961 154.767431) scale(0.07 -0.07)">
     <defs>
      <path id="Arial-ItalicMT-54" d="M 1453 0 
L 2300 4059 
L 797 4059 
L 906 4581 
L 4513 4581 
L 4403 4059 
L 2913 4059 
L 2066 0 
L 1453 0 
z
" transform="scale(0.015625)"/>
      <path id="Arial-ItalicMT-6f" d="M 313 1259 
Q 313 2231 884 2869 
Q 1356 3394 2122 3394 
Q 2722 3394 3089 3019 
Q 3456 2644 3456 2006 
Q 3456 1434 3225 942 
Q 2994 450 2567 187 
Q 2141 -75 1669 -75 
Q 1281 -75 964 90 
Q 647 256 480 559 
Q 313 863 313 1259 
z
M 878 1316 
Q 878 847 1103 605 
Q 1328 363 1675 363 
Q 1856 363 2034 436 
Q 2213 509 2366 659 
Q 2519 809 2626 1001 
Q 2734 1194 2800 1416 
Q 2897 1725 2897 2009 
Q 2897 2459 2670 2707 
Q 2444 2956 2100 2956 
Q 1834 2956 1615 2829 
Q 1397 2703 1220 2459 
Q 1044 2216 961 1892 
Q 878 1569 878 1316 
z
" transform="scale(0.015625)"/>
      <path id="Arial-ItalicMT-74" d="M 1534 459 
L 1441 -3 
Q 1238 -56 1047 -56 
Q 709 -56 509 109 
Q 359 234 359 450 
Q 359 559 441 953 
L 844 2881 
L 397 2881 
L 488 3319 
L 934 3319 
L 1106 4134 
L 1753 4525 
L 1500 3319 
L 2056 3319 
L 1963 2881 
L 1409 2881 
L 1025 1047 
Q 953 697 953 628 
Q 953 528 1011 475 
Q 1069 422 1200 422 
Q 1388 422 1534 459 
z
" transform="scale(0.015625)"/>
      <path id="Arial-ItalicMT-61" d="M 2450 413 
Q 2156 159 1884 42 
Q 1613 -75 1303 -75 
Q 844 -75 562 195 
Q 281 466 281 888 
Q 281 1166 407 1380 
Q 534 1594 743 1723 
Q 953 1853 1256 1909 
Q 1447 1947 1980 1969 
Q 2513 1991 2744 2081 
Q 2809 2313 2809 2466 
Q 2809 2663 2666 2775 
Q 2469 2931 2091 2931 
Q 1734 2931 1507 2773 
Q 1281 2616 1178 2325 
L 606 2375 
Q 781 2869 1161 3131 
Q 1541 3394 2119 3394 
Q 2734 3394 3094 3100 
Q 3369 2881 3369 2531 
Q 3369 2266 3291 1916 
L 3106 1091 
Q 3019 697 3019 450 
Q 3019 294 3088 0 
L 2516 0 
Q 2469 163 2450 413 
z
M 2659 1681 
Q 2541 1634 2405 1609 
Q 2269 1584 1950 1556 
Q 1456 1513 1253 1445 
Q 1050 1378 947 1231 
Q 844 1084 844 906 
Q 844 669 1008 516 
Q 1172 363 1475 363 
Q 1756 363 2015 511 
Q 2275 659 2425 925 
Q 2575 1191 2659 1681 
z
" transform="scale(0.015625)"/>
      <path id="Arial-ItalicMT-6c" d="M 169 0 
L 1125 4581 
L 1691 4581 
L 734 0 
L 169 0 
z
" transform="scale(0.015625)"/>
      <path id="Arial-ItalicMT-3a" d="M 925 2678 
L 1059 3319 
L 1697 3319 
L 1566 2678 
L 925 2678 
z
M 366 0 
L 500 641 
L 1141 641 
L 1003 0 
L 366 0 
z
" transform="scale(0.015625)"/>
      <path id="Arial-ItalicMT-20" transform="scale(0.015625)"/>
      <path id="Arial-ItalicMT-30" d="M 453 1503 
Q 453 2084 626 2684 
Q 800 3284 1012 3643 
Q 1225 4003 1453 4206 
Q 1681 4409 1901 4504 
Q 2122 4600 2391 4600 
Q 2916 4600 3267 4209 
Q 3619 3819 3619 3081 
Q 3619 2322 3375 1578 
Q 3088 697 2575 256 
Q 2181 -78 1678 -78 
Q 1163 -78 808 326 
Q 453 731 453 1503 
z
M 1000 1359 
Q 1000 938 1141 700 
Q 1331 372 1706 372 
Q 2034 372 2303 669 
Q 2691 1088 2886 1895 
Q 3081 2703 3081 3216 
Q 3081 3709 2892 3928 
Q 2703 4147 2394 4147 
Q 2169 4147 1973 4031 
Q 1778 3916 1600 3634 
Q 1347 3238 1159 2447 
Q 1000 1772 1000 1359 
z
" transform="scale(0.015625)"/>
      <path id="Arial-ItalicMT-2e" d="M 369 0 
L 503 641 
L 1144 641 
L 1006 0 
L 369 0 
z
" transform="scale(0.015625)"/>
      <path id="Arial-ItalicMT-31" d="M 1541 0 
L 2266 3459 
Q 1797 3091 947 2869 
L 1053 3381 
Q 1475 3550 1886 3822 
Q 2297 4094 2503 4297 
Q 2628 4422 2741 4600 
L 3069 4600 
L 2109 0 
L 1541 0 
z
" transform="scale(0.015625)"/>
      <path id="Arial-ItalicMT-32" d="M 375 0 
Q 463 409 617 686 
Q 772 963 1028 1211 
Q 1284 1459 2016 2044 
Q 2459 2397 2622 2566 
Q 2856 2809 2963 3044 
Q 3034 3203 3034 3391 
Q 3034 3706 2811 3926 
Q 2588 4147 2263 4147 
Q 1941 4147 1700 3923 
Q 1459 3700 1356 3206 
L 803 3288 
Q 884 3897 1276 4248 
Q 1669 4600 2253 4600 
Q 2644 4600 2961 4437 
Q 3278 4275 3437 3981 
Q 3597 3688 3597 3375 
Q 3597 2919 3272 2497 
Q 3072 2234 2097 1463 
Q 1678 1131 1473 918 
Q 1269 706 1166 519 
L 3216 519 
L 3106 0 
L 375 0 
z
" transform="scale(0.015625)"/>
      <path id="Arial-ItalicMT-4d" d="M 281 0 
L 1238 4581 
L 1991 4581 
L 2453 1613 
Q 2544 1028 2572 491 
Q 2763 953 3209 1744 
L 4816 4581 
L 5581 4581 
L 4625 0 
L 4022 0 
L 4500 2228 
Q 4666 3000 4975 3959 
Q 4778 3513 4488 2997 
L 2781 0 
L 2191 0 
L 1731 2938 
Q 1669 3341 1641 3878 
Q 1563 3275 1488 2922 
L 878 0 
L 281 0 
z
" transform="scale(0.015625)"/>
      <path id="Arial-ItalicMT-43" d="M 3859 1613 
L 4466 1528 
Q 4178 734 3628 328 
Q 3078 -78 2394 -78 
Q 1559 -78 1070 431 
Q 581 941 581 1891 
Q 581 3128 1325 3938 
Q 1988 4659 2972 4659 
Q 3700 4659 4151 4268 
Q 4603 3878 4675 3219 
L 4103 3166 
Q 4013 3663 3730 3908 
Q 3447 4153 3000 4153 
Q 2159 4153 1641 3406 
Q 1191 2763 1191 1878 
Q 1191 1172 1537 800 
Q 1884 428 2441 428 
Q 2916 428 3300 737 
Q 3684 1047 3859 1613 
z
" transform="scale(0.015625)"/>
      <path id="Arial-ItalicMT-4f" d="M 584 1919 
Q 584 3144 1292 3901 
Q 2000 4659 3009 4659 
Q 3866 4659 4405 4101 
Q 4944 3544 4944 2606 
Q 4944 1938 4672 1366 
Q 4469 938 4159 627 
Q 3850 316 3497 147 
Q 3028 -78 2503 -78 
Q 1953 -78 1501 184 
Q 1050 447 817 917 
Q 584 1388 584 1919 
z
M 1188 1888 
Q 1188 1484 1355 1146 
Q 1522 809 1853 618 
Q 2184 428 2550 428 
Q 2903 428 3222 595 
Q 3541 763 3792 1061 
Q 4044 1359 4189 1795 
Q 4334 2231 4334 2653 
Q 4334 3338 3951 3744 
Q 3569 4150 3006 4150 
Q 2288 4150 1738 3536 
Q 1188 2922 1188 1888 
z
" transform="scale(0.015625)"/>
      <path id="Arial-ItalicMT-65" d="M 2650 1128 
L 3200 1072 
Q 3081 663 2654 294 
Q 2228 -75 1638 -75 
Q 1269 -75 961 95 
Q 653 266 492 591 
Q 331 916 331 1331 
Q 331 1875 582 2386 
Q 834 2897 1234 3145 
Q 1634 3394 2100 3394 
Q 2694 3394 3048 3025 
Q 3403 2656 3403 2019 
Q 3403 1775 3359 1519 
L 916 1519 
Q 903 1422 903 1344 
Q 903 878 1117 633 
Q 1331 388 1641 388 
Q 1931 388 2212 578 
Q 2494 769 2650 1128 
z
M 1006 1950 
L 2869 1950 
Q 2872 2038 2872 2075 
Q 2872 2500 2659 2726 
Q 2447 2953 2113 2953 
Q 1750 2953 1451 2703 
Q 1153 2453 1006 1950 
z
" transform="scale(0.015625)"/>
      <path id="Arial-ItalicMT-71" d="M 2356 375 
Q 1872 -75 1428 -75 
Q 966 -75 647 276 
Q 328 628 328 1275 
Q 328 1894 570 2394 
Q 813 2894 1189 3144 
Q 1566 3394 1966 3394 
Q 2269 3394 2517 3223 
Q 2766 3053 2919 2709 
L 3047 3319 
L 3534 3319 
L 2578 -1272 
L 2013 -1272 
L 2356 375 
z
M 888 1350 
Q 888 859 1091 623 
Q 1294 388 1597 388 
Q 1853 388 2114 600 
Q 2375 813 2542 1238 
Q 2709 1663 2709 2059 
Q 2709 2466 2500 2697 
Q 2291 2928 1988 2928 
Q 1691 2928 1469 2734 
Q 1178 2484 1013 2013 
Q 888 1650 888 1350 
z
" transform="scale(0.015625)"/>
     </defs>
     <use xlink:href="#Arial-ItalicMT-54" transform="translate(0 0.203125)"/>
     <use xlink:href="#Arial-ItalicMT-6f" transform="translate(61.083984 0.203125)"/>
     <use xlink:href="#Arial-ItalicMT-74" transform="translate(116.699219 0.203125)"/>
     <use xlink:href="#Arial-ItalicMT-61" transform="translate(144.482422 0.203125)"/>
     <use xlink:href="#Arial-ItalicMT-6c" transform="translate(200.097656 0.203125)"/>
     <use xlink:href="#Arial-ItalicMT-3a" transform="translate(222.314453 0.203125)"/>
     <use xlink:href="#Arial-ItalicMT-20" transform="translate(250.097656 0.203125)"/>
     <use xlink:href="#Arial-ItalicMT-30" transform="translate(277.880859 0.203125)"/>
     <use xlink:href="#Arial-ItalicMT-2e" transform="translate(333.496094 0.203125)"/>
     <use xlink:href="#Arial-ItalicMT-31" transform="translate(361.279297 0.203125)"/>
     <use xlink:href="#Arial-ItalicMT-31" transform="translate(416.894531 0.203125)"/>
     <use xlink:href="#Arial-ItalicMT-32" transform="translate(472.509766 0.203125)"/>
     <use xlink:href="#Arial-ItalicMT-20" transform="translate(528.125 0.203125)"/>
     <use xlink:href="#Arial-ItalicMT-4d" transform="translate(555.908203 0.203125)"/>
     <use xlink:href="#Arial-ItalicMT-74" transform="translate(639.208984 0.203125)"/>
     <use xlink:href="#Arial-ItalicMT-20" transform="translate(666.992188 0.203125)"/>
     <use xlink:href="#Arial-ItalicMT-43" transform="translate(694.775391 0.203125)"/>
     <use xlink:href="#Arial-ItalicMT-4f" transform="translate(766.992188 0.203125)"/>
     <use xlink:href="#ArialMT-32" transform="translate(846.517734 -29.665625) scale(0.7)"/>
     <use xlink:href="#Arial-ItalicMT-20" transform="translate(890.426523 0.203125)"/>
     <use xlink:href="#Arial-ItalicMT-65" transform="translate(918.209727 0.203125)"/>
     <use xlink:href="#Arial-ItalicMT-71" transform="translate(973.824961 0.203125)"/>
    </g>
   </g>
   <g id="text_9">
    <!-- In-situ pyrolysis -->
    <g transform="translate(51.803711 12.92625) scale(0.08 -0.08)">
     <defs>
      <path id="Arial-BoldMT-49" d="M 438 0 
L 438 4581 
L 1363 4581 
L 1363 0 
L 438 0 
z
" transform="scale(0.015625)"/>
      <path id="Arial-BoldMT-6e" d="M 3478 0 
L 2600 0 
L 2600 1694 
Q 2600 2231 2544 2389 
Q 2488 2547 2361 2634 
Q 2234 2722 2056 2722 
Q 1828 2722 1647 2597 
Q 1466 2472 1398 2265 
Q 1331 2059 1331 1503 
L 1331 0 
L 453 0 
L 453 3319 
L 1269 3319 
L 1269 2831 
Q 1703 3394 2363 3394 
Q 2653 3394 2893 3289 
Q 3134 3184 3257 3021 
Q 3381 2859 3429 2653 
Q 3478 2447 3478 2063 
L 3478 0 
z
" transform="scale(0.015625)"/>
      <path id="Arial-BoldMT-2d" d="M 359 1222 
L 359 2100 
L 2084 2100 
L 2084 1222 
L 359 1222 
z
" transform="scale(0.015625)"/>
      <path id="Arial-BoldMT-73" d="M 150 947 
L 1031 1081 
Q 1088 825 1259 692 
Q 1431 559 1741 559 
Q 2081 559 2253 684 
Q 2369 772 2369 919 
Q 2369 1019 2306 1084 
Q 2241 1147 2013 1200 
Q 950 1434 666 1628 
Q 272 1897 272 2375 
Q 272 2806 612 3100 
Q 953 3394 1669 3394 
Q 2350 3394 2681 3172 
Q 3013 2950 3138 2516 
L 2309 2363 
Q 2256 2556 2107 2659 
Q 1959 2763 1684 2763 
Q 1338 2763 1188 2666 
Q 1088 2597 1088 2488 
Q 1088 2394 1175 2328 
Q 1294 2241 1995 2081 
Q 2697 1922 2975 1691 
Q 3250 1456 3250 1038 
Q 3250 581 2869 253 
Q 2488 -75 1741 -75 
Q 1063 -75 667 200 
Q 272 475 150 947 
z
" transform="scale(0.015625)"/>
      <path id="Arial-BoldMT-69" d="M 459 3769 
L 459 4581 
L 1338 4581 
L 1338 3769 
L 459 3769 
z
M 459 0 
L 459 3319 
L 1338 3319 
L 1338 0 
L 459 0 
z
" transform="scale(0.015625)"/>
      <path id="Arial-BoldMT-74" d="M 1981 3319 
L 1981 2619 
L 1381 2619 
L 1381 1281 
Q 1381 875 1398 808 
Q 1416 741 1477 697 
Q 1538 653 1625 653 
Q 1747 653 1978 738 
L 2053 56 
Q 1747 -75 1359 -75 
Q 1122 -75 931 4 
Q 741 84 652 211 
Q 563 338 528 553 
Q 500 706 500 1172 
L 500 2619 
L 97 2619 
L 97 3319 
L 500 3319 
L 500 3978 
L 1381 4491 
L 1381 3319 
L 1981 3319 
z
" transform="scale(0.015625)"/>
      <path id="Arial-BoldMT-75" d="M 2644 0 
L 2644 497 
Q 2463 231 2167 78 
Q 1872 -75 1544 -75 
Q 1209 -75 943 72 
Q 678 219 559 484 
Q 441 750 441 1219 
L 441 3319 
L 1319 3319 
L 1319 1794 
Q 1319 1094 1367 936 
Q 1416 778 1544 686 
Q 1672 594 1869 594 
Q 2094 594 2272 717 
Q 2450 841 2515 1023 
Q 2581 1206 2581 1919 
L 2581 3319 
L 3459 3319 
L 3459 0 
L 2644 0 
z
" transform="scale(0.015625)"/>
      <path id="Arial-BoldMT-20" transform="scale(0.015625)"/>
      <path id="Arial-BoldMT-70" d="M 434 3319 
L 1253 3319 
L 1253 2831 
Q 1413 3081 1684 3237 
Q 1956 3394 2288 3394 
Q 2866 3394 3269 2941 
Q 3672 2488 3672 1678 
Q 3672 847 3265 386 
Q 2859 -75 2281 -75 
Q 2006 -75 1782 34 
Q 1559 144 1313 409 
L 1313 -1263 
L 434 -1263 
L 434 3319 
z
M 1303 1716 
Q 1303 1156 1525 889 
Q 1747 622 2066 622 
Q 2372 622 2575 867 
Q 2778 1113 2778 1672 
Q 2778 2194 2568 2447 
Q 2359 2700 2050 2700 
Q 1728 2700 1515 2451 
Q 1303 2203 1303 1716 
z
" transform="scale(0.015625)"/>
      <path id="Arial-BoldMT-79" d="M 44 3319 
L 978 3319 
L 1772 963 
L 2547 3319 
L 3456 3319 
L 2284 125 
L 2075 -453 
Q 1959 -744 1854 -897 
Q 1750 -1050 1614 -1145 
Q 1478 -1241 1279 -1294 
Q 1081 -1347 831 -1347 
Q 578 -1347 334 -1294 
L 256 -606 
Q 463 -647 628 -647 
Q 934 -647 1081 -467 
Q 1228 -288 1306 -9 
L 44 3319 
z
" transform="scale(0.015625)"/>
      <path id="Arial-BoldMT-72" d="M 1300 0 
L 422 0 
L 422 3319 
L 1238 3319 
L 1238 2847 
Q 1447 3181 1614 3287 
Q 1781 3394 1994 3394 
Q 2294 3394 2572 3228 
L 2300 2463 
Q 2078 2606 1888 2606 
Q 1703 2606 1575 2504 
Q 1447 2403 1373 2137 
Q 1300 1872 1300 1025 
L 1300 0 
z
" transform="scale(0.015625)"/>
      <path id="Arial-BoldMT-6f" d="M 256 1706 
Q 256 2144 472 2553 
Q 688 2963 1083 3178 
Q 1478 3394 1966 3394 
Q 2719 3394 3200 2905 
Q 3681 2416 3681 1669 
Q 3681 916 3195 420 
Q 2709 -75 1972 -75 
Q 1516 -75 1102 131 
Q 688 338 472 736 
Q 256 1134 256 1706 
z
M 1156 1659 
Q 1156 1166 1390 903 
Q 1625 641 1969 641 
Q 2313 641 2545 903 
Q 2778 1166 2778 1666 
Q 2778 2153 2545 2415 
Q 2313 2678 1969 2678 
Q 1625 2678 1390 2415 
Q 1156 2153 1156 1659 
z
" transform="scale(0.015625)"/>
      <path id="Arial-BoldMT-6c" d="M 459 0 
L 459 4581 
L 1338 4581 
L 1338 0 
L 459 0 
z
" transform="scale(0.015625)"/>
     </defs>
     <use xlink:href="#Arial-BoldMT-49"/>
     <use xlink:href="#Arial-BoldMT-6e" transform="translate(27.783203 0)"/>
     <use xlink:href="#Arial-BoldMT-2d" transform="translate(88.867188 0)"/>
     <use xlink:href="#Arial-BoldMT-73" transform="translate(122.167969 0)"/>
     <use xlink:href="#Arial-BoldMT-69" transform="translate(177.783203 0)"/>
     <use xlink:href="#Arial-BoldMT-74" transform="translate(205.566406 0)"/>
     <use xlink:href="#Arial-BoldMT-75" transform="translate(238.867188 0)"/>
     <use xlink:href="#Arial-BoldMT-20" transform="translate(299.951172 0)"/>
     <use xlink:href="#Arial-BoldMT-70" transform="translate(327.734375 0)"/>
     <use xlink:href="#Arial-BoldMT-79" transform="translate(388.818359 0)"/>
     <use xlink:href="#Arial-BoldMT-72" transform="translate(444.433594 0)"/>
     <use xlink:href="#Arial-BoldMT-6f" transform="translate(483.349609 0)"/>
     <use xlink:href="#Arial-BoldMT-6c" transform="translate(544.433594 0)"/>
     <use xlink:href="#Arial-BoldMT-79" transform="translate(572.216797 0)"/>
     <use xlink:href="#Arial-BoldMT-73" transform="translate(627.832031 0)"/>
     <use xlink:href="#Arial-BoldMT-69" transform="translate(683.447266 0)"/>
     <use xlink:href="#Arial-BoldMT-73" transform="translate(711.230469 0)"/>
    </g>
   </g>
  </g>
  <g id="axes_2">
   <g id="patch_16">
    <path d="M 269.807516 99.983907 
C 274.289322 94.462295 277.115706 87.781881 277.957658 80.720301 
C 278.799612 73.658722 277.623143 66.501047 274.565202 60.080471 
C 271.507262 53.659895 266.691293 48.235611 260.677907 44.439037 
C 254.664521 40.642464 247.696475 38.626864 240.58488 38.626864 
L 240.584882 76.264344 
z
" style="fill: #e69f00; stroke: #ffffff; stroke-width: 0.6; stroke-linejoin: miter"/>
   </g>
   <g id="patch_17">
    <path d="M 204.258523 66.416727 
C 202.001333 74.743158 202.674123 83.597744 206.163461 91.48754 
C 209.652797 99.377336 215.750892 105.832524 223.429575 109.764723 
C 231.108258 113.696922 239.910269 114.871979 248.351549 113.091765 
C 256.79283 111.311553 264.370712 106.682081 269.807516 99.983907 
L 240.584882 76.264344 
z
" style="fill: #56b4e9; stroke: #ffffff; stroke-width: 0.6; stroke-linejoin: miter"/>
   </g>
   <g id="patch_18">
    <path d="M 214.062887 49.559219 
C 211.726802 51.879286 209.705211 54.495886 208.049935 57.341947 
C 206.394658 60.188009 205.119963 63.239003 204.258523 66.416727 
L 240.584882 76.264344 
z
" style="fill: #009e73; stroke: #ffffff; stroke-width: 0.6; stroke-linejoin: miter"/>
   </g>
   <g id="patch_19">
    <path d="M 221.676178 43.721435 
C 220.289397 44.527211 218.955533 45.42081 217.682758 46.39676 
C 216.409982 47.372711 215.200899 48.429012 214.062887 49.559219 
L 240.584882 76.264344 
z
" style="fill: #f0e442; stroke: #ffffff; stroke-width: 0.6; stroke-linejoin: miter"/>
   </g>
   <g id="patch_20">
    <path d="M 230.51806 39.998121 
C 228.972614 40.427107 227.456176 40.95444 225.978007 41.576896 
C 224.499838 42.199352 223.062959 42.91566 221.676178 43.721435 
L 240.584882 76.264344 
z
" style="fill: #0072b2; stroke: #ffffff; stroke-width: 0.6; stroke-linejoin: miter"/>
   </g>
   <g id="patch_21">
    <path d="M 236.428197 38.857101 
C 235.429923 38.968029 234.436498 39.118871 233.450291 39.30927 
C 232.464084 39.499669 231.485884 39.729471 230.51806 39.998121 
L 240.584882 76.264344 
z
" style="fill: #d55e00; stroke: #ffffff; stroke-width: 0.6; stroke-linejoin: miter"/>
   </g>
   <g id="patch_22">
    <path d="M 240.584864 38.626864 
C 239.890626 38.626864 239.196521 38.646072 238.503345 38.684467 
C 237.810169 38.722862 237.118189 38.780429 236.428197 38.857101 
L 240.584882 76.264344 
z
" style="fill: #cc79a7; stroke: #ffffff; stroke-width: 0.6; stroke-linejoin: miter"/>
   </g>
   <g id="matplotlib.axis_3"/>
   <g id="matplotlib.axis_4"/>
   <g id="patch_23">
    <path d="M 271.880459 61.359141 
Q 270.386803 62.070528 268.893147 62.781914 
" style="fill: none; stroke: #666666; stroke-width: 0.45; stroke-linecap: round"/>
   </g>
   <g id="text_10">
    <!-- 35.9% -->
    <g transform="translate(273.564161 58.265533) scale(0.055 -0.055)">
     <use xlink:href="#ArialMT-33"/>
     <use xlink:href="#ArialMT-35" transform="translate(55.615234 0)"/>
     <use xlink:href="#ArialMT-2e" transform="translate(111.230469 0)"/>
     <use xlink:href="#ArialMT-39" transform="translate(139.013672 0)"/>
     <use xlink:href="#ArialMT-25" transform="translate(194.628906 0)"/>
    </g>
   </g>
   <g id="patch_24">
    <path d="M 222.311716 111.947647 
Q 224.302088 108.060907 226.29246 104.174166 
" style="fill: none; stroke: #666666; stroke-width: 0.45; stroke-linecap: round"/>
   </g>
   <g id="text_11">
    <!-- 43.4% -->
    <g transform="translate(212.201404 117.886638) scale(0.055 -0.055)">
     <use xlink:href="#ArialMT-34"/>
     <use xlink:href="#ArialMT-33" transform="translate(55.615234 0)"/>
     <use xlink:href="#ArialMT-2e" transform="translate(111.230469 0)"/>
     <use xlink:href="#ArialMT-34" transform="translate(139.013672 0)"/>
     <use xlink:href="#ArialMT-25" transform="translate(194.628906 0)"/>
    </g>
   </g>
   <g id="patch_25">
    <path d="M 202.15043 53.910793 
Q 207.81354 57.204469 213.47665 60.498144 
" style="fill: none; stroke: #666666; stroke-width: 0.45; stroke-linecap: round"/>
   </g>
   <g id="text_12">
    <!-- 8.3% -->
    <g transform="translate(188.117402 50.816387) scale(0.055 -0.055)">
     <use xlink:href="#ArialMT-38"/>
     <use xlink:href="#ArialMT-2e" transform="translate(55.615234 0)"/>
     <use xlink:href="#ArialMT-33" transform="translate(83.398438 0)"/>
     <use xlink:href="#ArialMT-25" transform="translate(139.013672 0)"/>
    </g>
   </g>
   <g id="patch_26">
    <path d="M 209.234766 35.379354 
Q 215.369694 43.380169 221.504622 51.380984 
" style="fill: none; stroke: #666666; stroke-width: 0.45; stroke-linecap: round"/>
   </g>
   <g id="text_13">
    <!-- 4.1% -->
    <g transform="translate(199.505822 32.287434) scale(0.055 -0.055)">
     <use xlink:href="#ArialMT-34"/>
     <use xlink:href="#ArialMT-2e" transform="translate(55.615234 0)"/>
     <use xlink:href="#ArialMT-31" transform="translate(83.398438 0)"/>
     <use xlink:href="#ArialMT-25" transform="translate(139.013672 0)"/>
    </g>
   </g>
   <g id="patch_27">
    <path d="M 218.383816 23.542778 
Q 223.399128 35.452797 228.41444 47.362816 
" style="fill: none; stroke: #666666; stroke-width: 0.45; stroke-linecap: round"/>
   </g>
   <g id="text_14">
    <!-- 4.1% -->
    <g transform="translate(210.21566 20.451901) scale(0.055 -0.055)">
     <use xlink:href="#ArialMT-34"/>
     <use xlink:href="#ArialMT-2e" transform="translate(55.615234 0)"/>
     <use xlink:href="#ArialMT-31" transform="translate(83.398438 0)"/>
     <use xlink:href="#ArialMT-25" transform="translate(139.013672 0)"/>
    </g>
   </g>
   <g id="patch_28">
    <path d="M 230.612289 24.609254 
Q 232.626436 35.041945 234.640584 45.474637 
" style="fill: none; stroke: #666666; stroke-width: 0.45; stroke-linecap: round"/>
   </g>
   <g id="text_15">
    <!-- 2.5% -->
    <g transform="translate(223.472453 21.514468) scale(0.055 -0.055)">
     <use xlink:href="#ArialMT-32"/>
     <use xlink:href="#ArialMT-2e" transform="translate(55.615234 0)"/>
     <use xlink:href="#ArialMT-35" transform="translate(83.398438 0)"/>
     <use xlink:href="#ArialMT-25" transform="translate(139.013672 0)"/>
    </g>
   </g>
   <g id="patch_29">
    <path d="M 237.400367 18.771401 
Q 238.125473 31.862395 238.850578 44.95339 
" style="fill: none; stroke: #666666; stroke-width: 0.45; stroke-linecap: round"/>
   </g>
   <g id="text_16">
    <!-- 1.8% -->
    <g transform="translate(230.882494 15.679386) scale(0.055 -0.055)">
     <use xlink:href="#ArialMT-31"/>
     <use xlink:href="#ArialMT-2e" transform="translate(55.615234 0)"/>
     <use xlink:href="#ArialMT-38" transform="translate(83.398438 0)"/>
     <use xlink:href="#ArialMT-25" transform="translate(139.013672 0)"/>
    </g>
   </g>
   <g id="text_17">
    <!-- Total: 0.112 Mt CO$_2$ eq -->
    <g style="fill: #333333" transform="translate(204.534882 154.767431) scale(0.07 -0.07)">
     <use xlink:href="#Arial-ItalicMT-54" transform="translate(0 0.203125)"/>
     <use xlink:href="#Arial-ItalicMT-6f" transform="translate(61.083984 0.203125)"/>
     <use xlink:href="#Arial-ItalicMT-74" transform="translate(116.699219 0.203125)"/>
     <use xlink:href="#Arial-ItalicMT-61" transform="translate(144.482422 0.203125)"/>
     <use xlink:href="#Arial-ItalicMT-6c" transform="translate(200.097656 0.203125)"/>
     <use xlink:href="#Arial-ItalicMT-3a" transform="translate(222.314453 0.203125)"/>
     <use xlink:href="#Arial-ItalicMT-20" transform="translate(250.097656 0.203125)"/>
     <use xlink:href="#Arial-ItalicMT-30" transform="translate(277.880859 0.203125)"/>
     <use xlink:href="#Arial-ItalicMT-2e" transform="translate(333.496094 0.203125)"/>
     <use xlink:href="#Arial-ItalicMT-31" transform="translate(361.279297 0.203125)"/>
     <use xlink:href="#Arial-ItalicMT-31" transform="translate(416.894531 0.203125)"/>
     <use xlink:href="#Arial-ItalicMT-32" transform="translate(472.509766 0.203125)"/>
     <use xlink:href="#Arial-ItalicMT-20" transform="translate(528.125 0.203125)"/>
     <use xlink:href="#Arial-ItalicMT-4d" transform="translate(555.908203 0.203125)"/>
     <use xlink:href="#Arial-ItalicMT-74" transform="translate(639.208984 0.203125)"/>
     <use xlink:href="#Arial-ItalicMT-20" transform="translate(666.992188 0.203125)"/>
     <use xlink:href="#Arial-ItalicMT-43" transform="translate(694.775391 0.203125)"/>
     <use xlink:href="#Arial-ItalicMT-4f" transform="translate(766.992188 0.203125)"/>
     <use xlink:href="#ArialMT-32" transform="translate(846.517734 -29.665625) scale(0.7)"/>
     <use xlink:href="#Arial-ItalicMT-20" transform="translate(890.426523 0.203125)"/>
     <use xlink:href="#Arial-ItalicMT-65" transform="translate(918.209727 0.203125)"/>
     <use xlink:href="#Arial-ItalicMT-71" transform="translate(973.824961 0.203125)"/>
    </g>
   </g>
   <g id="text_18">
    <!-- Ex-situ pyrolysis -->
    <g transform="translate(208.575507 12.92625) scale(0.08 -0.08)">
     <defs>
      <path id="Arial-BoldMT-45" d="M 466 0 
L 466 4581 
L 3863 4581 
L 3863 3806 
L 1391 3806 
L 1391 2791 
L 3691 2791 
L 3691 2019 
L 1391 2019 
L 1391 772 
L 3950 772 
L 3950 0 
L 466 0 
z
" transform="scale(0.015625)"/>
      <path id="Arial-BoldMT-78" d="M 38 0 
L 1234 1709 
L 88 3319 
L 1159 3319 
L 1747 2406 
L 2366 3319 
L 3397 3319 
L 2272 1747 
L 3500 0 
L 2422 0 
L 1747 1028 
L 1066 0 
L 38 0 
z
" transform="scale(0.015625)"/>
     </defs>
     <use xlink:href="#Arial-BoldMT-45"/>
     <use xlink:href="#Arial-BoldMT-78" transform="translate(66.699219 0)"/>
     <use xlink:href="#Arial-BoldMT-2d" transform="translate(122.314453 0)"/>
     <use xlink:href="#Arial-BoldMT-73" transform="translate(155.615234 0)"/>
     <use xlink:href="#Arial-BoldMT-69" transform="translate(211.230469 0)"/>
     <use xlink:href="#Arial-BoldMT-74" transform="translate(239.013672 0)"/>
     <use xlink:href="#Arial-BoldMT-75" transform="translate(272.314453 0)"/>
     <use xlink:href="#Arial-BoldMT-20" transform="translate(333.398438 0)"/>
     <use xlink:href="#Arial-BoldMT-70" transform="translate(361.181641 0)"/>
     <use xlink:href="#Arial-BoldMT-79" transform="translate(422.265625 0)"/>
     <use xlink:href="#Arial-BoldMT-72" transform="translate(477.880859 0)"/>
     <use xlink:href="#Arial-BoldMT-6f" transform="translate(516.796875 0)"/>
     <use xlink:href="#Arial-BoldMT-6c" transform="translate(577.880859 0)"/>
     <use xlink:href="#Arial-BoldMT-79" transform="translate(605.664062 0)"/>
     <use xlink:href="#Arial-BoldMT-73" transform="translate(661.279297 0)"/>
     <use xlink:href="#Arial-BoldMT-69" transform="translate(716.894531 0)"/>
     <use xlink:href="#Arial-BoldMT-73" transform="translate(744.677734 0)"/>
    </g>
   </g>
  </g>
  <g id="axes_3">
   <g id="patch_30">
    <path d="M 373.758246 104.455621 
C 378.321137 108.491719 383.796429 111.360333 389.712196 112.814211 
C 395.627963 114.268086 401.809211 114.264219 407.723153 112.802938 
C 413.637097 111.341657 419.108796 108.466192 423.66663 104.424384 
C 428.224464 100.382576 431.733609 95.29399 433.891597 89.597224 
C 436.049585 83.900458 436.792587 77.764032 436.056553 71.716858 
C 435.320522 65.669684 433.127228 59.890641 429.665723 54.877851 
C 426.204219 49.865062 421.576901 45.766809 416.182604 42.936326 
C 410.788308 40.105843 404.786604 38.626864 398.694802 38.626864 
L 398.694803 76.264344 
z
" style="fill: #e69f00; stroke: #ffffff; stroke-width: 0.6; stroke-linejoin: miter"/>
   </g>
   <g id="patch_31">
    <path d="M 368.349139 53.999559 
C 362.796939 61.566899 360.2713 70.944019 361.271755 80.276256 
C 362.27221 89.608493 366.728148 98.237158 373.758246 104.455621 
L 398.694803 76.264344 
z
" style="fill: #56b4e9; stroke: #ffffff; stroke-width: 0.6; stroke-linejoin: miter"/>
   </g>
   <g id="patch_32">
    <path d="M 380.906483 43.095751 
C 378.440944 44.418019 376.130503 46.011087 374.018022 47.8454 
C 371.90554 49.679713 370.00416 51.743859 368.349139 53.999559 
L 398.694803 76.264344 
z
" style="fill: #009e73; stroke: #ffffff; stroke-width: 0.6; stroke-linejoin: miter"/>
   </g>
   <g id="patch_33">
    <path d="M 387.119937 40.450905 
C 386.047369 40.797557 384.990909 41.192224 383.953765 41.633698 
C 382.916621 42.075173 381.899841 42.563014 380.906483 43.095751 
L 398.694803 76.264344 
z
" style="fill: #f0e442; stroke: #ffffff; stroke-width: 0.6; stroke-linejoin: miter"/>
   </g>
   <g id="patch_34">
    <path d="M 390.369267 39.559231 
C 389.821397 39.6835 389.276378 39.82002 388.734619 39.968688 
C 388.19286 40.117356 387.654498 40.278136 387.119937 40.450905 
L 398.694803 76.264344 
z
" style="fill: #0072b2; stroke: #ffffff; stroke-width: 0.6; stroke-linejoin: miter"/>
   </g>
   <g id="patch_35">
    <path d="M 395.43304 38.768468 
C 394.581322 38.84256 393.732367 38.945649 392.88767 39.077557 
C 392.042972 39.209465 391.203023 39.370117 390.369267 39.559231 
L 398.694803 76.264344 
z
" style="fill: #d55e00; stroke: #ffffff; stroke-width: 0.6; stroke-linejoin: miter"/>
   </g>
   <g id="patch_36">
    <path d="M 398.694822 38.626864 
C 398.150487 38.626864 397.606217 38.638671 397.062395 38.66228 
C 396.518572 38.685889 395.975327 38.721294 395.43304 38.768468 
L 398.694803 76.264344 
z
" style="fill: #cc79a7; stroke: #ffffff; stroke-width: 0.6; stroke-linejoin: miter"/>
   </g>
   <g id="matplotlib.axis_5"/>
   <g id="matplotlib.axis_6"/>
   <g id="patch_37">
    <path d="M 431.132394 88.552012 
Q 429.576082 87.962466 428.019769 87.37292 
" style="fill: none; stroke: #666666; stroke-width: 0.45; stroke-linecap: round"/>
   </g>
   <g id="text_19">
    <!-- 61.5% -->
    <g transform="translate(433.133847 93.685637) scale(0.055 -0.055)">
     <defs>
      <path id="ArialMT-36" d="M 3184 3459 
L 2625 3416 
Q 2550 3747 2413 3897 
Q 2184 4138 1850 4138 
Q 1581 4138 1378 3988 
Q 1113 3794 959 3422 
Q 806 3050 800 2363 
Q 1003 2672 1297 2822 
Q 1591 2972 1913 2972 
Q 2475 2972 2870 2558 
Q 3266 2144 3266 1488 
Q 3266 1056 3080 686 
Q 2894 316 2569 119 
Q 2244 -78 1831 -78 
Q 1128 -78 684 439 
Q 241 956 241 2144 
Q 241 3472 731 4075 
Q 1159 4600 1884 4600 
Q 2425 4600 2770 4297 
Q 3116 3994 3184 3459 
z
M 888 1484 
Q 888 1194 1011 928 
Q 1134 663 1356 523 
Q 1578 384 1822 384 
Q 2178 384 2434 671 
Q 2691 959 2691 1453 
Q 2691 1928 2437 2201 
Q 2184 2475 1800 2475 
Q 1419 2475 1153 2201 
Q 888 1928 888 1484 
z
" transform="scale(0.015625)"/>
     </defs>
     <use xlink:href="#ArialMT-36"/>
     <use xlink:href="#ArialMT-31" transform="translate(55.615234 0)"/>
     <use xlink:href="#ArialMT-2e" transform="translate(111.230469 0)"/>
     <use xlink:href="#ArialMT-35" transform="translate(139.013672 0)"/>
     <use xlink:href="#ArialMT-25" transform="translate(194.628906 0)"/>
    </g>
   </g>
   <g id="patch_38">
    <path d="M 363.583834 80.028391 
Q 365.551234 79.817477 367.518634 79.606564 
" style="fill: none; stroke: #666666; stroke-width: 0.45; stroke-linecap: round"/>
   </g>
   <g id="text_20">
    <!-- 23.5% -->
    <g transform="translate(345.990034 82.500474) scale(0.055 -0.055)">
     <use xlink:href="#ArialMT-32"/>
     <use xlink:href="#ArialMT-33" transform="translate(55.615234 0)"/>
     <use xlink:href="#ArialMT-2e" transform="translate(111.230469 0)"/>
     <use xlink:href="#ArialMT-35" transform="translate(139.013672 0)"/>
     <use xlink:href="#ArialMT-25" transform="translate(194.628906 0)"/>
    </g>
   </g>
   <g id="patch_39">
    <path d="M 367.57315 40.423164 
Q 372.853441 46.504199 378.133732 52.585233 
" style="fill: none; stroke: #666666; stroke-width: 0.45; stroke-linecap: round"/>
   </g>
   <g id="text_21">
    <!-- 7.1% -->
    <g transform="translate(357.385933 37.331272) scale(0.055 -0.055)">
     <defs>
      <path id="ArialMT-37" d="M 303 3981 
L 303 4522 
L 3269 4522 
L 3269 4084 
Q 2831 3619 2401 2847 
Q 1972 2075 1738 1259 
Q 1569 684 1522 0 
L 944 0 
Q 953 541 1156 1306 
Q 1359 2072 1739 2783 
Q 2119 3494 2547 3981 
L 303 3981 
z
" transform="scale(0.015625)"/>
     </defs>
     <use xlink:href="#ArialMT-37"/>
     <use xlink:href="#ArialMT-2e" transform="translate(55.615234 0)"/>
     <use xlink:href="#ArialMT-31" transform="translate(83.398438 0)"/>
     <use xlink:href="#ArialMT-25" transform="translate(139.013672 0)"/>
    </g>
   </g>
   <g id="patch_40">
    <path d="M 378.209927 28.139829 
Q 382.311178 37.774776 386.412428 47.409722 
" style="fill: none; stroke: #666666; stroke-width: 0.45; stroke-linecap: round"/>
   </g>
   <g id="text_22">
    <!-- 2.9% -->
    <g transform="translate(370.020596 25.04759) scale(0.055 -0.055)">
     <use xlink:href="#ArialMT-32"/>
     <use xlink:href="#ArialMT-2e" transform="translate(55.615234 0)"/>
     <use xlink:href="#ArialMT-39" transform="translate(83.398438 0)"/>
     <use xlink:href="#ArialMT-25" transform="translate(139.013672 0)"/>
    </g>
   </g>
   <g id="patch_41">
    <path d="M 383.499163 20.890296 
Q 386.948244 33.459003 390.397324 46.027711 
" style="fill: none; stroke: #666666; stroke-width: 0.45; stroke-linecap: round"/>
   </g>
   <g id="text_23">
    <!-- 1.4% -->
    <g transform="translate(375.992648 17.798346) scale(0.055 -0.055)">
     <use xlink:href="#ArialMT-31"/>
     <use xlink:href="#ArialMT-2e" transform="translate(55.615234 0)"/>
     <use xlink:href="#ArialMT-34" transform="translate(83.398438 0)"/>
     <use xlink:href="#ArialMT-25" transform="translate(139.013672 0)"/>
    </g>
   </g>
   <g id="patch_42">
    <path d="M 390.573531 24.258492 
Q 392.215279 34.771686 393.857027 45.284881 
" style="fill: none; stroke: #666666; stroke-width: 0.45; stroke-linecap: round"/>
   </g>
   <g id="text_24">
    <!-- 2.2% -->
    <g transform="translate(383.600135 21.16226) scale(0.055 -0.055)">
     <use xlink:href="#ArialMT-32"/>
     <use xlink:href="#ArialMT-2e" transform="translate(55.615234 0)"/>
     <use xlink:href="#ArialMT-32" transform="translate(83.398438 0)"/>
     <use xlink:href="#ArialMT-25" transform="translate(139.013672 0)"/>
    </g>
   </g>
   <g id="patch_43">
    <path d="M 396.197404 18.737455 
Q 396.766055 31.83618 397.334706 44.934904 
" style="fill: none; stroke: #666666; stroke-width: 0.45; stroke-linecap: round"/>
   </g>
   <g id="text_25">
    <!-- 1.4% -->
    <g transform="translate(389.733478 15.642774) scale(0.055 -0.055)">
     <use xlink:href="#ArialMT-31"/>
     <use xlink:href="#ArialMT-2e" transform="translate(55.615234 0)"/>
     <use xlink:href="#ArialMT-34" transform="translate(83.398438 0)"/>
     <use xlink:href="#ArialMT-25" transform="translate(139.013672 0)"/>
    </g>
   </g>
   <g id="text_26">
    <!-- Total: 0.113 Mt CO$_2$ eq -->
    <g style="fill: #333333" transform="translate(362.644803 154.767431) scale(0.07 -0.07)">
     <defs>
      <path id="Arial-ItalicMT-33" d="M 350 1200 
L 900 1269 
Q 963 788 1177 580 
Q 1391 372 1738 372 
Q 2156 372 2461 672 
Q 2766 972 2766 1359 
Q 2766 1697 2537 1917 
Q 2309 2138 1925 2138 
Q 1881 2138 1744 2125 
L 1841 2597 
Q 1922 2584 1997 2584 
Q 2481 2584 2742 2820 
Q 3003 3056 3003 3400 
Q 3003 3716 2789 3931 
Q 2575 4147 2266 4147 
Q 1963 4147 1720 3926 
Q 1478 3706 1409 3303 
L 853 3416 
Q 991 3981 1381 4290 
Q 1772 4600 2306 4600 
Q 2869 4600 3217 4259 
Q 3566 3919 3566 3422 
Q 3566 3059 3377 2789 
Q 3188 2519 2809 2341 
Q 3078 2181 3211 1956 
Q 3344 1731 3344 1441 
Q 3344 825 2883 373 
Q 2422 -78 1781 -78 
Q 1159 -78 776 270 
Q 394 619 350 1200 
z
" transform="scale(0.015625)"/>
     </defs>
     <use xlink:href="#Arial-ItalicMT-54" transform="translate(0 0.203125)"/>
     <use xlink:href="#Arial-ItalicMT-6f" transform="translate(61.083984 0.203125)"/>
     <use xlink:href="#Arial-ItalicMT-74" transform="translate(116.699219 0.203125)"/>
     <use xlink:href="#Arial-ItalicMT-61" transform="translate(144.482422 0.203125)"/>
     <use xlink:href="#Arial-ItalicMT-6c" transform="translate(200.097656 0.203125)"/>
     <use xlink:href="#Arial-ItalicMT-3a" transform="translate(222.314453 0.203125)"/>
     <use xlink:href="#Arial-ItalicMT-20" transform="translate(250.097656 0.203125)"/>
     <use xlink:href="#Arial-ItalicMT-30" transform="translate(277.880859 0.203125)"/>
     <use xlink:href="#Arial-ItalicMT-2e" transform="translate(333.496094 0.203125)"/>
     <use xlink:href="#Arial-ItalicMT-31" transform="translate(361.279297 0.203125)"/>
     <use xlink:href="#Arial-ItalicMT-31" transform="translate(416.894531 0.203125)"/>
     <use xlink:href="#Arial-ItalicMT-33" transform="translate(472.509766 0.203125)"/>
     <use xlink:href="#Arial-ItalicMT-20" transform="translate(528.125 0.203125)"/>
     <use xlink:href="#Arial-ItalicMT-4d" transform="translate(555.908203 0.203125)"/>
     <use xlink:href="#Arial-ItalicMT-74" transform="translate(639.208984 0.203125)"/>
     <use xlink:href="#Arial-ItalicMT-20" transform="translate(666.992188 0.203125)"/>
     <use xlink:href="#Arial-ItalicMT-43" transform="translate(694.775391 0.203125)"/>
     <use xlink:href="#Arial-ItalicMT-4f" transform="translate(766.992188 0.203125)"/>
     <use xlink:href="#ArialMT-32" transform="translate(846.517734 -29.665625) scale(0.7)"/>
     <use xlink:href="#Arial-ItalicMT-20" transform="translate(890.426523 0.203125)"/>
     <use xlink:href="#Arial-ItalicMT-65" transform="translate(918.209727 0.203125)"/>
     <use xlink:href="#Arial-ItalicMT-71" transform="translate(973.824961 0.203125)"/>
    </g>
   </g>
   <g id="text_27">
    <!-- Cellulosic ethanol -->
    <g transform="translate(364.469178 12.92625) scale(0.08 -0.08)">
     <defs>
      <path id="Arial-BoldMT-43" d="M 3397 1684 
L 4294 1400 
Q 4088 650 3608 286 
Q 3128 -78 2391 -78 
Q 1478 -78 890 545 
Q 303 1169 303 2250 
Q 303 3394 893 4026 
Q 1484 4659 2447 4659 
Q 3288 4659 3813 4163 
Q 4125 3869 4281 3319 
L 3366 3100 
Q 3284 3456 3026 3662 
Q 2769 3869 2400 3869 
Q 1891 3869 1573 3503 
Q 1256 3138 1256 2319 
Q 1256 1450 1568 1081 
Q 1881 713 2381 713 
Q 2750 713 3015 947 
Q 3281 1181 3397 1684 
z
" transform="scale(0.015625)"/>
      <path id="Arial-BoldMT-65" d="M 2381 1056 
L 3256 909 
Q 3088 428 2723 176 
Q 2359 -75 1813 -75 
Q 947 -75 531 491 
Q 203 944 203 1634 
Q 203 2459 634 2926 
Q 1066 3394 1725 3394 
Q 2466 3394 2894 2905 
Q 3322 2416 3303 1406 
L 1103 1406 
Q 1113 1016 1316 798 
Q 1519 581 1822 581 
Q 2028 581 2168 693 
Q 2309 806 2381 1056 
z
M 2431 1944 
Q 2422 2325 2234 2523 
Q 2047 2722 1778 2722 
Q 1491 2722 1303 2513 
Q 1116 2303 1119 1944 
L 2431 1944 
z
" transform="scale(0.015625)"/>
      <path id="Arial-BoldMT-63" d="M 3353 2338 
L 2488 2181 
Q 2444 2441 2289 2572 
Q 2134 2703 1888 2703 
Q 1559 2703 1364 2476 
Q 1169 2250 1169 1719 
Q 1169 1128 1367 884 
Q 1566 641 1900 641 
Q 2150 641 2309 783 
Q 2469 925 2534 1272 
L 3397 1125 
Q 3263 531 2881 228 
Q 2500 -75 1859 -75 
Q 1131 -75 698 384 
Q 266 844 266 1656 
Q 266 2478 700 2936 
Q 1134 3394 1875 3394 
Q 2481 3394 2839 3133 
Q 3197 2872 3353 2338 
z
" transform="scale(0.015625)"/>
      <path id="Arial-BoldMT-68" d="M 1334 4581 
L 1334 2897 
Q 1759 3394 2350 3394 
Q 2653 3394 2897 3281 
Q 3141 3169 3264 2994 
Q 3388 2819 3433 2606 
Q 3478 2394 3478 1947 
L 3478 0 
L 2600 0 
L 2600 1753 
Q 2600 2275 2550 2415 
Q 2500 2556 2373 2639 
Q 2247 2722 2056 2722 
Q 1838 2722 1666 2615 
Q 1494 2509 1414 2295 
Q 1334 2081 1334 1663 
L 1334 0 
L 456 0 
L 456 4581 
L 1334 4581 
z
" transform="scale(0.015625)"/>
      <path id="Arial-BoldMT-61" d="M 1116 2306 
L 319 2450 
Q 453 2931 781 3162 
Q 1109 3394 1756 3394 
Q 2344 3394 2631 3255 
Q 2919 3116 3036 2902 
Q 3153 2688 3153 2116 
L 3144 1091 
Q 3144 653 3186 445 
Q 3228 238 3344 0 
L 2475 0 
Q 2441 88 2391 259 
Q 2369 338 2359 363 
Q 2134 144 1878 34 
Q 1622 -75 1331 -75 
Q 819 -75 523 203 
Q 228 481 228 906 
Q 228 1188 362 1408 
Q 497 1628 739 1745 
Q 981 1863 1438 1950 
Q 2053 2066 2291 2166 
L 2291 2253 
Q 2291 2506 2166 2614 
Q 2041 2722 1694 2722 
Q 1459 2722 1328 2630 
Q 1197 2538 1116 2306 
z
M 2291 1594 
Q 2122 1538 1756 1459 
Q 1391 1381 1278 1306 
Q 1106 1184 1106 997 
Q 1106 813 1243 678 
Q 1381 544 1594 544 
Q 1831 544 2047 700 
Q 2206 819 2256 991 
Q 2291 1103 2291 1419 
L 2291 1594 
z
" transform="scale(0.015625)"/>
     </defs>
     <use xlink:href="#Arial-BoldMT-43"/>
     <use xlink:href="#Arial-BoldMT-65" transform="translate(72.216797 0)"/>
     <use xlink:href="#Arial-BoldMT-6c" transform="translate(127.832031 0)"/>
     <use xlink:href="#Arial-BoldMT-6c" transform="translate(155.615234 0)"/>
     <use xlink:href="#Arial-BoldMT-75" transform="translate(183.398438 0)"/>
     <use xlink:href="#Arial-BoldMT-6c" transform="translate(244.482422 0)"/>
     <use xlink:href="#Arial-BoldMT-6f" transform="translate(272.265625 0)"/>
     <use xlink:href="#Arial-BoldMT-73" transform="translate(333.349609 0)"/>
     <use xlink:href="#Arial-BoldMT-69" transform="translate(388.964844 0)"/>
     <use xlink:href="#Arial-BoldMT-63" transform="translate(416.748047 0)"/>
     <use xlink:href="#Arial-BoldMT-20" transform="translate(472.363281 0)"/>
     <use xlink:href="#Arial-BoldMT-65" transform="translate(500.146484 0)"/>
     <use xlink:href="#Arial-BoldMT-74" transform="translate(555.761719 0)"/>
     <use xlink:href="#Arial-BoldMT-68" transform="translate(589.0625 0)"/>
     <use xlink:href="#Arial-BoldMT-61" transform="translate(650.146484 0)"/>
     <use xlink:href="#Arial-BoldMT-6e" transform="translate(705.761719 0)"/>
     <use xlink:href="#Arial-BoldMT-6f" transform="translate(766.845703 0)"/>
     <use xlink:href="#Arial-BoldMT-6c" transform="translate(827.929688 0)"/>
    </g>
   </g>
  </g>
  <g id="legend_1">
   <g id="patch_44">
    <path d="M 58.098163 254.18091 
L 74.898163 254.18091 
L 74.898163 249.05341 
L 58.098163 249.05341 
z
" style="fill: #e69f00; stroke: #ffffff; stroke-width: 0.6; stroke-linejoin: miter"/>
   </g>
   <g id="text_28">
    <!-- Equipment manufacturing -->
    <g transform="translate(78.398163 254.05841) scale(0.07 -0.07)">
     <defs>
      <path id="ArialMT-45" d="M 506 0 
L 506 4581 
L 3819 4581 
L 3819 4041 
L 1113 4041 
L 1113 2638 
L 3647 2638 
L 3647 2100 
L 1113 2100 
L 1113 541 
L 3925 541 
L 3925 0 
L 506 0 
z
" transform="scale(0.015625)"/>
      <path id="ArialMT-71" d="M 2538 -1272 
L 2538 353 
Q 2406 169 2170 47 
Q 1934 -75 1669 -75 
Q 1078 -75 651 397 
Q 225 869 225 1691 
Q 225 2191 398 2587 
Q 572 2984 901 3189 
Q 1231 3394 1625 3394 
Q 2241 3394 2594 2875 
L 2594 3319 
L 3100 3319 
L 3100 -1272 
L 2538 -1272 
z
M 803 1669 
Q 803 1028 1072 708 
Q 1341 388 1716 388 
Q 2075 388 2334 692 
Q 2594 997 2594 1619 
Q 2594 2281 2320 2615 
Q 2047 2950 1678 2950 
Q 1313 2950 1058 2639 
Q 803 2328 803 1669 
z
" transform="scale(0.015625)"/>
      <path id="ArialMT-75" d="M 2597 0 
L 2597 488 
Q 2209 -75 1544 -75 
Q 1250 -75 995 37 
Q 741 150 617 320 
Q 494 491 444 738 
Q 409 903 409 1263 
L 409 3319 
L 972 3319 
L 972 1478 
Q 972 1038 1006 884 
Q 1059 663 1231 536 
Q 1403 409 1656 409 
Q 1909 409 2131 539 
Q 2353 669 2445 892 
Q 2538 1116 2538 1541 
L 2538 3319 
L 3100 3319 
L 3100 0 
L 2597 0 
z
" transform="scale(0.015625)"/>
      <path id="ArialMT-69" d="M 425 3934 
L 425 4581 
L 988 4581 
L 988 3934 
L 425 3934 
z
M 425 0 
L 425 3319 
L 988 3319 
L 988 0 
L 425 0 
z
" transform="scale(0.015625)"/>
      <path id="ArialMT-70" d="M 422 -1272 
L 422 3319 
L 934 3319 
L 934 2888 
Q 1116 3141 1344 3267 
Q 1572 3394 1897 3394 
Q 2322 3394 2647 3175 
Q 2972 2956 3137 2557 
Q 3303 2159 3303 1684 
Q 3303 1175 3120 767 
Q 2938 359 2589 142 
Q 2241 -75 1856 -75 
Q 1575 -75 1351 44 
Q 1128 163 984 344 
L 984 -1272 
L 422 -1272 
z
M 931 1641 
Q 931 1000 1190 694 
Q 1450 388 1819 388 
Q 2194 388 2461 705 
Q 2728 1022 2728 1688 
Q 2728 2322 2467 2637 
Q 2206 2953 1844 2953 
Q 1484 2953 1207 2617 
Q 931 2281 931 1641 
z
" transform="scale(0.015625)"/>
      <path id="ArialMT-6d" d="M 422 0 
L 422 3319 
L 925 3319 
L 925 2853 
Q 1081 3097 1340 3245 
Q 1600 3394 1931 3394 
Q 2300 3394 2536 3241 
Q 2772 3088 2869 2813 
Q 3263 3394 3894 3394 
Q 4388 3394 4653 3120 
Q 4919 2847 4919 2278 
L 4919 0 
L 4359 0 
L 4359 2091 
Q 4359 2428 4304 2576 
Q 4250 2725 4106 2815 
Q 3963 2906 3769 2906 
Q 3419 2906 3187 2673 
Q 2956 2441 2956 1928 
L 2956 0 
L 2394 0 
L 2394 2156 
Q 2394 2531 2256 2718 
Q 2119 2906 1806 2906 
Q 1569 2906 1367 2781 
Q 1166 2656 1075 2415 
Q 984 2175 984 1722 
L 984 0 
L 422 0 
z
" transform="scale(0.015625)"/>
      <path id="ArialMT-65" d="M 2694 1069 
L 3275 997 
Q 3138 488 2766 206 
Q 2394 -75 1816 -75 
Q 1088 -75 661 373 
Q 234 822 234 1631 
Q 234 2469 665 2931 
Q 1097 3394 1784 3394 
Q 2450 3394 2872 2941 
Q 3294 2488 3294 1666 
Q 3294 1616 3291 1516 
L 816 1516 
Q 847 969 1125 678 
Q 1403 388 1819 388 
Q 2128 388 2347 550 
Q 2566 713 2694 1069 
z
M 847 1978 
L 2700 1978 
Q 2663 2397 2488 2606 
Q 2219 2931 1791 2931 
Q 1403 2931 1139 2672 
Q 875 2413 847 1978 
z
" transform="scale(0.015625)"/>
      <path id="ArialMT-6e" d="M 422 0 
L 422 3319 
L 928 3319 
L 928 2847 
Q 1294 3394 1984 3394 
Q 2284 3394 2536 3286 
Q 2788 3178 2913 3003 
Q 3038 2828 3088 2588 
Q 3119 2431 3119 2041 
L 3119 0 
L 2556 0 
L 2556 2019 
Q 2556 2363 2490 2533 
Q 2425 2703 2258 2804 
Q 2091 2906 1866 2906 
Q 1506 2906 1245 2678 
Q 984 2450 984 1813 
L 984 0 
L 422 0 
z
" transform="scale(0.015625)"/>
      <path id="ArialMT-74" d="M 1650 503 
L 1731 6 
Q 1494 -44 1306 -44 
Q 1000 -44 831 53 
Q 663 150 594 308 
Q 525 466 525 972 
L 525 2881 
L 113 2881 
L 113 3319 
L 525 3319 
L 525 4141 
L 1084 4478 
L 1084 3319 
L 1650 3319 
L 1650 2881 
L 1084 2881 
L 1084 941 
Q 1084 700 1114 631 
Q 1144 563 1211 522 
Q 1278 481 1403 481 
Q 1497 481 1650 503 
z
" transform="scale(0.015625)"/>
      <path id="ArialMT-20" transform="scale(0.015625)"/>
      <path id="ArialMT-61" d="M 2588 409 
Q 2275 144 1986 34 
Q 1697 -75 1366 -75 
Q 819 -75 525 192 
Q 231 459 231 875 
Q 231 1119 342 1320 
Q 453 1522 633 1644 
Q 813 1766 1038 1828 
Q 1203 1872 1538 1913 
Q 2219 1994 2541 2106 
Q 2544 2222 2544 2253 
Q 2544 2597 2384 2738 
Q 2169 2928 1744 2928 
Q 1347 2928 1158 2789 
Q 969 2650 878 2297 
L 328 2372 
Q 403 2725 575 2942 
Q 747 3159 1072 3276 
Q 1397 3394 1825 3394 
Q 2250 3394 2515 3294 
Q 2781 3194 2906 3042 
Q 3031 2891 3081 2659 
Q 3109 2516 3109 2141 
L 3109 1391 
Q 3109 606 3145 398 
Q 3181 191 3288 0 
L 2700 0 
Q 2613 175 2588 409 
z
M 2541 1666 
Q 2234 1541 1622 1453 
Q 1275 1403 1131 1340 
Q 988 1278 909 1158 
Q 831 1038 831 891 
Q 831 666 1001 516 
Q 1172 366 1500 366 
Q 1825 366 2078 508 
Q 2331 650 2450 897 
Q 2541 1088 2541 1459 
L 2541 1666 
z
" transform="scale(0.015625)"/>
      <path id="ArialMT-66" d="M 556 0 
L 556 2881 
L 59 2881 
L 59 3319 
L 556 3319 
L 556 3672 
Q 556 4006 616 4169 
Q 697 4388 901 4523 
Q 1106 4659 1475 4659 
Q 1713 4659 2000 4603 
L 1916 4113 
Q 1741 4144 1584 4144 
Q 1328 4144 1222 4034 
Q 1116 3925 1116 3625 
L 1116 3319 
L 1763 3319 
L 1763 2881 
L 1116 2881 
L 1116 0 
L 556 0 
z
" transform="scale(0.015625)"/>
      <path id="ArialMT-63" d="M 2588 1216 
L 3141 1144 
Q 3050 572 2676 248 
Q 2303 -75 1759 -75 
Q 1078 -75 664 370 
Q 250 816 250 1647 
Q 250 2184 428 2587 
Q 606 2991 970 3192 
Q 1334 3394 1763 3394 
Q 2303 3394 2647 3120 
Q 2991 2847 3088 2344 
L 2541 2259 
Q 2463 2594 2264 2762 
Q 2066 2931 1784 2931 
Q 1359 2931 1093 2626 
Q 828 2322 828 1663 
Q 828 994 1084 691 
Q 1341 388 1753 388 
Q 2084 388 2306 591 
Q 2528 794 2588 1216 
z
" transform="scale(0.015625)"/>
      <path id="ArialMT-72" d="M 416 0 
L 416 3319 
L 922 3319 
L 922 2816 
Q 1116 3169 1280 3281 
Q 1444 3394 1641 3394 
Q 1925 3394 2219 3213 
L 2025 2691 
Q 1819 2813 1613 2813 
Q 1428 2813 1281 2702 
Q 1134 2591 1072 2394 
Q 978 2094 978 1738 
L 978 0 
L 416 0 
z
" transform="scale(0.015625)"/>
      <path id="ArialMT-67" d="M 319 -275 
L 866 -356 
Q 900 -609 1056 -725 
Q 1266 -881 1628 -881 
Q 2019 -881 2231 -725 
Q 2444 -569 2519 -288 
Q 2563 -116 2559 434 
Q 2191 0 1641 0 
Q 956 0 581 494 
Q 206 988 206 1678 
Q 206 2153 378 2554 
Q 550 2956 876 3175 
Q 1203 3394 1644 3394 
Q 2231 3394 2613 2919 
L 2613 3319 
L 3131 3319 
L 3131 450 
Q 3131 -325 2973 -648 
Q 2816 -972 2473 -1159 
Q 2131 -1347 1631 -1347 
Q 1038 -1347 672 -1080 
Q 306 -813 319 -275 
z
M 784 1719 
Q 784 1066 1043 766 
Q 1303 466 1694 466 
Q 2081 466 2343 764 
Q 2606 1063 2606 1700 
Q 2606 2309 2336 2618 
Q 2066 2928 1684 2928 
Q 1309 2928 1046 2623 
Q 784 2319 784 1719 
z
" transform="scale(0.015625)"/>
     </defs>
     <use xlink:href="#ArialMT-45"/>
     <use xlink:href="#ArialMT-71" transform="translate(66.699219 0)"/>
     <use xlink:href="#ArialMT-75" transform="translate(122.314453 0)"/>
     <use xlink:href="#ArialMT-69" transform="translate(177.929688 0)"/>
     <use xlink:href="#ArialMT-70" transform="translate(200.146484 0)"/>
     <use xlink:href="#ArialMT-6d" transform="translate(255.761719 0)"/>
     <use xlink:href="#ArialMT-65" transform="translate(339.0625 0)"/>
     <use xlink:href="#ArialMT-6e" transform="translate(394.677734 0)"/>
     <use xlink:href="#ArialMT-74" transform="translate(450.292969 0)"/>
     <use xlink:href="#ArialMT-20" transform="translate(478.076172 0)"/>
     <use xlink:href="#ArialMT-6d" transform="translate(505.859375 0)"/>
     <use xlink:href="#ArialMT-61" transform="translate(589.160156 0)"/>
     <use xlink:href="#ArialMT-6e" transform="translate(644.775391 0)"/>
     <use xlink:href="#ArialMT-75" transform="translate(700.390625 0)"/>
     <use xlink:href="#ArialMT-66" transform="translate(756.005859 0)"/>
     <use xlink:href="#ArialMT-61" transform="translate(783.789062 0)"/>
     <use xlink:href="#ArialMT-63" transform="translate(839.404297 0)"/>
     <use xlink:href="#ArialMT-74" transform="translate(889.404297 0)"/>
     <use xlink:href="#ArialMT-75" transform="translate(917.1875 0)"/>
     <use xlink:href="#ArialMT-72" transform="translate(972.802734 0)"/>
     <use xlink:href="#ArialMT-69" transform="translate(1006.103516 0)"/>
     <use xlink:href="#ArialMT-6e" transform="translate(1028.320312 0)"/>
     <use xlink:href="#ArialMT-67" transform="translate(1083.935547 0)"/>
    </g>
   </g>
   <g id="patch_45">
    <path d="M 58.098163 264.16466 
L 74.898163 264.16466 
L 74.898163 259.03716 
L 58.098163 259.03716 
z
" style="fill: #56b4e9; stroke: #ffffff; stroke-width: 0.6; stroke-linejoin: miter"/>
   </g>
   <g id="text_29">
    <!-- Equipment installation -->
    <g transform="translate(78.398163 264.04216) scale(0.07 -0.07)">
     <defs>
      <path id="ArialMT-73" d="M 197 991 
L 753 1078 
Q 800 744 1014 566 
Q 1228 388 1613 388 
Q 2000 388 2187 545 
Q 2375 703 2375 916 
Q 2375 1106 2209 1216 
Q 2094 1291 1634 1406 
Q 1016 1563 777 1677 
Q 538 1791 414 1992 
Q 291 2194 291 2438 
Q 291 2659 392 2848 
Q 494 3038 669 3163 
Q 800 3259 1026 3326 
Q 1253 3394 1513 3394 
Q 1903 3394 2198 3281 
Q 2494 3169 2634 2976 
Q 2775 2784 2828 2463 
L 2278 2388 
Q 2241 2644 2061 2787 
Q 1881 2931 1553 2931 
Q 1166 2931 1000 2803 
Q 834 2675 834 2503 
Q 834 2394 903 2306 
Q 972 2216 1119 2156 
Q 1203 2125 1616 2013 
Q 2213 1853 2448 1751 
Q 2684 1650 2818 1456 
Q 2953 1263 2953 975 
Q 2953 694 2789 445 
Q 2625 197 2315 61 
Q 2006 -75 1616 -75 
Q 969 -75 630 194 
Q 291 463 197 991 
z
" transform="scale(0.015625)"/>
      <path id="ArialMT-6c" d="M 409 0 
L 409 4581 
L 972 4581 
L 972 0 
L 409 0 
z
" transform="scale(0.015625)"/>
      <path id="ArialMT-6f" d="M 213 1659 
Q 213 2581 725 3025 
Q 1153 3394 1769 3394 
Q 2453 3394 2887 2945 
Q 3322 2497 3322 1706 
Q 3322 1066 3130 698 
Q 2938 331 2570 128 
Q 2203 -75 1769 -75 
Q 1072 -75 642 372 
Q 213 819 213 1659 
z
M 791 1659 
Q 791 1022 1069 705 
Q 1347 388 1769 388 
Q 2188 388 2466 706 
Q 2744 1025 2744 1678 
Q 2744 2294 2464 2611 
Q 2184 2928 1769 2928 
Q 1347 2928 1069 2612 
Q 791 2297 791 1659 
z
" transform="scale(0.015625)"/>
     </defs>
     <use xlink:href="#ArialMT-45"/>
     <use xlink:href="#ArialMT-71" transform="translate(66.699219 0)"/>
     <use xlink:href="#ArialMT-75" transform="translate(122.314453 0)"/>
     <use xlink:href="#ArialMT-69" transform="translate(177.929688 0)"/>
     <use xlink:href="#ArialMT-70" transform="translate(200.146484 0)"/>
     <use xlink:href="#ArialMT-6d" transform="translate(255.761719 0)"/>
     <use xlink:href="#ArialMT-65" transform="translate(339.0625 0)"/>
     <use xlink:href="#ArialMT-6e" transform="translate(394.677734 0)"/>
     <use xlink:href="#ArialMT-74" transform="translate(450.292969 0)"/>
     <use xlink:href="#ArialMT-20" transform="translate(478.076172 0)"/>
     <use xlink:href="#ArialMT-69" transform="translate(505.859375 0)"/>
     <use xlink:href="#ArialMT-6e" transform="translate(528.076172 0)"/>
     <use xlink:href="#ArialMT-73" transform="translate(583.691406 0)"/>
     <use xlink:href="#ArialMT-74" transform="translate(633.691406 0)"/>
     <use xlink:href="#ArialMT-61" transform="translate(661.474609 0)"/>
     <use xlink:href="#ArialMT-6c" transform="translate(717.089844 0)"/>
     <use xlink:href="#ArialMT-6c" transform="translate(739.306641 0)"/>
     <use xlink:href="#ArialMT-61" transform="translate(761.523438 0)"/>
     <use xlink:href="#ArialMT-74" transform="translate(817.138672 0)"/>
     <use xlink:href="#ArialMT-69" transform="translate(844.921875 0)"/>
     <use xlink:href="#ArialMT-6f" transform="translate(867.138672 0)"/>
     <use xlink:href="#ArialMT-6e" transform="translate(922.753906 0)"/>
    </g>
   </g>
   <g id="patch_46">
    <path d="M 165.160976 254.18091 
L 181.960976 254.18091 
L 181.960976 249.05341 
L 165.160976 249.05341 
z
" style="fill: #009e73; stroke: #ffffff; stroke-width: 0.6; stroke-linejoin: miter"/>
   </g>
   <g id="text_30">
    <!-- Miscellaneous -->
    <g transform="translate(185.460976 254.05841) scale(0.07 -0.07)">
     <defs>
      <path id="ArialMT-4d" d="M 475 0 
L 475 4581 
L 1388 4581 
L 2472 1338 
Q 2622 884 2691 659 
Q 2769 909 2934 1394 
L 4031 4581 
L 4847 4581 
L 4847 0 
L 4263 0 
L 4263 3834 
L 2931 0 
L 2384 0 
L 1059 3900 
L 1059 0 
L 475 0 
z
" transform="scale(0.015625)"/>
     </defs>
     <use xlink:href="#ArialMT-4d"/>
     <use xlink:href="#ArialMT-69" transform="translate(83.300781 0)"/>
     <use xlink:href="#ArialMT-73" transform="translate(105.517578 0)"/>
     <use xlink:href="#ArialMT-63" transform="translate(155.517578 0)"/>
     <use xlink:href="#ArialMT-65" transform="translate(205.517578 0)"/>
     <use xlink:href="#ArialMT-6c" transform="translate(261.132812 0)"/>
     <use xlink:href="#ArialMT-6c" transform="translate(283.349609 0)"/>
     <use xlink:href="#ArialMT-61" transform="translate(305.566406 0)"/>
     <use xlink:href="#ArialMT-6e" transform="translate(361.181641 0)"/>
     <use xlink:href="#ArialMT-65" transform="translate(416.796875 0)"/>
     <use xlink:href="#ArialMT-6f" transform="translate(472.412109 0)"/>
     <use xlink:href="#ArialMT-75" transform="translate(528.027344 0)"/>
     <use xlink:href="#ArialMT-73" transform="translate(583.642578 0)"/>
    </g>
   </g>
   <g id="patch_47">
    <path d="M 165.160976 264.167941 
L 181.960976 264.167941 
L 181.960976 259.040441 
L 165.160976 259.040441 
z
" style="fill: #f0e442; stroke: #ffffff; stroke-width: 0.6; stroke-linejoin: miter"/>
   </g>
   <g id="text_31">
    <!-- Site development -->
    <g transform="translate(185.460976 264.045441) scale(0.07 -0.07)">
     <defs>
      <path id="ArialMT-53" d="M 288 1472 
L 859 1522 
Q 900 1178 1048 958 
Q 1197 738 1509 602 
Q 1822 466 2213 466 
Q 2559 466 2825 569 
Q 3091 672 3220 851 
Q 3350 1031 3350 1244 
Q 3350 1459 3225 1620 
Q 3100 1781 2813 1891 
Q 2628 1963 1997 2114 
Q 1366 2266 1113 2400 
Q 784 2572 623 2826 
Q 463 3081 463 3397 
Q 463 3744 659 4045 
Q 856 4347 1234 4503 
Q 1613 4659 2075 4659 
Q 2584 4659 2973 4495 
Q 3363 4331 3572 4012 
Q 3781 3694 3797 3291 
L 3216 3247 
Q 3169 3681 2898 3903 
Q 2628 4125 2100 4125 
Q 1550 4125 1298 3923 
Q 1047 3722 1047 3438 
Q 1047 3191 1225 3031 
Q 1400 2872 2139 2705 
Q 2878 2538 3153 2413 
Q 3553 2228 3743 1945 
Q 3934 1663 3934 1294 
Q 3934 928 3725 604 
Q 3516 281 3123 101 
Q 2731 -78 2241 -78 
Q 1619 -78 1198 103 
Q 778 284 539 648 
Q 300 1013 288 1472 
z
" transform="scale(0.015625)"/>
      <path id="ArialMT-64" d="M 2575 0 
L 2575 419 
Q 2259 -75 1647 -75 
Q 1250 -75 917 144 
Q 584 363 401 755 
Q 219 1147 219 1656 
Q 219 2153 384 2558 
Q 550 2963 881 3178 
Q 1213 3394 1622 3394 
Q 1922 3394 2156 3267 
Q 2391 3141 2538 2938 
L 2538 4581 
L 3097 4581 
L 3097 0 
L 2575 0 
z
M 797 1656 
Q 797 1019 1065 703 
Q 1334 388 1700 388 
Q 2069 388 2326 689 
Q 2584 991 2584 1609 
Q 2584 2291 2321 2609 
Q 2059 2928 1675 2928 
Q 1300 2928 1048 2622 
Q 797 2316 797 1656 
z
" transform="scale(0.015625)"/>
      <path id="ArialMT-76" d="M 1344 0 
L 81 3319 
L 675 3319 
L 1388 1331 
Q 1503 1009 1600 663 
Q 1675 925 1809 1294 
L 2547 3319 
L 3125 3319 
L 1869 0 
L 1344 0 
z
" transform="scale(0.015625)"/>
     </defs>
     <use xlink:href="#ArialMT-53"/>
     <use xlink:href="#ArialMT-69" transform="translate(66.699219 0)"/>
     <use xlink:href="#ArialMT-74" transform="translate(88.916016 0)"/>
     <use xlink:href="#ArialMT-65" transform="translate(116.699219 0)"/>
     <use xlink:href="#ArialMT-20" transform="translate(172.314453 0)"/>
     <use xlink:href="#ArialMT-64" transform="translate(200.097656 0)"/>
     <use xlink:href="#ArialMT-65" transform="translate(255.712891 0)"/>
     <use xlink:href="#ArialMT-76" transform="translate(311.328125 0)"/>
     <use xlink:href="#ArialMT-65" transform="translate(361.328125 0)"/>
     <use xlink:href="#ArialMT-6c" transform="translate(416.943359 0)"/>
     <use xlink:href="#ArialMT-6f" transform="translate(439.160156 0)"/>
     <use xlink:href="#ArialMT-70" transform="translate(494.775391 0)"/>
     <use xlink:href="#ArialMT-6d" transform="translate(550.390625 0)"/>
     <use xlink:href="#ArialMT-65" transform="translate(633.691406 0)"/>
     <use xlink:href="#ArialMT-6e" transform="translate(689.306641 0)"/>
     <use xlink:href="#ArialMT-74" transform="translate(744.921875 0)"/>
    </g>
   </g>
   <g id="patch_48">
    <path d="M 246.546913 254.18091 
L 263.346913 254.18091 
L 263.346913 249.05341 
L 246.546913 249.05341 
z
" style="fill: #0072b2; stroke: #ffffff; stroke-width: 0.6; stroke-linejoin: miter"/>
   </g>
   <g id="text_32">
    <!-- Additional piping -->
    <g transform="translate(266.846913 254.05841) scale(0.07 -0.07)">
     <defs>
      <path id="ArialMT-41" d="M -9 0 
L 1750 4581 
L 2403 4581 
L 4278 0 
L 3588 0 
L 3053 1388 
L 1138 1388 
L 634 0 
L -9 0 
z
M 1313 1881 
L 2866 1881 
L 2388 3150 
Q 2169 3728 2063 4100 
Q 1975 3659 1816 3225 
L 1313 1881 
z
" transform="scale(0.015625)"/>
     </defs>
     <use xlink:href="#ArialMT-41"/>
     <use xlink:href="#ArialMT-64" transform="translate(66.699219 0)"/>
     <use xlink:href="#ArialMT-64" transform="translate(122.314453 0)"/>
     <use xlink:href="#ArialMT-69" transform="translate(177.929688 0)"/>
     <use xlink:href="#ArialMT-74" transform="translate(200.146484 0)"/>
     <use xlink:href="#ArialMT-69" transform="translate(227.929688 0)"/>
     <use xlink:href="#ArialMT-6f" transform="translate(250.146484 0)"/>
     <use xlink:href="#ArialMT-6e" transform="translate(305.761719 0)"/>
     <use xlink:href="#ArialMT-61" transform="translate(361.376953 0)"/>
     <use xlink:href="#ArialMT-6c" transform="translate(416.992188 0)"/>
     <use xlink:href="#ArialMT-20" transform="translate(439.208984 0)"/>
     <use xlink:href="#ArialMT-70" transform="translate(466.992188 0)"/>
     <use xlink:href="#ArialMT-69" transform="translate(522.607422 0)"/>
     <use xlink:href="#ArialMT-70" transform="translate(544.824219 0)"/>
     <use xlink:href="#ArialMT-69" transform="translate(600.439453 0)"/>
     <use xlink:href="#ArialMT-6e" transform="translate(622.65625 0)"/>
     <use xlink:href="#ArialMT-67" transform="translate(678.271484 0)"/>
    </g>
   </g>
   <g id="patch_49">
    <path d="M 246.546913 264.16466 
L 263.346913 264.16466 
L 263.346913 259.03716 
L 246.546913 259.03716 
z
" style="fill: #d55e00; stroke: #ffffff; stroke-width: 0.6; stroke-linejoin: miter"/>
   </g>
   <g id="text_33">
    <!-- Field emissions -->
    <g transform="translate(266.846913 264.04216) scale(0.07 -0.07)">
     <defs>
      <path id="ArialMT-46" d="M 525 0 
L 525 4581 
L 3616 4581 
L 3616 4041 
L 1131 4041 
L 1131 2622 
L 3281 2622 
L 3281 2081 
L 1131 2081 
L 1131 0 
L 525 0 
z
" transform="scale(0.015625)"/>
     </defs>
     <use xlink:href="#ArialMT-46"/>
     <use xlink:href="#ArialMT-69" transform="translate(61.083984 0)"/>
     <use xlink:href="#ArialMT-65" transform="translate(83.300781 0)"/>
     <use xlink:href="#ArialMT-6c" transform="translate(138.916016 0)"/>
     <use xlink:href="#ArialMT-64" transform="translate(161.132812 0)"/>
     <use xlink:href="#ArialMT-20" transform="translate(216.748047 0)"/>
     <use xlink:href="#ArialMT-65" transform="translate(244.53125 0)"/>
     <use xlink:href="#ArialMT-6d" transform="translate(300.146484 0)"/>
     <use xlink:href="#ArialMT-69" transform="translate(383.447266 0)"/>
     <use xlink:href="#ArialMT-73" transform="translate(405.664062 0)"/>
     <use xlink:href="#ArialMT-73" transform="translate(455.664062 0)"/>
     <use xlink:href="#ArialMT-69" transform="translate(505.664062 0)"/>
     <use xlink:href="#ArialMT-6f" transform="translate(527.880859 0)"/>
     <use xlink:href="#ArialMT-6e" transform="translate(583.496094 0)"/>
     <use xlink:href="#ArialMT-73" transform="translate(639.111328 0)"/>
    </g>
   </g>
   <g id="patch_50">
    <path d="M 325.215976 254.18091 
L 342.015976 254.18091 
L 342.015976 249.05341 
L 325.215976 249.05341 
z
" style="fill: #cc79a7; stroke: #ffffff; stroke-width: 0.6; stroke-linejoin: miter"/>
   </g>
   <g id="text_34">
    <!-- Warehouse development -->
    <g transform="translate(345.515976 254.05841) scale(0.07 -0.07)">
     <defs>
      <path id="ArialMT-57" d="M 1294 0 
L 78 4581 
L 700 4581 
L 1397 1578 
Q 1509 1106 1591 641 
Q 1766 1375 1797 1488 
L 2669 4581 
L 3400 4581 
L 4056 2263 
Q 4303 1400 4413 641 
Q 4500 1075 4641 1638 
L 5359 4581 
L 5969 4581 
L 4713 0 
L 4128 0 
L 3163 3491 
Q 3041 3928 3019 4028 
Q 2947 3713 2884 3491 
L 1913 0 
L 1294 0 
z
" transform="scale(0.015625)"/>
      <path id="ArialMT-68" d="M 422 0 
L 422 4581 
L 984 4581 
L 984 2938 
Q 1378 3394 1978 3394 
Q 2347 3394 2619 3248 
Q 2891 3103 3008 2847 
Q 3125 2591 3125 2103 
L 3125 0 
L 2563 0 
L 2563 2103 
Q 2563 2525 2380 2717 
Q 2197 2909 1863 2909 
Q 1613 2909 1392 2779 
Q 1172 2650 1078 2428 
Q 984 2206 984 1816 
L 984 0 
L 422 0 
z
" transform="scale(0.015625)"/>
     </defs>
     <use xlink:href="#ArialMT-57"/>
     <use xlink:href="#ArialMT-61" transform="translate(90.634766 0)"/>
     <use xlink:href="#ArialMT-72" transform="translate(146.25 0)"/>
     <use xlink:href="#ArialMT-65" transform="translate(179.550781 0)"/>
     <use xlink:href="#ArialMT-68" transform="translate(235.166016 0)"/>
     <use xlink:href="#ArialMT-6f" transform="translate(290.78125 0)"/>
     <use xlink:href="#ArialMT-75" transform="translate(346.396484 0)"/>
     <use xlink:href="#ArialMT-73" transform="translate(402.011719 0)"/>
     <use xlink:href="#ArialMT-65" transform="translate(452.011719 0)"/>
     <use xlink:href="#ArialMT-20" transform="translate(507.626953 0)"/>
     <use xlink:href="#ArialMT-64" transform="translate(535.410156 0)"/>
     <use xlink:href="#ArialMT-65" transform="translate(591.025391 0)"/>
     <use xlink:href="#ArialMT-76" transform="translate(646.640625 0)"/>
     <use xlink:href="#ArialMT-65" transform="translate(696.640625 0)"/>
     <use xlink:href="#ArialMT-6c" transform="translate(752.255859 0)"/>
     <use xlink:href="#ArialMT-6f" transform="translate(774.472656 0)"/>
     <use xlink:href="#ArialMT-70" transform="translate(830.087891 0)"/>
     <use xlink:href="#ArialMT-6d" transform="translate(885.703125 0)"/>
     <use xlink:href="#ArialMT-65" transform="translate(969.003906 0)"/>
     <use xlink:href="#ArialMT-6e" transform="translate(1024.619141 0)"/>
     <use xlink:href="#ArialMT-74" transform="translate(1080.234375 0)"/>
    </g>
   </g>
  </g>
 </g>
</svg>
