<?xml version="1.0" encoding="utf-8" standalone="no"?>
<!DOCTYPE svg PUBLIC "-//W3C//DTD SVG 1.1//EN"
  "http://www.w3.org/Graphics/SVG/1.1/DTD/svg11.dtd">
<svg xmlns:xlink="http://www.w3.org/1999/xlink" width="726.007812pt" height="313.500429pt" viewBox="0 0 726.007812 313.500429" xmlns="http://www.w3.org/2000/svg" version="1.1">
 <metadata>
  <rdf:RDF xmlns:dc="http://purl.org/dc/elements/1.1/" xmlns:cc="http://creativecommons.org/ns#" xmlns:rdf="http://www.w3.org/1999/02/22-rdf-syntax-ns#">
   <cc:Work>
    <dc:type rdf:resource="http://purl.org/dc/dcmitype/StillImage"/>
    <dc:date>2026-04-06T09:21:47.035062</dc:date>
    <dc:format>image/svg+xml</dc:format>
    <dc:creator>
     <cc:Agent>
      <dc:title>Matplotlib v3.10.8, https://matplotlib.org/</dc:title>
     </cc:Agent>
    </dc:creator>
   </cc:Work>
  </rdf:RDF>
 </metadata>
 <defs>
  <style type="text/css">*{stroke-linejoin: round; stroke-linecap: butt}</style>
 </defs>
 <g id="figure_1">
  <g id="patch_1">
   <path d="M 0 313.500429 
L 726.007812 313.500429 
L 726.007812 0 
L 0 0 
z
" style="fill: #ffffff"/>
  </g>
  <g id="axes_1">
   <g id="patch_2">
    <path d="M 179.747569 168.054541 
C 187.867677 158.019824 192.981938 145.887485 194.495796 133.067972 
C 196.009654 120.248458 193.862076 107.258569 188.302734 95.608444 
C 182.743392 83.958319 173.996402 74.117615 163.078642 67.230368 
C 152.160881 60.343121 139.512492 56.686974 126.603903 56.686974 
L 126.603906 125.050611 
z
" style="fill: #e69f00; stroke: #ffffff; stroke-width: 0.8; stroke-linejoin: miter"/>
   </g>
   <g id="patch_3">
    <path d="M 60.613057 107.195791 
C 56.518973 122.327399 57.751368 138.416288 64.102296 152.747818 
C 70.453227 167.07935 81.544207 178.799445 95.503909 185.93063 
C 109.463611 193.061814 125.460117 195.179104 140.794377 191.92525 
C 156.128636 188.671395 169.88683 180.240308 179.747569 168.054541 
L 126.603906 125.050611 
z
" style="fill: #56b4e9; stroke: #ffffff; stroke-width: 0.8; stroke-linejoin: miter"/>
   </g>
   <g id="patch_4">
    <path d="M 78.399447 76.574669 
C 74.160101 80.790276 70.492003 85.543844 67.489139 90.713588 
C 64.486275 95.883329 62.174508 101.424718 60.613057 107.195791 
L 126.603906 125.050611 
z
" style="fill: #009e73; stroke: #ffffff; stroke-width: 0.8; stroke-linejoin: miter"/>
   </g>
   <g id="patch_5">
    <path d="M 92.233772 65.955093 
C 89.7134 67.42095 87.289372 69.046547 84.976566 70.821917 
C 82.66376 72.597286 80.466906 74.51879 78.399447 76.574669 
L 126.603906 125.050611 
z
" style="fill: #f0e442; stroke: #ffffff; stroke-width: 0.8; stroke-linejoin: miter"/>
   </g>
   <g id="patch_6">
    <path d="M 108.304969 59.181533 
C 105.495706 59.961969 102.739247 60.921321 100.052481 62.053718 
C 97.365715 63.186114 94.754148 64.489236 92.233772 65.955093 
L 126.603906 125.050611 
z
" style="fill: #0072b2; stroke: #ffffff; stroke-width: 0.8; stroke-linejoin: miter"/>
   </g>
   <g id="patch_7">
    <path d="M 119.04932 57.105671 
C 117.234466 57.307459 115.42844 57.581876 113.635558 57.92827 
C 111.842676 58.274663 110.064375 58.692757 108.304969 59.181533 
L 126.603906 125.050611 
z
" style="fill: #d55e00; stroke: #ffffff; stroke-width: 0.8; stroke-linejoin: miter"/>
   </g>
   <g id="patch_8">
    <path d="M 126.603907 56.686974 
C 125.342152 56.686974 124.080639 56.721908 122.820817 56.791729 
C 121.560995 56.861551 120.303348 56.96624 119.04932 57.105671 
L 126.603906 125.050611 
z
" style="fill: #cc79a7; stroke: #ffffff; stroke-width: 0.8; stroke-linejoin: miter"/>
   </g>
   <g id="matplotlib.axis_1"/>
   <g id="matplotlib.axis_2"/>
   <g id="patch_9">
    <path d="M 180.290022 99.43205 
Q 178.41236 100.328055 176.534698 101.224059 
" style="fill: none; stroke: #666666; stroke-width: 0.6; stroke-linecap: round"/>
   </g>
   <g id="text_1">
    <text style="font-size: 13px; font-family: 'Arial'; text-anchor: middle" x="196.940572" y="94.84725" transform="rotate(-0 196.940572 94.84725)">35.8%</text>
   </g>
   <g id="patch_10">
    <path d="M 95.20764 186.510594 
Q 98.321048 180.41592 101.434456 174.321246 
" style="fill: none; stroke: #666666; stroke-width: 0.6; stroke-linecap: round"/>
   </g>
   <g id="text_2">
    <text style="font-size: 13px; font-family: 'Arial'; text-anchor: middle" x="91.14991" y="197.814535" transform="rotate(-0 91.14991 197.814535)">43.4%</text>
   </g>
   <g id="patch_11">
    <path d="M 64.025321 88.701595 
Q 71.393382 92.981362 78.761443 97.261129 
" style="fill: none; stroke: #666666; stroke-width: 0.6; stroke-linecap: round"/>
   </g>
   <g id="text_3">
    <text style="font-size: 13px; font-family: 'Arial'; text-anchor: middle" x="50.345869" y="84.116535" transform="rotate(-0 50.345869 84.116535)">8.3%</text>
   </g>
   <g id="patch_12">
    <path d="M 76.088579 59.243377 
Q 84.502484 70.204322 92.916389 81.165268 
" style="fill: none; stroke: #666666; stroke-width: 0.6; stroke-linecap: round"/>
   </g>
   <g id="text_4">
    <text style="font-size: 13px; font-family: 'Arial'; text-anchor: middle" x="69.990722" y="54.660291" transform="rotate(-0 69.990722 54.660291)">4.1%</text>
   </g>
   <g id="patch_13">
    <path d="M 91.187766 41.020968 
Q 98.152126 57.544867 105.116487 74.068766 
" style="fill: none; stroke: #666666; stroke-width: 0.6; stroke-linecap: round"/>
   </g>
   <g id="text_5">
    <text style="font-size: 13px; font-family: 'Arial'; text-anchor: middle" x="87.838825" y="36.435849" transform="rotate(-0 87.838825 36.435849)">4.1%</text>
   </g>
   <g id="patch_14">
    <path d="M 110.501214 41.705343 
Q 113.305241 56.218592 116.109267 70.731841 
" style="fill: none; stroke: #666666; stroke-width: 0.6; stroke-linecap: round"/>
   </g>
   <g id="text_6">
    <text style="font-size: 13px; font-family: 'Arial'; text-anchor: middle" x="108.966953" y="37.124929" transform="rotate(-0 108.966953 37.124929)">2.6%</text>
   </g>
   <g id="patch_15">
    <path d="M 121.521017 33.339236 
Q 122.531751 51.576065 123.542484 69.812894 
" style="fill: none; stroke: #666666; stroke-width: 0.6; stroke-linecap: round"/>
   </g>
   <g id="text_7">
    <text style="font-size: 13px; font-family: 'Arial'; text-anchor: middle" x="121.080595" y="28.753345" transform="rotate(-0 121.080595 28.753345)">1.8%</text>
   </g>
   <g id="text_8">
    <!-- Total: 111.9 kt CO$_2$ eq -->
    <g style="fill: #222222" transform="translate(59.328906 252.126065)">
     <text>
      <tspan x="0" y="-0.53125" style="font-weight: 700; font-size: 13px; font-family: 'Arial'; fill: #222222">T</tspan>
      <tspan x="7.940918" y="-0.53125" style="font-weight: 700; font-size: 13px; font-family: 'Arial'; fill: #222222">o</tspan>
      <tspan x="15.881836" y="-0.53125" style="font-weight: 700; font-size: 13px; font-family: 'Arial'; fill: #222222">t</tspan>
      <tspan x="20.210938" y="-0.53125" style="font-weight: 700; font-size: 13px; font-family: 'Arial'; fill: #222222">a</tspan>
      <tspan x="27.440918" y="-0.53125" style="font-weight: 700; font-size: 13px; font-family: 'Arial'; fill: #222222">l</tspan>
      <tspan x="31.052734" y="-0.53125" style="font-weight: 700; font-size: 13px; font-family: 'Arial'; fill: #222222">:</tspan>
      <tspan x="35.381836" y="-0.53125" style="font-weight: 700; font-size: 13px; font-family: 'Arial'; fill: #222222"> </tspan>
      <tspan x="38.993652" y="-0.53125" style="font-weight: 700; font-size: 13px; font-family: 'Arial'; fill: #222222">1</tspan>
      <tspan x="46.223633" y="-0.53125" style="font-weight: 700; font-size: 13px; font-family: 'Arial'; fill: #222222">1</tspan>
      <tspan x="53.453613" y="-0.53125" style="font-weight: 700; font-size: 13px; font-family: 'Arial'; fill: #222222">1</tspan>
      <tspan x="60.683594" y="-0.53125" style="font-weight: 700; font-size: 13px; font-family: 'Arial'; fill: #222222">.</tspan>
      <tspan x="64.29541" y="-0.53125" style="font-weight: 700; font-size: 13px; font-family: 'Arial'; fill: #222222">9</tspan>
      <tspan x="71.525391" y="-0.53125" style="font-weight: 700; font-size: 13px; font-family: 'Arial'; fill: #222222"> </tspan>
      <tspan x="75.137207" y="-0.53125" style="font-weight: 700; font-size: 13px; font-family: 'Arial'; fill: #222222">k</tspan>
      <tspan x="82.367188" y="-0.53125" style="font-weight: 700; font-size: 13px; font-family: 'Arial'; fill: #222222">t</tspan>
      <tspan x="86.696289" y="-0.53125" style="font-weight: 700; font-size: 13px; font-family: 'Arial'; fill: #222222"> </tspan>
      <tspan x="90.308105" y="-0.53125" style="font-weight: 700; font-size: 13px; font-family: 'Arial'; fill: #222222">C</tspan>
      <tspan x="99.696289" y="-0.53125" style="font-weight: 700; font-size: 13px; font-family: 'Arial'; fill: #222222">O</tspan>
      <tspan x="115.742753" y="-0.53125" style="font-weight: 700; font-size: 13px; font-family: 'Arial'; fill: #222222"> </tspan>
      <tspan x="119.354569" y="-0.53125" style="font-weight: 700; font-size: 13px; font-family: 'Arial'; fill: #222222">e</tspan>
      <tspan x="126.58455" y="-0.53125" style="font-weight: 700; font-size: 13px; font-family: 'Arial'; fill: #222222">q</tspan>
      <tspan x="110.03461" y="3.351688" style="font-size: 9.1px; font-family: 'Arial'; fill: #222222">2</tspan>
     </text>
    </g>
   </g>
   <g id="text_9">
    <text style="font-weight: 700; font-size: 13px; font-family: 'Arial'; text-anchor: middle" x="126.603906" y="16.505156" transform="rotate(-0 126.603906 16.505156)">In-situ pyrolysis</text>
   </g>
  </g>
  <g id="axes_2">
   <g id="patch_16">
    <path d="M 412.704738 171.991147 
C 421.87353 162.283192 428.000136 150.098334 430.324184 136.948811 
C 432.648233 123.799288 431.069435 110.252575 425.783731 97.989929 
C 420.498027 85.727283 411.733524 75.277903 400.577967 67.938644 
C 389.42241 60.599384 376.357223 56.686974 363.003903 56.686974 
L 363.003906 125.050611 
z
" style="fill: #e69f00; stroke: #ffffff; stroke-width: 0.8; stroke-linejoin: miter"/>
   </g>
   <g id="patch_17">
    <path d="M 297.068788 106.991075 
C 293.041314 121.695338 294.046125 137.332581 299.922429 151.40045 
C 305.798737 165.468317 316.21542 177.174122 329.505544 184.644626 
C 342.795671 192.115131 358.210372 194.929393 373.282901 192.637066 
C 388.35543 190.344736 402.236476 183.074984 412.704738 171.991147 
L 363.003906 125.050611 
z
" style="fill: #56b4e9; stroke: #ffffff; stroke-width: 0.8; stroke-linejoin: miter"/>
   </g>
   <g id="patch_18">
    <path d="M 313.417486 77.989232 
C 309.5541 82.059907 306.206619 86.590874 303.450704 91.479748 
C 300.694789 96.368621 298.551339 101.578295 297.068788 106.991075 
L 363.003906 125.050611 
z
" style="fill: #009e73; stroke: #ffffff; stroke-width: 0.8; stroke-linejoin: miter"/>
   </g>
   <g id="patch_19">
    <path d="M 327.868424 66.406902 
C 325.211473 67.998771 322.665781 69.769362 320.248937 71.706448 
C 317.832093 73.643534 315.549681 75.742637 313.417486 77.989232 
L 363.003906 125.050611 
z
" style="fill: #f0e442; stroke: #ffffff; stroke-width: 0.8; stroke-linejoin: miter"/>
   </g>
   <g id="patch_20">
    <path d="M 344.897865 59.128246 
C 341.911142 59.948571 338.9836 60.970932 336.135516 62.188251 
C 333.287431 63.40557 330.525377 64.815028 327.868424 66.406902 
L 363.003906 125.050611 
z
" style="fill: #0072b2; stroke: #ffffff; stroke-width: 0.8; stroke-linejoin: miter"/>
   </g>
   <g id="patch_21">
    <path d="M 354.984256 57.15899 
C 353.281471 57.36013 351.586855 57.62526 349.904005 57.953819 
C 348.221154 58.282377 346.55126 58.674131 344.897865 59.128246 
L 363.003906 125.050611 
z
" style="fill: #d55e00; stroke: #ffffff; stroke-width: 0.8; stroke-linejoin: miter"/>
   </g>
   <g id="patch_22">
    <path d="M 363.00394 56.686974 
C 361.664144 56.686974 360.324655 56.726357 358.987175 56.805078 
C 357.649694 56.883799 356.314801 57.001821 354.984256 57.15899 
L 363.003906 125.050611 
z
" style="fill: #cc79a7; stroke: #ffffff; stroke-width: 0.8; stroke-linejoin: miter"/>
   </g>
   <g id="matplotlib.axis_3"/>
   <g id="matplotlib.axis_4"/>
   <g id="patch_23">
    <path d="M 416.140834 102.146414 
Q 414.974503 102.649151 413.808173 103.151888 
" style="fill: none; stroke: #666666; stroke-width: 0.6; stroke-linecap: round"/>
   </g>
   <g id="text_10">
    <text style="font-size: 13px; font-family: 'Arial'; text-anchor: middle" x="434.572903" y="97.562138" transform="rotate(-0 434.572903 97.562138)">37.0%</text>
   </g>
   <g id="patch_24">
    <path d="M 329.280642 185.044731 
Q 332.587495 179.161797 335.894347 173.278864 
" style="fill: none; stroke: #666666; stroke-width: 0.6; stroke-linecap: round"/>
   </g>
   <g id="text_11">
    <text style="font-size: 13px; font-family: 'Arial'; text-anchor: middle" x="324.815775" y="196.348491" transform="rotate(-0 324.815775 196.348491)">42.2%</text>
   </g>
   <g id="patch_25">
    <path d="M 300.272622 89.688224 
Q 307.5401 93.78499 314.807579 97.881756 
" style="fill: none; stroke: #666666; stroke-width: 0.6; stroke-linecap: round"/>
   </g>
   <g id="text_12">
    <text style="font-size: 13px; font-family: 'Arial'; text-anchor: middle" x="286.18028" y="85.104903" transform="rotate(-0 286.18028 85.104903)">7.8%</text>
   </g>
   <g id="patch_26">
    <path d="M 311.223078 60.445206 
Q 319.814672 71.164685 328.406266 81.884163 
" style="fill: none; stroke: #666666; stroke-width: 0.6; stroke-linecap: round"/>
   </g>
   <g id="text_13">
    <text style="font-size: 13px; font-family: 'Arial'; text-anchor: middle" x="304.857114" y="55.863284" transform="rotate(-0 304.857114 55.863284)">4.3%</text>
   </g>
   <g id="patch_27">
    <path d="M 327.171667 41.216074 
Q 334.215998 57.69727 341.260329 74.178466 
" style="fill: none; stroke: #666666; stroke-width: 0.6; stroke-linecap: round"/>
   </g>
   <g id="text_14">
    <text style="font-size: 13px; font-family: 'Arial'; text-anchor: middle" x="323.776055" y="36.63227" transform="rotate(-0 323.776055 36.63227)">4.3%</text>
   </g>
   <g id="patch_28">
    <path d="M 346.739719 41.74657 
Q 349.571322 56.249844 352.402926 70.753117 
" style="fill: none; stroke: #666666; stroke-width: 0.6; stroke-linecap: round"/>
   </g>
   <g id="text_15">
    <text style="font-size: 13px; font-family: 'Arial'; text-anchor: middle" x="345.188039" y="37.159678" transform="rotate(-0 345.188039 37.159678)">2.4%</text>
   </g>
   <g id="patch_29">
    <path d="M 357.607056 33.357176 
Q 358.680221 51.590438 359.753386 69.823699 
" style="fill: none; stroke: #666666; stroke-width: 0.6; stroke-linecap: round"/>
   </g>
   <g id="text_16">
    <text style="font-size: 13px; font-family: 'Arial'; text-anchor: middle" x="357.13943" y="28.772839" transform="rotate(-0 357.13943 28.772839)">1.9%</text>
   </g>
   <g id="text_17">
    <!-- Total: 128.6 kt CO$_2$ eq -->
    <g style="fill: #222222" transform="translate(295.728906 252.126065)">
     <text>
      <tspan x="0" y="-0.53125" style="font-weight: 700; font-size: 13px; font-family: 'Arial'; fill: #222222">T</tspan>
      <tspan x="7.940918" y="-0.53125" style="font-weight: 700; font-size: 13px; font-family: 'Arial'; fill: #222222">o</tspan>
      <tspan x="15.881836" y="-0.53125" style="font-weight: 700; font-size: 13px; font-family: 'Arial'; fill: #222222">t</tspan>
      <tspan x="20.210938" y="-0.53125" style="font-weight: 700; font-size: 13px; font-family: 'Arial'; fill: #222222">a</tspan>
      <tspan x="27.440918" y="-0.53125" style="font-weight: 700; font-size: 13px; font-family: 'Arial'; fill: #222222">l</tspan>
      <tspan x="31.052734" y="-0.53125" style="font-weight: 700; font-size: 13px; font-family: 'Arial'; fill: #222222">:</tspan>
      <tspan x="35.381836" y="-0.53125" style="font-weight: 700; font-size: 13px; font-family: 'Arial'; fill: #222222"> </tspan>
      <tspan x="38.993652" y="-0.53125" style="font-weight: 700; font-size: 13px; font-family: 'Arial'; fill: #222222">1</tspan>
      <tspan x="46.223633" y="-0.53125" style="font-weight: 700; font-size: 13px; font-family: 'Arial'; fill: #222222">2</tspan>
      <tspan x="53.453613" y="-0.53125" style="font-weight: 700; font-size: 13px; font-family: 'Arial'; fill: #222222">8</tspan>
      <tspan x="60.683594" y="-0.53125" style="font-weight: 700; font-size: 13px; font-family: 'Arial'; fill: #222222">.</tspan>
      <tspan x="64.29541" y="-0.53125" style="font-weight: 700; font-size: 13px; font-family: 'Arial'; fill: #222222">6</tspan>
      <tspan x="71.525391" y="-0.53125" style="font-weight: 700; font-size: 13px; font-family: 'Arial'; fill: #222222"> </tspan>
      <tspan x="75.137207" y="-0.53125" style="font-weight: 700; font-size: 13px; font-family: 'Arial'; fill: #222222">k</tspan>
      <tspan x="82.367188" y="-0.53125" style="font-weight: 700; font-size: 13px; font-family: 'Arial'; fill: #222222">t</tspan>
      <tspan x="86.696289" y="-0.53125" style="font-weight: 700; font-size: 13px; font-family: 'Arial'; fill: #222222"> </tspan>
      <tspan x="90.308105" y="-0.53125" style="font-weight: 700; font-size: 13px; font-family: 'Arial'; fill: #222222">C</tspan>
      <tspan x="99.696289" y="-0.53125" style="font-weight: 700; font-size: 13px; font-family: 'Arial'; fill: #222222">O</tspan>
      <tspan x="115.742753" y="-0.53125" style="font-weight: 700; font-size: 13px; font-family: 'Arial'; fill: #222222"> </tspan>
      <tspan x="119.354569" y="-0.53125" style="font-weight: 700; font-size: 13px; font-family: 'Arial'; fill: #222222">e</tspan>
      <tspan x="126.58455" y="-0.53125" style="font-weight: 700; font-size: 13px; font-family: 'Arial'; fill: #222222">q</tspan>
      <tspan x="110.03461" y="3.351688" style="font-size: 9.1px; font-family: 'Arial'; fill: #222222">2</tspan>
     </text>
    </g>
   </g>
   <g id="text_18">
    <text style="font-weight: 700; font-size: 13px; font-family: 'Arial'; text-anchor: middle" x="363.003906" y="16.505156" transform="rotate(-0 363.003906 16.505156)">Ex-situ pyrolysis</text>
   </g>
  </g>
  <g id="axes_3">
   <g id="patch_30">
    <path d="M 554.075239 176.225784 
C 562.359642 183.563735 572.303312 188.781463 583.048876 191.42907 
C 593.794439 194.076678 605.023917 194.075814 615.769075 191.426569 
C 626.514232 188.777323 636.457107 183.558083 644.740389 176.218865 
C 653.023672 168.879646 659.402255 159.637626 663.326156 149.289682 
C 667.250056 138.941739 668.60316 127.79408 667.268805 116.807887 
C 665.934445 105.821694 661.952108 95.322066 655.665159 86.21431 
C 649.37821 77.106555 640.972692 69.660182 631.173353 64.517238 
C 621.374012 59.374295 610.470833 56.686974 599.403903 56.686974 
L 599.403906 125.050611 
z
" style="fill: #e69f00; stroke: #ffffff; stroke-width: 0.8; stroke-linejoin: miter"/>
   </g>
   <g id="patch_31">
    <path d="M 544.306483 84.58012 
C 534.215302 98.318479 529.618592 115.346408 531.425366 132.296631 
C 533.232136 149.246854 541.314878 164.923232 554.075239 176.225784 
L 599.403906 125.050611 
z
" style="fill: #56b4e9; stroke: #ffffff; stroke-width: 0.8; stroke-linejoin: miter"/>
   </g>
   <g id="patch_32">
    <path d="M 567.126753 64.786423 
C 562.646947 67.185782 558.448613 70.077196 554.609631 73.407029 
C 550.770649 76.736862 547.314901 80.484393 544.306483 84.58012 
L 599.403906 125.050611 
z
" style="fill: #009e73; stroke: #ffffff; stroke-width: 0.8; stroke-linejoin: miter"/>
   </g>
   <g id="patch_33">
    <path d="M 578.39628 59.994738 
C 576.451114 60.622863 574.535115 61.337912 572.654025 62.137732 
C 570.772934 62.937552 568.928648 63.821337 567.126753 64.786423 
L 599.403906 125.050611 
z
" style="fill: #f0e442; stroke: #ffffff; stroke-width: 0.8; stroke-linejoin: miter"/>
   </g>
   <g id="patch_34">
    <path d="M 584.307426 58.374655 
C 583.310745 58.600321 582.319265 58.8483 581.333703 59.118414 
C 580.348139 59.388528 579.368743 59.680715 578.39628 59.994738 
L 599.403906 125.050611 
z
" style="fill: #0072b2; stroke: #ffffff; stroke-width: 0.8; stroke-linejoin: miter"/>
   </g>
   <g id="patch_35">
    <path d="M 593.486186 56.94358 
C 591.942385 57.077718 590.403607 57.264311 588.872487 57.503029 
C 587.341366 57.741746 585.818789 58.032458 584.307426 58.374655 
L 599.403906 125.050611 
z
" style="fill: #d55e00; stroke: #ffffff; stroke-width: 0.8; stroke-linejoin: miter"/>
   </g>
   <g id="patch_36">
    <path d="M 599.40394 56.686974 
C 598.416373 56.686974 597.428938 56.708375 596.442299 56.751156 
C 595.455659 56.793938 594.470046 56.858095 593.486186 56.94358 
L 599.403906 125.050611 
z
" style="fill: #cc79a7; stroke: #ffffff; stroke-width: 0.8; stroke-linejoin: miter"/>
   </g>
   <g id="matplotlib.axis_5"/>
   <g id="matplotlib.axis_6"/>
   <g id="patch_37">
    <path d="M 651.844808 144.936003 
Q 651.48808 144.800733 651.131353 144.665463 
" style="fill: none; stroke: #666666; stroke-width: 0.6; stroke-linecap: round"/>
   </g>
   <g id="text_19">
    <text style="font-size: 13px; font-family: 'Arial'; text-anchor: middle" x="672.275271" y="156.043862" transform="rotate(-0 672.275271 156.043862)">61.5%</text>
   </g>
   <g id="patch_38">
    <path d="M 542.338777 131.13334 
Q 543.367006 131.023739 544.395235 130.914137 
" style="fill: none; stroke: #666666; stroke-width: 0.6; stroke-linecap: round"/>
   </g>
   <g id="text_20">
    <text style="font-size: 13px; font-family: 'Arial'; text-anchor: middle" x="521.908372" y="136.671777" transform="rotate(-0 521.908372 136.671777)">23.5%</text>
   </g>
   <g id="patch_39">
    <path d="M 548.510186 66.374944 
Q 555.831935 74.816231 563.153683 83.257518 
" style="fill: none; stroke: #666666; stroke-width: 0.6; stroke-linecap: round"/>
   </g>
   <g id="text_21">
    <text style="font-size: 13px; font-family: 'Arial'; text-anchor: middle" x="541.619293" y="61.791097" transform="rotate(-0 541.619293 61.791097)">7.1%</text>
   </g>
   <g id="patch_40">
    <path d="M 566.400915 47.431078 
Q 572.078048 60.783093 577.755181 74.135108 
" style="fill: none; stroke: #666666; stroke-width: 0.6; stroke-linecap: round"/>
   </g>
   <g id="text_22">
    <text style="font-size: 13px; font-family: 'Arial'; text-anchor: middle" x="563.024069" y="42.849797" transform="rotate(-0 563.024069 42.849797)">2.9%</text>
   </g>
   <g id="patch_41">
    <path d="M 575.198612 36.733496 
Q 579.989145 54.212566 584.779677 71.691636 
" style="fill: none; stroke: #666666; stroke-width: 0.6; stroke-linecap: round"/>
   </g>
   <g id="text_23">
    <text style="font-size: 13px; font-family: 'Arial'; text-anchor: middle" x="573.021408" y="32.150302" transform="rotate(-0 573.021408 32.150302)">1.4%</text>
   </g>
   <g id="patch_42">
    <path d="M 586.31963 41.129509 
Q 588.600242 55.757099 590.880853 70.38469 
" style="fill: none; stroke: #666666; stroke-width: 0.6; stroke-linecap: round"/>
   </g>
   <g id="text_24">
    <text style="font-size: 13px; font-family: 'Arial'; text-anchor: middle" x="585.081131" y="36.54661" transform="rotate(-0 585.081131 36.54661)">2.2%</text>
   </g>
   <g id="patch_43">
    <path d="M 595.424499 33.279052 
Q 596.215873 51.52941 597.007247 69.779768 
" style="fill: none; stroke: #666666; stroke-width: 0.6; stroke-linecap: round"/>
   </g>
   <g id="text_25">
    <text style="font-size: 13px; font-family: 'Arial'; text-anchor: middle" x="595.079959" y="28.694106" transform="rotate(-0 595.079959 28.694106)">1.4%</text>
   </g>
   <g id="text_26">
    <!-- Total: 113.0 kt CO$_2$ eq -->
    <g style="fill: #222222" transform="translate(532.128906 252.126065)">
     <text>
      <tspan x="0" y="-0.53125" style="font-weight: 700; font-size: 13px; font-family: 'Arial'; fill: #222222">T</tspan>
      <tspan x="7.940918" y="-0.53125" style="font-weight: 700; font-size: 13px; font-family: 'Arial'; fill: #222222">o</tspan>
      <tspan x="15.881836" y="-0.53125" style="font-weight: 700; font-size: 13px; font-family: 'Arial'; fill: #222222">t</tspan>
      <tspan x="20.210938" y="-0.53125" style="font-weight: 700; font-size: 13px; font-family: 'Arial'; fill: #222222">a</tspan>
      <tspan x="27.440918" y="-0.53125" style="font-weight: 700; font-size: 13px; font-family: 'Arial'; fill: #222222">l</tspan>
      <tspan x="31.052734" y="-0.53125" style="font-weight: 700; font-size: 13px; font-family: 'Arial'; fill: #222222">:</tspan>
      <tspan x="35.381836" y="-0.53125" style="font-weight: 700; font-size: 13px; font-family: 'Arial'; fill: #222222"> </tspan>
      <tspan x="38.993652" y="-0.53125" style="font-weight: 700; font-size: 13px; font-family: 'Arial'; fill: #222222">1</tspan>
      <tspan x="46.223633" y="-0.53125" style="font-weight: 700; font-size: 13px; font-family: 'Arial'; fill: #222222">1</tspan>
      <tspan x="53.453613" y="-0.53125" style="font-weight: 700; font-size: 13px; font-family: 'Arial'; fill: #222222">3</tspan>
      <tspan x="60.683594" y="-0.53125" style="font-weight: 700; font-size: 13px; font-family: 'Arial'; fill: #222222">.</tspan>
      <tspan x="64.29541" y="-0.53125" style="font-weight: 700; font-size: 13px; font-family: 'Arial'; fill: #222222">0</tspan>
      <tspan x="71.525391" y="-0.53125" style="font-weight: 700; font-size: 13px; font-family: 'Arial'; fill: #222222"> </tspan>
      <tspan x="75.137207" y="-0.53125" style="font-weight: 700; font-size: 13px; font-family: 'Arial'; fill: #222222">k</tspan>
      <tspan x="82.367188" y="-0.53125" style="font-weight: 700; font-size: 13px; font-family: 'Arial'; fill: #222222">t</tspan>
      <tspan x="86.696289" y="-0.53125" style="font-weight: 700; font-size: 13px; font-family: 'Arial'; fill: #222222"> </tspan>
      <tspan x="90.308105" y="-0.53125" style="font-weight: 700; font-size: 13px; font-family: 'Arial'; fill: #222222">C</tspan>
      <tspan x="99.696289" y="-0.53125" style="font-weight: 700; font-size: 13px; font-family: 'Arial'; fill: #222222">O</tspan>
      <tspan x="115.742753" y="-0.53125" style="font-weight: 700; font-size: 13px; font-family: 'Arial'; fill: #222222"> </tspan>
      <tspan x="119.354569" y="-0.53125" style="font-weight: 700; font-size: 13px; font-family: 'Arial'; fill: #222222">e</tspan>
      <tspan x="126.58455" y="-0.53125" style="font-weight: 700; font-size: 13px; font-family: 'Arial'; fill: #222222">q</tspan>
      <tspan x="110.03461" y="3.351688" style="font-size: 9.1px; font-family: 'Arial'; fill: #222222">2</tspan>
     </text>
    </g>
   </g>
   <g id="text_27">
    <text style="font-weight: 700; font-size: 13px; font-family: 'Arial'; text-anchor: middle" x="599.403906" y="16.505156" transform="rotate(-0 599.403906 16.505156)">Cellulosic ethanol</text>
   </g>
  </g>
  <g id="legend_1">
   <g id="patch_44">
    <path d="M 12.4 280.278085 
L 46.2 280.278085 
L 46.2 269.910585 
L 12.4 269.910585 
z
" style="fill: #e69f00; stroke: #ffffff; stroke-width: 0.8; stroke-linejoin: miter"/>
   </g>
   <g id="text_28">
    <text style="font-size: 13px; font-family: 'Arial'; text-anchor: start" x="54" y="279.595585" transform="rotate(-0 54 279.595585)">Equipment manufacturing</text>
   </g>
   <g id="patch_45">
    <path d="M 12.4 299.199179 
L 46.2 299.199179 
L 46.2 288.831679 
L 12.4 288.831679 
z
" style="fill: #56b4e9; stroke: #ffffff; stroke-width: 0.8; stroke-linejoin: miter"/>
   </g>
   <g id="text_29">
    <text style="font-size: 13px; font-family: 'Arial'; text-anchor: start" x="54" y="298.516679" transform="rotate(-0 54 298.516679)">Equipment installation</text>
   </g>
   <g id="patch_46">
    <path d="M 217.730937 280.278085 
L 251.530937 280.278085 
L 251.530937 269.910585 
L 217.730937 269.910585 
z
" style="fill: #009e73; stroke: #ffffff; stroke-width: 0.8; stroke-linejoin: miter"/>
   </g>
   <g id="text_30">
    <text style="font-size: 13px; font-family: 'Arial'; text-anchor: start" x="259.330938" y="279.595585" transform="rotate(-0 259.330938 279.595585)">Miscellaneous</text>
   </g>
   <g id="patch_47">
    <path d="M 217.730937 299.046835 
L 251.530937 299.046835 
L 251.530937 288.679335 
L 217.730937 288.679335 
z
" style="fill: #f0e442; stroke: #ffffff; stroke-width: 0.8; stroke-linejoin: miter"/>
   </g>
   <g id="text_31">
    <text style="font-size: 13px; font-family: 'Arial'; text-anchor: start" x="259.330938" y="298.364335" transform="rotate(-0 259.330938 298.364335)">Site development</text>
   </g>
   <g id="patch_48">
    <path d="M 375.37625 280.278085 
L 409.17625 280.278085 
L 409.17625 269.910585 
L 375.37625 269.910585 
z
" style="fill: #0072b2; stroke: #ffffff; stroke-width: 0.8; stroke-linejoin: miter"/>
   </g>
   <g id="text_32">
    <text style="font-size: 13px; font-family: 'Arial'; text-anchor: start" x="416.97625" y="279.595585" transform="rotate(-0 416.97625 279.595585)">Additional piping</text>
   </g>
   <g id="patch_49">
    <path d="M 375.37625 299.199179 
L 409.17625 299.199179 
L 409.17625 288.831679 
L 375.37625 288.831679 
z
" style="fill: #d55e00; stroke: #ffffff; stroke-width: 0.8; stroke-linejoin: miter"/>
   </g>
   <g id="text_33">
    <text style="font-size: 13px; font-family: 'Arial'; text-anchor: start" x="416.97625" y="298.516679" transform="rotate(-0 416.97625 298.516679)">Field emissions</text>
   </g>
   <g id="patch_50">
    <path d="M 527.975937 280.278085 
L 561.775937 280.278085 
L 561.775937 269.910585 
L 527.975937 269.910585 
z
" style="fill: #cc79a7; stroke: #ffffff; stroke-width: 0.8; stroke-linejoin: miter"/>
   </g>
   <g id="text_34">
    <text style="font-size: 13px; font-family: 'Arial'; text-anchor: start" x="569.575938" y="279.595585" transform="rotate(-0 569.575938 279.595585)">Warehouse development</text>
   </g>
  </g>
 </g>
</svg>
