<?xml version="1.0" encoding="utf-8" standalone="no"?>
<!DOCTYPE svg PUBLIC "-//W3C//DTD SVG 1.1//EN"
  "http://www.w3.org/Graphics/SVG/1.1/DTD/svg11.dtd">
<svg xmlns:xlink="http://www.w3.org/1999/xlink" width="174.385254pt" height="119.035172pt" viewBox="0 0 174.385254 119.035172" xmlns="http://www.w3.org/2000/svg" version="1.1">
 <metadata>
  <rdf:RDF xmlns:dc="http://purl.org/dc/elements/1.1/" xmlns:cc="http://creativecommons.org/ns#" xmlns:rdf="http://www.w3.org/1999/02/22-rdf-syntax-ns#">
   <cc:Work>
    <dc:type rdf:resource="http://purl.org/dc/dcmitype/StillImage"/>
    <dc:date>2026-03-26T16:00:23.241783</dc:date>
    <dc:format>image/svg+xml</dc:format>
    <dc:creator>
     <cc:Agent>
      <dc:title>Matplotlib v3.10.8, https://matplotlib.org/</dc:title>
     </cc:Agent>
    </dc:creator>
   </cc:Work>
  </rdf:RDF>
 </metadata>
 <defs>
  <style type="text/css">*{stroke-linejoin: round; stroke-linecap: butt}</style>
 </defs>
 <g id="figure_1">
  <g id="patch_1">
   <path d="M 0 119.035172 
L 174.385254 119.035172 
L 174.385254 0 
L 0 0 
z
" style="fill: #ffffff"/>
  </g>
  <g id="axes_1">
   <g id="patch_2">
    <path d="M 33.445 90.783062 
L 167.185254 90.783062 
L 167.185254 16.759062 
L 33.445 16.759062 
z
" style="fill: #ffffff"/>
   </g>
   <g id="matplotlib.axis_1">
    <g id="xtick_1">
     <g id="line2d_1">
      <path d="M 40.609656 90.783062 
L 40.609656 16.759062 
" clip-path="url(#pc785fe7908)" style="fill: none; stroke: #dedede; stroke-width: 0.4; stroke-linecap: square"/>
     </g>
     <g id="line2d_2">
      <defs>
       <path id="m428b3ca536" d="M 0 0 
L 0 2.5 
" style="stroke: #000000; stroke-width: 0.5"/>
      </defs>
      <g>
       <use xlink:href="#m428b3ca536" x="40.609656" y="90.783062" style="stroke: #000000; stroke-width: 0.5"/>
      </g>
     </g>
     <g id="text_1">
      <!-- $\mathdefault{10^{2}}$ -->
      <g transform="translate(34.889656 100.222047) scale(0.065 -0.065)">
       <defs>
        <path id="Verdana-31" d="M 3388 0 
L 869 0 
L 869 475 
L 1838 475 
L 1838 3594 
L 869 3594 
L 869 4019 
Q 1066 4019 1291 4051 
Q 1516 4084 1631 4147 
Q 1775 4225 1858 4345 
Q 1941 4466 1953 4669 
L 2438 4669 
L 2438 475 
L 3388 475 
L 3388 0 
z
" transform="scale(0.015625)"/>
        <path id="Verdana-30" d="M 3647 2328 
Q 3647 1075 3255 489 
Q 2863 -97 2038 -97 
Q 1200 -97 814 497 
Q 428 1091 428 2322 
Q 428 3563 818 4155 
Q 1209 4747 2038 4747 
Q 2875 4747 3261 4145 
Q 3647 3544 3647 2328 
z
M 2825 909 
Q 2934 1163 2973 1505 
Q 3013 1847 3013 2328 
Q 3013 2803 2973 3153 
Q 2934 3503 2822 3747 
Q 2713 3988 2523 4109 
Q 2334 4231 2038 4231 
Q 1744 4231 1551 4109 
Q 1359 3988 1247 3741 
Q 1141 3509 1102 3137 
Q 1063 2766 1063 2322 
Q 1063 1834 1097 1506 
Q 1131 1178 1244 919 
Q 1347 675 1536 547 
Q 1725 419 2038 419 
Q 2331 419 2525 541 
Q 2719 663 2825 909 
z
" transform="scale(0.015625)"/>
        <path id="Verdana-32" d="M 3653 0 
L 503 0 
L 503 653 
Q 831 934 1161 1215 
Q 1491 1497 1775 1775 
Q 2375 2356 2597 2698 
Q 2819 3041 2819 3438 
Q 2819 3800 2580 4004 
Q 2341 4209 1913 4209 
Q 1628 4209 1297 4109 
Q 966 4009 650 3803 
L 619 3803 
L 619 4459 
Q 841 4569 1211 4659 
Q 1581 4750 1928 4750 
Q 2644 4750 3050 4404 
Q 3456 4059 3456 3469 
Q 3456 3203 3389 2973 
Q 3322 2744 3191 2538 
Q 3069 2344 2905 2156 
Q 2741 1969 2506 1741 
Q 2172 1413 1815 1105 
Q 1459 797 1150 534 
L 3653 534 
L 3653 0 
z
" transform="scale(0.015625)"/>
       </defs>
       <use xlink:href="#Verdana-31" transform="translate(0 0.864063)"/>
       <use xlink:href="#Verdana-30" transform="translate(63.574219 0.864063)"/>
       <use xlink:href="#Verdana-32" transform="translate(128.103008 39.046875) scale(0.7)"/>
      </g>
     </g>
    </g>
    <g id="xtick_2">
     <g id="line2d_3">
      <path d="M 64.491845 90.783062 
L 64.491845 16.759062 
" clip-path="url(#pc785fe7908)" style="fill: none; stroke: #dedede; stroke-width: 0.4; stroke-linecap: square"/>
     </g>
     <g id="line2d_4">
      <g>
       <use xlink:href="#m428b3ca536" x="64.491845" y="90.783062" style="stroke: #000000; stroke-width: 0.5"/>
      </g>
     </g>
     <g id="text_2">
      <!-- $\mathdefault{10^{3}}$ -->
      <g transform="translate(58.771845 100.222047) scale(0.065 -0.065)">
       <defs>
        <path id="Verdana-33" d="M 3244 2241 
Q 3394 2106 3491 1903 
Q 3588 1700 3588 1378 
Q 3588 1059 3472 793 
Q 3356 528 3147 331 
Q 2913 113 2595 8 
Q 2278 -97 1900 -97 
Q 1513 -97 1138 -4 
Q 763 88 522 197 
L 522 850 
L 569 850 
Q 834 675 1193 559 
Q 1553 444 1888 444 
Q 2084 444 2306 509 
Q 2528 575 2666 703 
Q 2809 841 2879 1006 
Q 2950 1172 2950 1425 
Q 2950 1675 2870 1839 
Q 2791 2003 2650 2097 
Q 2509 2194 2309 2230 
Q 2109 2266 1878 2266 
L 1597 2266 
L 1597 2784 
L 1816 2784 
Q 2291 2784 2573 2982 
Q 2856 3181 2856 3563 
Q 2856 3731 2784 3857 
Q 2713 3984 2584 4066 
Q 2450 4147 2297 4178 
Q 2144 4209 1950 4209 
Q 1653 4209 1318 4103 
Q 984 3997 688 3803 
L 656 3803 
L 656 4456 
Q 878 4566 1248 4658 
Q 1619 4750 1966 4750 
Q 2306 4750 2565 4687 
Q 2825 4625 3034 4488 
Q 3259 4338 3375 4125 
Q 3491 3913 3491 3628 
Q 3491 3241 3217 2952 
Q 2944 2663 2572 2588 
L 2572 2544 
Q 2722 2519 2915 2439 
Q 3109 2359 3244 2241 
z
" transform="scale(0.015625)"/>
       </defs>
       <use xlink:href="#Verdana-31" transform="translate(0 0.864063)"/>
       <use xlink:href="#Verdana-30" transform="translate(63.574219 0.864063)"/>
       <use xlink:href="#Verdana-33" transform="translate(128.103008 39.046875) scale(0.7)"/>
      </g>
     </g>
    </g>
    <g id="xtick_3">
     <g id="line2d_5">
      <path d="M 88.374033 90.783062 
L 88.374033 16.759062 
" clip-path="url(#pc785fe7908)" style="fill: none; stroke: #dedede; stroke-width: 0.4; stroke-linecap: square"/>
     </g>
     <g id="line2d_6">
      <g>
       <use xlink:href="#m428b3ca536" x="88.374033" y="90.783062" style="stroke: #000000; stroke-width: 0.5"/>
      </g>
     </g>
     <g id="text_3">
      <!-- $\mathdefault{10^{4}}$ -->
      <g transform="translate(82.654033 100.222047) scale(0.065 -0.065)">
       <defs>
        <path id="Verdana-34" d="M 3759 1309 
L 3069 1309 
L 3069 0 
L 2469 0 
L 2469 1309 
L 241 1309 
L 241 2028 
L 2494 4653 
L 3069 4653 
L 3069 1809 
L 3759 1809 
L 3759 1309 
z
M 2469 1809 
L 2469 3909 
L 666 1809 
L 2469 1809 
z
" transform="scale(0.015625)"/>
       </defs>
       <use xlink:href="#Verdana-31" transform="translate(0 0.925)"/>
       <use xlink:href="#Verdana-30" transform="translate(63.574219 0.925)"/>
       <use xlink:href="#Verdana-34" transform="translate(128.103008 39.107813) scale(0.7)"/>
      </g>
     </g>
    </g>
    <g id="xtick_4">
     <g id="line2d_7">
      <path d="M 112.256221 90.783062 
L 112.256221 16.759062 
" clip-path="url(#pc785fe7908)" style="fill: none; stroke: #dedede; stroke-width: 0.4; stroke-linecap: square"/>
     </g>
     <g id="line2d_8">
      <g>
       <use xlink:href="#m428b3ca536" x="112.256221" y="90.783062" style="stroke: #000000; stroke-width: 0.5"/>
      </g>
     </g>
     <g id="text_4">
      <!-- $\mathdefault{10^{5}}$ -->
      <g transform="translate(106.536221 100.222047) scale(0.065 -0.065)">
       <defs>
        <path id="Verdana-35" d="M 3616 1478 
Q 3616 1153 3497 856 
Q 3378 559 3172 356 
Q 2947 138 2636 20 
Q 2325 -97 1916 -97 
Q 1534 -97 1181 -17 
Q 828 63 584 175 
L 584 834 
L 628 834 
Q 884 672 1228 558 
Q 1572 444 1903 444 
Q 2125 444 2333 506 
Q 2541 569 2703 725 
Q 2841 859 2911 1046 
Q 2981 1234 2981 1481 
Q 2981 1722 2898 1887 
Q 2816 2053 2669 2153 
Q 2506 2272 2273 2320 
Q 2041 2369 1753 2369 
Q 1478 2369 1223 2331 
Q 969 2294 784 2256 
L 784 4653 
L 3584 4653 
L 3584 4106 
L 1388 4106 
L 1388 2869 
Q 1522 2881 1662 2887 
Q 1803 2894 1906 2894 
Q 2284 2894 2568 2830 
Q 2853 2766 3091 2603 
Q 3341 2431 3478 2159 
Q 3616 1888 3616 1478 
z
" transform="scale(0.015625)"/>
       </defs>
       <use xlink:href="#Verdana-31" transform="translate(0 0.925)"/>
       <use xlink:href="#Verdana-30" transform="translate(63.574219 0.925)"/>
       <use xlink:href="#Verdana-35" transform="translate(128.103008 39.107813) scale(0.7)"/>
      </g>
     </g>
    </g>
    <g id="xtick_5">
     <g id="line2d_9">
      <path d="M 136.13841 90.783062 
L 136.13841 16.759062 
" clip-path="url(#pc785fe7908)" style="fill: none; stroke: #dedede; stroke-width: 0.4; stroke-linecap: square"/>
     </g>
     <g id="line2d_10">
      <g>
       <use xlink:href="#m428b3ca536" x="136.13841" y="90.783062" style="stroke: #000000; stroke-width: 0.5"/>
      </g>
     </g>
     <g id="text_5">
      <!-- $\mathdefault{10^{6}}$ -->
      <g transform="translate(130.41841 100.222047) scale(0.065 -0.065)">
       <defs>
        <path id="Verdana-36" d="M 3722 1509 
Q 3722 800 3255 351 
Q 2788 -97 2109 -97 
Q 1766 -97 1484 9 
Q 1203 116 988 325 
Q 719 584 573 1012 
Q 428 1441 428 2044 
Q 428 2663 561 3141 
Q 694 3619 984 3991 
Q 1259 4344 1693 4542 
Q 2128 4741 2706 4741 
Q 2891 4741 3016 4725 
Q 3141 4709 3269 4669 
L 3269 4072 
L 3238 4072 
Q 3150 4119 2973 4161 
Q 2797 4203 2613 4203 
Q 1941 4203 1541 3783 
Q 1141 3363 1075 2647 
Q 1338 2806 1592 2889 
Q 1847 2972 2181 2972 
Q 2478 2972 2704 2917 
Q 2931 2863 3169 2697 
Q 3444 2506 3583 2215 
Q 3722 1925 3722 1509 
z
M 3088 1484 
Q 3088 1775 3002 1965 
Q 2916 2156 2719 2297 
Q 2575 2397 2400 2428 
Q 2225 2459 2034 2459 
Q 1769 2459 1541 2396 
Q 1313 2334 1072 2203 
Q 1066 2134 1062 2070 
Q 1059 2006 1059 1909 
Q 1059 1416 1161 1130 
Q 1263 844 1441 678 
Q 1584 541 1751 477 
Q 1919 413 2116 413 
Q 2569 413 2828 689 
Q 3088 966 3088 1484 
z
" transform="scale(0.015625)"/>
       </defs>
       <use xlink:href="#Verdana-31" transform="translate(0 0.9625)"/>
       <use xlink:href="#Verdana-30" transform="translate(63.574219 0.9625)"/>
       <use xlink:href="#Verdana-36" transform="translate(128.103008 39.145313) scale(0.7)"/>
      </g>
     </g>
    </g>
    <g id="xtick_6">
     <g id="line2d_11">
      <path d="M 160.020598 90.783062 
L 160.020598 16.759062 
" clip-path="url(#pc785fe7908)" style="fill: none; stroke: #dedede; stroke-width: 0.4; stroke-linecap: square"/>
     </g>
     <g id="line2d_12">
      <g>
       <use xlink:href="#m428b3ca536" x="160.020598" y="90.783062" style="stroke: #000000; stroke-width: 0.5"/>
      </g>
     </g>
     <g id="text_6">
      <!-- $\mathdefault{10^{7}}$ -->
      <g transform="translate(154.300598 100.222047) scale(0.065 -0.065)">
       <defs>
        <path id="Verdana-37" d="M 3666 3956 
L 1559 0 
L 891 0 
L 3131 4106 
L 481 4106 
L 481 4653 
L 3666 4653 
L 3666 3956 
z
" transform="scale(0.015625)"/>
       </defs>
       <use xlink:href="#Verdana-31" transform="translate(0 0.925)"/>
       <use xlink:href="#Verdana-30" transform="translate(63.574219 0.925)"/>
       <use xlink:href="#Verdana-37" transform="translate(128.103008 39.107813) scale(0.7)"/>
      </g>
     </g>
    </g>
    <g id="xtick_7">
     <g id="line2d_13">
      <path d="M 35.311423 90.783062 
L 35.311423 16.759062 
" clip-path="url(#pc785fe7908)" style="fill: none; stroke-dasharray: 0.2,0.33; stroke-dashoffset: 0; stroke: #dedede; stroke-width: 0.2"/>
     </g>
     <g id="line2d_14">
      <defs>
       <path id="m72468519c7" d="M 0 0 
L 0 2 
" style="stroke: #000000; stroke-width: 0.6"/>
      </defs>
      <g>
       <use xlink:href="#m72468519c7" x="35.311423" y="90.783062" style="stroke: #000000; stroke-width: 0.6"/>
      </g>
     </g>
    </g>
    <g id="xtick_8">
     <g id="line2d_15">
      <path d="M 36.910259 90.783062 
L 36.910259 16.759062 
" clip-path="url(#pc785fe7908)" style="fill: none; stroke-dasharray: 0.2,0.33; stroke-dashoffset: 0; stroke: #dedede; stroke-width: 0.2"/>
     </g>
     <g id="line2d_16">
      <g>
       <use xlink:href="#m72468519c7" x="36.910259" y="90.783062" style="stroke: #000000; stroke-width: 0.6"/>
      </g>
     </g>
    </g>
    <g id="xtick_9">
     <g id="line2d_17">
      <path d="M 38.295233 90.783062 
L 38.295233 16.759062 
" clip-path="url(#pc785fe7908)" style="fill: none; stroke-dasharray: 0.2,0.33; stroke-dashoffset: 0; stroke: #dedede; stroke-width: 0.2"/>
     </g>
     <g id="line2d_18">
      <g>
       <use xlink:href="#m72468519c7" x="38.295233" y="90.783062" style="stroke: #000000; stroke-width: 0.6"/>
      </g>
     </g>
    </g>
    <g id="xtick_10">
     <g id="line2d_19">
      <path d="M 39.516867 90.783062 
L 39.516867 16.759062 
" clip-path="url(#pc785fe7908)" style="fill: none; stroke-dasharray: 0.2,0.33; stroke-dashoffset: 0; stroke: #dedede; stroke-width: 0.2"/>
     </g>
     <g id="line2d_20">
      <g>
       <use xlink:href="#m72468519c7" x="39.516867" y="90.783062" style="stroke: #000000; stroke-width: 0.6"/>
      </g>
     </g>
    </g>
    <g id="xtick_11">
     <g id="line2d_21">
      <path d="M 47.798912 90.783062 
L 47.798912 16.759062 
" clip-path="url(#pc785fe7908)" style="fill: none; stroke-dasharray: 0.2,0.33; stroke-dashoffset: 0; stroke: #dedede; stroke-width: 0.2"/>
     </g>
     <g id="line2d_22">
      <g>
       <use xlink:href="#m72468519c7" x="47.798912" y="90.783062" style="stroke: #000000; stroke-width: 0.6"/>
      </g>
     </g>
    </g>
    <g id="xtick_12">
     <g id="line2d_23">
      <path d="M 52.004356 90.783062 
L 52.004356 16.759062 
" clip-path="url(#pc785fe7908)" style="fill: none; stroke-dasharray: 0.2,0.33; stroke-dashoffset: 0; stroke: #dedede; stroke-width: 0.2"/>
     </g>
     <g id="line2d_24">
      <g>
       <use xlink:href="#m72468519c7" x="52.004356" y="90.783062" style="stroke: #000000; stroke-width: 0.6"/>
      </g>
     </g>
    </g>
    <g id="xtick_13">
     <g id="line2d_25">
      <path d="M 54.988167 90.783062 
L 54.988167 16.759062 
" clip-path="url(#pc785fe7908)" style="fill: none; stroke-dasharray: 0.2,0.33; stroke-dashoffset: 0; stroke: #dedede; stroke-width: 0.2"/>
     </g>
     <g id="line2d_26">
      <g>
       <use xlink:href="#m72468519c7" x="54.988167" y="90.783062" style="stroke: #000000; stroke-width: 0.6"/>
      </g>
     </g>
    </g>
    <g id="xtick_14">
     <g id="line2d_27">
      <path d="M 57.30259 90.783062 
L 57.30259 16.759062 
" clip-path="url(#pc785fe7908)" style="fill: none; stroke-dasharray: 0.2,0.33; stroke-dashoffset: 0; stroke: #dedede; stroke-width: 0.2"/>
     </g>
     <g id="line2d_28">
      <g>
       <use xlink:href="#m72468519c7" x="57.30259" y="90.783062" style="stroke: #000000; stroke-width: 0.6"/>
      </g>
     </g>
    </g>
    <g id="xtick_15">
     <g id="line2d_29">
      <path d="M 59.193611 90.783062 
L 59.193611 16.759062 
" clip-path="url(#pc785fe7908)" style="fill: none; stroke-dasharray: 0.2,0.33; stroke-dashoffset: 0; stroke: #dedede; stroke-width: 0.2"/>
     </g>
     <g id="line2d_30">
      <g>
       <use xlink:href="#m72468519c7" x="59.193611" y="90.783062" style="stroke: #000000; stroke-width: 0.6"/>
      </g>
     </g>
    </g>
    <g id="xtick_16">
     <g id="line2d_31">
      <path d="M 60.792447 90.783062 
L 60.792447 16.759062 
" clip-path="url(#pc785fe7908)" style="fill: none; stroke-dasharray: 0.2,0.33; stroke-dashoffset: 0; stroke: #dedede; stroke-width: 0.2"/>
     </g>
     <g id="line2d_32">
      <g>
       <use xlink:href="#m72468519c7" x="60.792447" y="90.783062" style="stroke: #000000; stroke-width: 0.6"/>
      </g>
     </g>
    </g>
    <g id="xtick_17">
     <g id="line2d_33">
      <path d="M 62.177422 90.783062 
L 62.177422 16.759062 
" clip-path="url(#pc785fe7908)" style="fill: none; stroke-dasharray: 0.2,0.33; stroke-dashoffset: 0; stroke: #dedede; stroke-width: 0.2"/>
     </g>
     <g id="line2d_34">
      <g>
       <use xlink:href="#m72468519c7" x="62.177422" y="90.783062" style="stroke: #000000; stroke-width: 0.6"/>
      </g>
     </g>
    </g>
    <g id="xtick_18">
     <g id="line2d_35">
      <path d="M 63.399056 90.783062 
L 63.399056 16.759062 
" clip-path="url(#pc785fe7908)" style="fill: none; stroke-dasharray: 0.2,0.33; stroke-dashoffset: 0; stroke: #dedede; stroke-width: 0.2"/>
     </g>
     <g id="line2d_36">
      <g>
       <use xlink:href="#m72468519c7" x="63.399056" y="90.783062" style="stroke: #000000; stroke-width: 0.6"/>
      </g>
     </g>
    </g>
    <g id="xtick_19">
     <g id="line2d_37">
      <path d="M 71.6811 90.783062 
L 71.6811 16.759062 
" clip-path="url(#pc785fe7908)" style="fill: none; stroke-dasharray: 0.2,0.33; stroke-dashoffset: 0; stroke: #dedede; stroke-width: 0.2"/>
     </g>
     <g id="line2d_38">
      <g>
       <use xlink:href="#m72468519c7" x="71.6811" y="90.783062" style="stroke: #000000; stroke-width: 0.6"/>
      </g>
     </g>
    </g>
    <g id="xtick_20">
     <g id="line2d_39">
      <path d="M 75.886544 90.783062 
L 75.886544 16.759062 
" clip-path="url(#pc785fe7908)" style="fill: none; stroke-dasharray: 0.2,0.33; stroke-dashoffset: 0; stroke: #dedede; stroke-width: 0.2"/>
     </g>
     <g id="line2d_40">
      <g>
       <use xlink:href="#m72468519c7" x="75.886544" y="90.783062" style="stroke: #000000; stroke-width: 0.6"/>
      </g>
     </g>
    </g>
    <g id="xtick_21">
     <g id="line2d_41">
      <path d="M 78.870355 90.783062 
L 78.870355 16.759062 
" clip-path="url(#pc785fe7908)" style="fill: none; stroke-dasharray: 0.2,0.33; stroke-dashoffset: 0; stroke: #dedede; stroke-width: 0.2"/>
     </g>
     <g id="line2d_42">
      <g>
       <use xlink:href="#m72468519c7" x="78.870355" y="90.783062" style="stroke: #000000; stroke-width: 0.6"/>
      </g>
     </g>
    </g>
    <g id="xtick_22">
     <g id="line2d_43">
      <path d="M 81.184778 90.783062 
L 81.184778 16.759062 
" clip-path="url(#pc785fe7908)" style="fill: none; stroke-dasharray: 0.2,0.33; stroke-dashoffset: 0; stroke: #dedede; stroke-width: 0.2"/>
     </g>
     <g id="line2d_44">
      <g>
       <use xlink:href="#m72468519c7" x="81.184778" y="90.783062" style="stroke: #000000; stroke-width: 0.6"/>
      </g>
     </g>
    </g>
    <g id="xtick_23">
     <g id="line2d_45">
      <path d="M 83.075799 90.783062 
L 83.075799 16.759062 
" clip-path="url(#pc785fe7908)" style="fill: none; stroke-dasharray: 0.2,0.33; stroke-dashoffset: 0; stroke: #dedede; stroke-width: 0.2"/>
     </g>
     <g id="line2d_46">
      <g>
       <use xlink:href="#m72468519c7" x="83.075799" y="90.783062" style="stroke: #000000; stroke-width: 0.6"/>
      </g>
     </g>
    </g>
    <g id="xtick_24">
     <g id="line2d_47">
      <path d="M 84.674635 90.783062 
L 84.674635 16.759062 
" clip-path="url(#pc785fe7908)" style="fill: none; stroke-dasharray: 0.2,0.33; stroke-dashoffset: 0; stroke: #dedede; stroke-width: 0.2"/>
     </g>
     <g id="line2d_48">
      <g>
       <use xlink:href="#m72468519c7" x="84.674635" y="90.783062" style="stroke: #000000; stroke-width: 0.6"/>
      </g>
     </g>
    </g>
    <g id="xtick_25">
     <g id="line2d_49">
      <path d="M 86.05961 90.783062 
L 86.05961 16.759062 
" clip-path="url(#pc785fe7908)" style="fill: none; stroke-dasharray: 0.2,0.33; stroke-dashoffset: 0; stroke: #dedede; stroke-width: 0.2"/>
     </g>
     <g id="line2d_50">
      <g>
       <use xlink:href="#m72468519c7" x="86.05961" y="90.783062" style="stroke: #000000; stroke-width: 0.6"/>
      </g>
     </g>
    </g>
    <g id="xtick_26">
     <g id="line2d_51">
      <path d="M 87.281244 90.783062 
L 87.281244 16.759062 
" clip-path="url(#pc785fe7908)" style="fill: none; stroke-dasharray: 0.2,0.33; stroke-dashoffset: 0; stroke: #dedede; stroke-width: 0.2"/>
     </g>
     <g id="line2d_52">
      <g>
       <use xlink:href="#m72468519c7" x="87.281244" y="90.783062" style="stroke: #000000; stroke-width: 0.6"/>
      </g>
     </g>
    </g>
    <g id="xtick_27">
     <g id="line2d_53">
      <path d="M 95.563288 90.783062 
L 95.563288 16.759062 
" clip-path="url(#pc785fe7908)" style="fill: none; stroke-dasharray: 0.2,0.33; stroke-dashoffset: 0; stroke: #dedede; stroke-width: 0.2"/>
     </g>
     <g id="line2d_54">
      <g>
       <use xlink:href="#m72468519c7" x="95.563288" y="90.783062" style="stroke: #000000; stroke-width: 0.6"/>
      </g>
     </g>
    </g>
    <g id="xtick_28">
     <g id="line2d_55">
      <path d="M 99.768733 90.783062 
L 99.768733 16.759062 
" clip-path="url(#pc785fe7908)" style="fill: none; stroke-dasharray: 0.2,0.33; stroke-dashoffset: 0; stroke: #dedede; stroke-width: 0.2"/>
     </g>
     <g id="line2d_56">
      <g>
       <use xlink:href="#m72468519c7" x="99.768733" y="90.783062" style="stroke: #000000; stroke-width: 0.6"/>
      </g>
     </g>
    </g>
    <g id="xtick_29">
     <g id="line2d_57">
      <path d="M 102.752543 90.783062 
L 102.752543 16.759062 
" clip-path="url(#pc785fe7908)" style="fill: none; stroke-dasharray: 0.2,0.33; stroke-dashoffset: 0; stroke: #dedede; stroke-width: 0.2"/>
     </g>
     <g id="line2d_58">
      <g>
       <use xlink:href="#m72468519c7" x="102.752543" y="90.783062" style="stroke: #000000; stroke-width: 0.6"/>
      </g>
     </g>
    </g>
    <g id="xtick_30">
     <g id="line2d_59">
      <path d="M 105.066966 90.783062 
L 105.066966 16.759062 
" clip-path="url(#pc785fe7908)" style="fill: none; stroke-dasharray: 0.2,0.33; stroke-dashoffset: 0; stroke: #dedede; stroke-width: 0.2"/>
     </g>
     <g id="line2d_60">
      <g>
       <use xlink:href="#m72468519c7" x="105.066966" y="90.783062" style="stroke: #000000; stroke-width: 0.6"/>
      </g>
     </g>
    </g>
    <g id="xtick_31">
     <g id="line2d_61">
      <path d="M 106.957988 90.783062 
L 106.957988 16.759062 
" clip-path="url(#pc785fe7908)" style="fill: none; stroke-dasharray: 0.2,0.33; stroke-dashoffset: 0; stroke: #dedede; stroke-width: 0.2"/>
     </g>
     <g id="line2d_62">
      <g>
       <use xlink:href="#m72468519c7" x="106.957988" y="90.783062" style="stroke: #000000; stroke-width: 0.6"/>
      </g>
     </g>
    </g>
    <g id="xtick_32">
     <g id="line2d_63">
      <path d="M 108.556824 90.783062 
L 108.556824 16.759062 
" clip-path="url(#pc785fe7908)" style="fill: none; stroke-dasharray: 0.2,0.33; stroke-dashoffset: 0; stroke: #dedede; stroke-width: 0.2"/>
     </g>
     <g id="line2d_64">
      <g>
       <use xlink:href="#m72468519c7" x="108.556824" y="90.783062" style="stroke: #000000; stroke-width: 0.6"/>
      </g>
     </g>
    </g>
    <g id="xtick_33">
     <g id="line2d_65">
      <path d="M 109.941798 90.783062 
L 109.941798 16.759062 
" clip-path="url(#pc785fe7908)" style="fill: none; stroke-dasharray: 0.2,0.33; stroke-dashoffset: 0; stroke: #dedede; stroke-width: 0.2"/>
     </g>
     <g id="line2d_66">
      <g>
       <use xlink:href="#m72468519c7" x="109.941798" y="90.783062" style="stroke: #000000; stroke-width: 0.6"/>
      </g>
     </g>
    </g>
    <g id="xtick_34">
     <g id="line2d_67">
      <path d="M 111.163432 90.783062 
L 111.163432 16.759062 
" clip-path="url(#pc785fe7908)" style="fill: none; stroke-dasharray: 0.2,0.33; stroke-dashoffset: 0; stroke: #dedede; stroke-width: 0.2"/>
     </g>
     <g id="line2d_68">
      <g>
       <use xlink:href="#m72468519c7" x="111.163432" y="90.783062" style="stroke: #000000; stroke-width: 0.6"/>
      </g>
     </g>
    </g>
    <g id="xtick_35">
     <g id="line2d_69">
      <path d="M 119.445476 90.783062 
L 119.445476 16.759062 
" clip-path="url(#pc785fe7908)" style="fill: none; stroke-dasharray: 0.2,0.33; stroke-dashoffset: 0; stroke: #dedede; stroke-width: 0.2"/>
     </g>
     <g id="line2d_70">
      <g>
       <use xlink:href="#m72468519c7" x="119.445476" y="90.783062" style="stroke: #000000; stroke-width: 0.6"/>
      </g>
     </g>
    </g>
    <g id="xtick_36">
     <g id="line2d_71">
      <path d="M 123.650921 90.783062 
L 123.650921 16.759062 
" clip-path="url(#pc785fe7908)" style="fill: none; stroke-dasharray: 0.2,0.33; stroke-dashoffset: 0; stroke: #dedede; stroke-width: 0.2"/>
     </g>
     <g id="line2d_72">
      <g>
       <use xlink:href="#m72468519c7" x="123.650921" y="90.783062" style="stroke: #000000; stroke-width: 0.6"/>
      </g>
     </g>
    </g>
    <g id="xtick_37">
     <g id="line2d_73">
      <path d="M 126.634731 90.783062 
L 126.634731 16.759062 
" clip-path="url(#pc785fe7908)" style="fill: none; stroke-dasharray: 0.2,0.33; stroke-dashoffset: 0; stroke: #dedede; stroke-width: 0.2"/>
     </g>
     <g id="line2d_74">
      <g>
       <use xlink:href="#m72468519c7" x="126.634731" y="90.783062" style="stroke: #000000; stroke-width: 0.6"/>
      </g>
     </g>
    </g>
    <g id="xtick_38">
     <g id="line2d_75">
      <path d="M 128.949155 90.783062 
L 128.949155 16.759062 
" clip-path="url(#pc785fe7908)" style="fill: none; stroke-dasharray: 0.2,0.33; stroke-dashoffset: 0; stroke: #dedede; stroke-width: 0.2"/>
     </g>
     <g id="line2d_76">
      <g>
       <use xlink:href="#m72468519c7" x="128.949155" y="90.783062" style="stroke: #000000; stroke-width: 0.6"/>
      </g>
     </g>
    </g>
    <g id="xtick_39">
     <g id="line2d_77">
      <path d="M 130.840176 90.783062 
L 130.840176 16.759062 
" clip-path="url(#pc785fe7908)" style="fill: none; stroke-dasharray: 0.2,0.33; stroke-dashoffset: 0; stroke: #dedede; stroke-width: 0.2"/>
     </g>
     <g id="line2d_78">
      <g>
       <use xlink:href="#m72468519c7" x="130.840176" y="90.783062" style="stroke: #000000; stroke-width: 0.6"/>
      </g>
     </g>
    </g>
    <g id="xtick_40">
     <g id="line2d_79">
      <path d="M 132.439012 90.783062 
L 132.439012 16.759062 
" clip-path="url(#pc785fe7908)" style="fill: none; stroke-dasharray: 0.2,0.33; stroke-dashoffset: 0; stroke: #dedede; stroke-width: 0.2"/>
     </g>
     <g id="line2d_80">
      <g>
       <use xlink:href="#m72468519c7" x="132.439012" y="90.783062" style="stroke: #000000; stroke-width: 0.6"/>
      </g>
     </g>
    </g>
    <g id="xtick_41">
     <g id="line2d_81">
      <path d="M 133.823986 90.783062 
L 133.823986 16.759062 
" clip-path="url(#pc785fe7908)" style="fill: none; stroke-dasharray: 0.2,0.33; stroke-dashoffset: 0; stroke: #dedede; stroke-width: 0.2"/>
     </g>
     <g id="line2d_82">
      <g>
       <use xlink:href="#m72468519c7" x="133.823986" y="90.783062" style="stroke: #000000; stroke-width: 0.6"/>
      </g>
     </g>
    </g>
    <g id="xtick_42">
     <g id="line2d_83">
      <path d="M 135.045621 90.783062 
L 135.045621 16.759062 
" clip-path="url(#pc785fe7908)" style="fill: none; stroke-dasharray: 0.2,0.33; stroke-dashoffset: 0; stroke: #dedede; stroke-width: 0.2"/>
     </g>
     <g id="line2d_84">
      <g>
       <use xlink:href="#m72468519c7" x="135.045621" y="90.783062" style="stroke: #000000; stroke-width: 0.6"/>
      </g>
     </g>
    </g>
    <g id="xtick_43">
     <g id="line2d_85">
      <path d="M 143.327665 90.783062 
L 143.327665 16.759062 
" clip-path="url(#pc785fe7908)" style="fill: none; stroke-dasharray: 0.2,0.33; stroke-dashoffset: 0; stroke: #dedede; stroke-width: 0.2"/>
     </g>
     <g id="line2d_86">
      <g>
       <use xlink:href="#m72468519c7" x="143.327665" y="90.783062" style="stroke: #000000; stroke-width: 0.6"/>
      </g>
     </g>
    </g>
    <g id="xtick_44">
     <g id="line2d_87">
      <path d="M 147.533109 90.783062 
L 147.533109 16.759062 
" clip-path="url(#pc785fe7908)" style="fill: none; stroke-dasharray: 0.2,0.33; stroke-dashoffset: 0; stroke: #dedede; stroke-width: 0.2"/>
     </g>
     <g id="line2d_88">
      <g>
       <use xlink:href="#m72468519c7" x="147.533109" y="90.783062" style="stroke: #000000; stroke-width: 0.6"/>
      </g>
     </g>
    </g>
    <g id="xtick_45">
     <g id="line2d_89">
      <path d="M 150.51692 90.783062 
L 150.51692 16.759062 
" clip-path="url(#pc785fe7908)" style="fill: none; stroke-dasharray: 0.2,0.33; stroke-dashoffset: 0; stroke: #dedede; stroke-width: 0.2"/>
     </g>
     <g id="line2d_90">
      <g>
       <use xlink:href="#m72468519c7" x="150.51692" y="90.783062" style="stroke: #000000; stroke-width: 0.6"/>
      </g>
     </g>
    </g>
    <g id="xtick_46">
     <g id="line2d_91">
      <path d="M 152.831343 90.783062 
L 152.831343 16.759062 
" clip-path="url(#pc785fe7908)" style="fill: none; stroke-dasharray: 0.2,0.33; stroke-dashoffset: 0; stroke: #dedede; stroke-width: 0.2"/>
     </g>
     <g id="line2d_92">
      <g>
       <use xlink:href="#m72468519c7" x="152.831343" y="90.783062" style="stroke: #000000; stroke-width: 0.6"/>
      </g>
     </g>
    </g>
    <g id="xtick_47">
     <g id="line2d_93">
      <path d="M 154.722364 90.783062 
L 154.722364 16.759062 
" clip-path="url(#pc785fe7908)" style="fill: none; stroke-dasharray: 0.2,0.33; stroke-dashoffset: 0; stroke: #dedede; stroke-width: 0.2"/>
     </g>
     <g id="line2d_94">
      <g>
       <use xlink:href="#m72468519c7" x="154.722364" y="90.783062" style="stroke: #000000; stroke-width: 0.6"/>
      </g>
     </g>
    </g>
    <g id="xtick_48">
     <g id="line2d_95">
      <path d="M 156.3212 90.783062 
L 156.3212 16.759062 
" clip-path="url(#pc785fe7908)" style="fill: none; stroke-dasharray: 0.2,0.33; stroke-dashoffset: 0; stroke: #dedede; stroke-width: 0.2"/>
     </g>
     <g id="line2d_96">
      <g>
       <use xlink:href="#m72468519c7" x="156.3212" y="90.783062" style="stroke: #000000; stroke-width: 0.6"/>
      </g>
     </g>
    </g>
    <g id="xtick_49">
     <g id="line2d_97">
      <path d="M 157.706175 90.783062 
L 157.706175 16.759062 
" clip-path="url(#pc785fe7908)" style="fill: none; stroke-dasharray: 0.2,0.33; stroke-dashoffset: 0; stroke: #dedede; stroke-width: 0.2"/>
     </g>
     <g id="line2d_98">
      <g>
       <use xlink:href="#m72468519c7" x="157.706175" y="90.783062" style="stroke: #000000; stroke-width: 0.6"/>
      </g>
     </g>
    </g>
    <g id="xtick_50">
     <g id="line2d_99">
      <path d="M 158.927809 90.783062 
L 158.927809 16.759062 
" clip-path="url(#pc785fe7908)" style="fill: none; stroke-dasharray: 0.2,0.33; stroke-dashoffset: 0; stroke: #dedede; stroke-width: 0.2"/>
     </g>
     <g id="line2d_100">
      <g>
       <use xlink:href="#m72468519c7" x="158.927809" y="90.783062" style="stroke: #000000; stroke-width: 0.6"/>
      </g>
     </g>
    </g>
    <g id="text_7">
     <!-- Process-based GWP (kg CO$_2$ eq.) -->
     <g transform="translate(46.170127 110.470172) scale(0.065 -0.065)">
      <defs>
       <path id="Verdana-50" d="M 3669 3247 
Q 3669 2938 3561 2673 
Q 3453 2409 3259 2216 
Q 3019 1975 2691 1854 
Q 2363 1734 1863 1734 
L 1244 1734 
L 1244 0 
L 625 0 
L 625 4653 
L 1888 4653 
Q 2306 4653 2597 4583 
Q 2888 4513 3113 4363 
Q 3378 4184 3523 3918 
Q 3669 3653 3669 3247 
z
M 3025 3231 
Q 3025 3472 2940 3650 
Q 2856 3828 2684 3941 
Q 2534 4038 2342 4080 
Q 2150 4122 1856 4122 
L 1244 4122 
L 1244 2263 
L 1766 2263 
Q 2141 2263 2375 2330 
Q 2609 2397 2756 2544 
Q 2903 2694 2964 2859 
Q 3025 3025 3025 3231 
z
" transform="scale(0.015625)"/>
       <path id="Verdana-72" d="M 2756 2850 
L 2725 2850 
Q 2594 2881 2470 2895 
Q 2347 2909 2178 2909 
Q 1906 2909 1653 2789 
Q 1400 2669 1166 2478 
L 1166 0 
L 578 0 
L 578 3491 
L 1166 3491 
L 1166 2975 
Q 1516 3256 1783 3373 
Q 2050 3491 2328 3491 
Q 2481 3491 2550 3483 
Q 2619 3475 2756 3453 
L 2756 2850 
z
" transform="scale(0.015625)"/>
       <path id="Verdana-6f" d="M 3553 1744 
Q 3553 891 3115 397 
Q 2678 -97 1944 -97 
Q 1203 -97 767 397 
Q 331 891 331 1744 
Q 331 2597 767 3092 
Q 1203 3588 1944 3588 
Q 2678 3588 3115 3092 
Q 3553 2597 3553 1744 
z
M 2947 1744 
Q 2947 2422 2681 2751 
Q 2416 3081 1944 3081 
Q 1466 3081 1202 2751 
Q 938 2422 938 1744 
Q 938 1088 1203 748 
Q 1469 409 1944 409 
Q 2413 409 2680 745 
Q 2947 1081 2947 1744 
z
" transform="scale(0.015625)"/>
       <path id="Verdana-63" d="M 3159 219 
Q 2866 78 2602 0 
Q 2338 -78 2041 -78 
Q 1663 -78 1347 33 
Q 1031 144 806 369 
Q 578 594 453 937 
Q 328 1281 328 1741 
Q 328 2597 798 3084 
Q 1269 3572 2041 3572 
Q 2341 3572 2630 3487 
Q 2919 3403 3159 3281 
L 3159 2628 
L 3128 2628 
Q 2859 2838 2573 2950 
Q 2288 3063 2016 3063 
Q 1516 3063 1227 2727 
Q 938 2391 938 1741 
Q 938 1109 1220 770 
Q 1503 431 2016 431 
Q 2194 431 2378 478 
Q 2563 525 2709 600 
Q 2838 666 2950 739 
Q 3063 813 3128 866 
L 3159 866 
L 3159 219 
z
" transform="scale(0.015625)"/>
       <path id="Verdana-65" d="M 3500 1684 
L 928 1684 
Q 928 1363 1025 1123 
Q 1122 884 1291 731 
Q 1453 581 1676 506 
Q 1900 431 2169 431 
Q 2525 431 2886 573 
Q 3247 716 3400 853 
L 3431 853 
L 3431 213 
Q 3134 88 2825 3 
Q 2516 -81 2175 -81 
Q 1306 -81 818 389 
Q 331 859 331 1725 
Q 331 2581 798 3084 
Q 1266 3588 2028 3588 
Q 2734 3588 3117 3175 
Q 3500 2763 3500 2003 
L 3500 1684 
z
M 2928 2134 
Q 2925 2597 2695 2850 
Q 2466 3103 1997 3103 
Q 1525 3103 1245 2825 
Q 966 2547 928 2134 
L 2928 2134 
z
" transform="scale(0.015625)"/>
       <path id="Verdana-73" d="M 3072 1006 
Q 3072 528 2676 222 
Q 2281 -84 1597 -84 
Q 1209 -84 886 8 
Q 563 100 344 209 
L 344 869 
L 375 869 
Q 653 659 993 536 
Q 1334 413 1647 413 
Q 2034 413 2253 538 
Q 2472 663 2472 931 
Q 2472 1138 2353 1244 
Q 2234 1350 1897 1425 
Q 1772 1453 1570 1490 
Q 1369 1528 1203 1572 
Q 744 1694 551 1930 
Q 359 2166 359 2509 
Q 359 2725 448 2915 
Q 538 3106 719 3256 
Q 894 3403 1164 3489 
Q 1434 3575 1769 3575 
Q 2081 3575 2401 3498 
Q 2722 3422 2934 3313 
L 2934 2684 
L 2903 2684 
Q 2678 2850 2356 2964 
Q 2034 3078 1725 3078 
Q 1403 3078 1181 2954 
Q 959 2831 959 2588 
Q 959 2372 1094 2263 
Q 1225 2153 1519 2084 
Q 1681 2047 1882 2009 
Q 2084 1972 2219 1941 
Q 2628 1847 2850 1619 
Q 3072 1388 3072 1006 
z
" transform="scale(0.015625)"/>
       <path id="Verdana-2d" d="M 2428 1753 
L 478 1753 
L 478 2319 
L 2428 2319 
L 2428 1753 
z
" transform="scale(0.015625)"/>
       <path id="Verdana-62" d="M 3650 1772 
Q 3650 1334 3526 984 
Q 3403 634 3194 397 
Q 2972 150 2706 26 
Q 2441 -97 2122 -97 
Q 1825 -97 1603 -26 
Q 1381 44 1166 163 
L 1128 0 
L 578 0 
L 578 4863 
L 1166 4863 
L 1166 3125 
Q 1413 3328 1691 3458 
Q 1969 3588 2316 3588 
Q 2934 3588 3292 3113 
Q 3650 2638 3650 1772 
z
M 3044 1756 
Q 3044 2381 2837 2704 
Q 2631 3028 2172 3028 
Q 1916 3028 1653 2917 
Q 1391 2806 1166 2631 
L 1166 631 
Q 1416 519 1595 475 
Q 1775 431 2003 431 
Q 2491 431 2767 751 
Q 3044 1072 3044 1756 
z
" transform="scale(0.015625)"/>
       <path id="Verdana-61" d="M 3291 0 
L 2706 0 
L 2706 372 
Q 2628 319 2495 223 
Q 2363 128 2238 72 
Q 2091 0 1900 -48 
Q 1709 -97 1453 -97 
Q 981 -97 653 215 
Q 325 528 325 1013 
Q 325 1409 495 1654 
Q 666 1900 981 2041 
Q 1300 2181 1747 2231 
Q 2194 2281 2706 2306 
L 2706 2397 
Q 2706 2597 2636 2728 
Q 2566 2859 2434 2934 
Q 2309 3006 2134 3031 
Q 1959 3056 1769 3056 
Q 1538 3056 1253 2995 
Q 969 2934 666 2819 
L 634 2819 
L 634 3416 
Q 806 3463 1131 3519 
Q 1456 3575 1772 3575 
Q 2141 3575 2414 3514 
Q 2688 3453 2888 3306 
Q 3084 3163 3187 2934 
Q 3291 2706 3291 2369 
L 3291 0 
z
M 2706 859 
L 2706 1831 
Q 2438 1816 2073 1784 
Q 1709 1753 1497 1694 
Q 1244 1622 1087 1470 
Q 931 1319 931 1053 
Q 931 753 1112 601 
Q 1294 450 1666 450 
Q 1975 450 2231 570 
Q 2488 691 2706 859 
z
" transform="scale(0.015625)"/>
       <path id="Verdana-64" d="M 3409 0 
L 2822 0 
L 2822 366 
Q 2569 147 2294 25 
Q 2019 -97 1697 -97 
Q 1072 -97 705 384 
Q 338 866 338 1719 
Q 338 2163 464 2509 
Q 591 2856 806 3100 
Q 1019 3338 1301 3463 
Q 1584 3588 1888 3588 
Q 2163 3588 2375 3530 
Q 2588 3472 2822 3350 
L 2822 4863 
L 3409 4863 
L 3409 0 
z
M 2822 859 
L 2822 2863 
Q 2584 2969 2396 3009 
Q 2209 3050 1988 3050 
Q 1494 3050 1219 2706 
Q 944 2363 944 1731 
Q 944 1109 1156 786 
Q 1369 463 1838 463 
Q 2088 463 2344 573 
Q 2600 684 2822 859 
z
" transform="scale(0.015625)"/>
       <path id="Verdana-20" transform="scale(0.015625)"/>
       <path id="Verdana-47" d="M 4506 344 
Q 4125 169 3673 39 
Q 3222 -91 2800 -91 
Q 2256 -91 1803 59 
Q 1350 209 1031 509 
Q 709 813 534 1267 
Q 359 1722 359 2331 
Q 359 3447 1011 4092 
Q 1663 4738 2800 4738 
Q 3197 4738 3611 4642 
Q 4025 4547 4503 4319 
L 4503 3584 
L 4447 3584 
Q 4350 3659 4165 3781 
Q 3981 3903 3803 3984 
Q 3588 4081 3314 4145 
Q 3041 4209 2694 4209 
Q 1913 4209 1458 3707 
Q 1003 3206 1003 2350 
Q 1003 1447 1478 945 
Q 1953 444 2772 444 
Q 3072 444 3370 503 
Q 3669 563 3894 656 
L 3894 1797 
L 2647 1797 
L 2647 2341 
L 4506 2341 
L 4506 344 
z
" transform="scale(0.015625)"/>
       <path id="Verdana-57" d="M 6041 4653 
L 4831 0 
L 4134 0 
L 3156 3863 
L 2200 0 
L 1519 0 
L 288 4653 
L 922 4653 
L 1900 784 
L 2863 4653 
L 3491 4653 
L 4463 747 
L 5434 4653 
L 6041 4653 
z
" transform="scale(0.015625)"/>
       <path id="Verdana-28" d="M 2447 -1288 
L 1731 -1288 
Q 1178 -653 872 97 
Q 566 847 566 1788 
Q 566 2728 872 3478 
Q 1178 4228 1731 4863 
L 2447 4863 
L 2447 4831 
Q 2194 4603 1964 4304 
Q 1734 4006 1538 3609 
Q 1350 3225 1233 2762 
Q 1116 2300 1116 1788 
Q 1116 1253 1230 809 
Q 1344 366 1538 -34 
Q 1725 -419 1965 -730 
Q 2206 -1041 2447 -1256 
L 2447 -1288 
z
" transform="scale(0.015625)"/>
       <path id="Verdana-6b" d="M 3747 0 
L 2972 0 
L 1572 1528 
L 1191 1166 
L 1191 0 
L 603 0 
L 603 4863 
L 1191 4863 
L 1191 1744 
L 2888 3491 
L 3628 3491 
L 2006 1878 
L 3747 0 
z
" transform="scale(0.015625)"/>
       <path id="Verdana-67" d="M 3409 397 
Q 3409 -491 3006 -906 
Q 2603 -1322 1766 -1322 
Q 1488 -1322 1223 -1283 
Q 959 -1244 703 -1172 
L 703 -572 
L 734 -572 
Q 878 -628 1190 -711 
Q 1503 -794 1816 -794 
Q 2116 -794 2312 -722 
Q 2509 -650 2619 -522 
Q 2728 -400 2775 -228 
Q 2822 -56 2822 156 
L 2822 475 
Q 2556 263 2314 158 
Q 2072 53 1697 53 
Q 1072 53 705 504 
Q 338 956 338 1778 
Q 338 2228 464 2554 
Q 591 2881 809 3119 
Q 1013 3341 1303 3464 
Q 1594 3588 1881 3588 
Q 2184 3588 2389 3527 
Q 2594 3466 2822 3341 
L 2859 3491 
L 3409 3491 
L 3409 397 
z
M 2822 959 
L 2822 2863 
Q 2588 2969 2386 3014 
Q 2184 3059 1984 3059 
Q 1500 3059 1222 2734 
Q 944 2409 944 1791 
Q 944 1203 1150 900 
Q 1356 597 1834 597 
Q 2091 597 2348 695 
Q 2606 794 2822 959 
z
" transform="scale(0.015625)"/>
       <path id="Verdana-43" d="M 4219 338 
Q 4047 263 3908 197 
Q 3769 131 3544 59 
Q 3353 0 3129 -42 
Q 2906 -84 2638 -84 
Q 2131 -84 1717 58 
Q 1303 200 997 503 
Q 697 800 528 1258 
Q 359 1716 359 2322 
Q 359 2897 521 3350 
Q 684 3803 991 4116 
Q 1288 4419 1708 4578 
Q 2128 4738 2641 4738 
Q 3016 4738 3389 4647 
Q 3763 4556 4219 4328 
L 4219 3594 
L 4172 3594 
Q 3788 3916 3409 4062 
Q 3031 4209 2600 4209 
Q 2247 4209 1964 4095 
Q 1681 3981 1459 3741 
Q 1244 3506 1123 3148 
Q 1003 2791 1003 2322 
Q 1003 1831 1136 1478 
Q 1269 1125 1478 903 
Q 1697 672 1989 561 
Q 2281 450 2606 450 
Q 3053 450 3443 603 
Q 3834 756 4175 1063 
L 4219 1063 
L 4219 338 
z
" transform="scale(0.015625)"/>
       <path id="Verdana-4f" d="M 4094 4119 
Q 4378 3806 4529 3353 
Q 4681 2900 4681 2325 
Q 4681 1750 4526 1295 
Q 4372 841 4094 538 
Q 3806 222 3414 62 
Q 3022 -97 2519 -97 
Q 2028 -97 1626 65 
Q 1225 228 944 538 
Q 663 847 511 1297 
Q 359 1747 359 2325 
Q 359 2894 509 3345 
Q 659 3797 947 4119 
Q 1222 4425 1630 4587 
Q 2038 4750 2519 4750 
Q 3019 4750 3417 4586 
Q 3816 4422 4094 4119 
z
M 4038 2325 
Q 4038 3231 3631 3723 
Q 3225 4216 2522 4216 
Q 1813 4216 1408 3723 
Q 1003 3231 1003 2325 
Q 1003 1409 1415 923 
Q 1828 438 2522 438 
Q 3216 438 3627 923 
Q 4038 1409 4038 2325 
z
" transform="scale(0.015625)"/>
       <path id="DejaVuSans-32" d="M 1228 531 
L 3431 531 
L 3431 0 
L 469 0 
L 469 531 
Q 828 903 1448 1529 
Q 2069 2156 2228 2338 
Q 2531 2678 2651 2914 
Q 2772 3150 2772 3378 
Q 2772 3750 2511 3984 
Q 2250 4219 1831 4219 
Q 1534 4219 1204 4116 
Q 875 4013 500 3803 
L 500 4441 
Q 881 4594 1212 4672 
Q 1544 4750 1819 4750 
Q 2544 4750 2975 4387 
Q 3406 4025 3406 3419 
Q 3406 3131 3298 2873 
Q 3191 2616 2906 2266 
Q 2828 2175 2409 1742 
Q 1991 1309 1228 531 
z
" transform="scale(0.015625)"/>
       <path id="Verdana-71" d="M 3409 -1288 
L 2822 -1288 
L 2822 394 
Q 2550 159 2281 45 
Q 2013 -69 1700 -69 
Q 1078 -69 708 411 
Q 338 891 338 1734 
Q 338 2184 467 2529 
Q 597 2875 809 3109 
Q 1016 3338 1294 3463 
Q 1572 3588 1881 3588 
Q 2163 3588 2380 3525 
Q 2597 3463 2822 3341 
L 2859 3491 
L 3409 3491 
L 3409 -1288 
z
M 2822 888 
L 2822 2863 
Q 2578 2972 2390 3015 
Q 2203 3059 1984 3059 
Q 1475 3059 1209 2714 
Q 944 2369 944 1763 
Q 944 1150 1158 820 
Q 1372 491 1831 491 
Q 2088 491 2344 602 
Q 2600 713 2822 888 
z
" transform="scale(0.015625)"/>
       <path id="Verdana-2e" d="M 1538 0 
L 791 0 
L 791 891 
L 1538 891 
L 1538 0 
z
" transform="scale(0.015625)"/>
       <path id="Verdana-29" d="M 2341 1788 
Q 2341 847 2034 97 
Q 1728 -653 1175 -1288 
L 459 -1288 
L 459 -1256 
Q 700 -1041 942 -730 
Q 1184 -419 1369 -34 
Q 1563 366 1677 809 
Q 1791 1253 1791 1788 
Q 1791 2300 1675 2762 
Q 1559 3225 1369 3609 
Q 1172 4006 942 4304 
Q 713 4603 459 4831 
L 459 4863 
L 1175 4863 
Q 1728 4228 2034 3478 
Q 2341 2728 2341 1788 
z
" transform="scale(0.015625)"/>
      </defs>
      <use xlink:href="#Verdana-50" transform="translate(0 0.015625)"/>
      <use xlink:href="#Verdana-72" transform="translate(60.302734 0.015625)"/>
      <use xlink:href="#Verdana-6f" transform="translate(102.978516 0.015625)"/>
      <use xlink:href="#Verdana-63" transform="translate(163.671875 0.015625)"/>
      <use xlink:href="#Verdana-65" transform="translate(215.771484 0.015625)"/>
      <use xlink:href="#Verdana-73" transform="translate(275.341797 0.015625)"/>
      <use xlink:href="#Verdana-73" transform="translate(327.441406 0.015625)"/>
      <use xlink:href="#Verdana-2d" transform="translate(379.541016 0.015625)"/>
      <use xlink:href="#Verdana-62" transform="translate(424.951172 0.015625)"/>
      <use xlink:href="#Verdana-61" transform="translate(487.255859 0.015625)"/>
      <use xlink:href="#Verdana-73" transform="translate(547.314453 0.015625)"/>
      <use xlink:href="#Verdana-65" transform="translate(599.414062 0.015625)"/>
      <use xlink:href="#Verdana-64" transform="translate(658.984375 0.015625)"/>
      <use xlink:href="#Verdana-20" transform="translate(721.289062 0.015625)"/>
      <use xlink:href="#Verdana-47" transform="translate(756.445312 0.015625)"/>
      <use xlink:href="#Verdana-57" transform="translate(833.984375 0.015625)"/>
      <use xlink:href="#Verdana-50" transform="translate(932.861328 0.015625)"/>
      <use xlink:href="#Verdana-20" transform="translate(993.164062 0.015625)"/>
      <use xlink:href="#Verdana-28" transform="translate(1028.320312 0.015625)"/>
      <use xlink:href="#Verdana-6b" transform="translate(1073.730469 0.015625)"/>
      <use xlink:href="#Verdana-67" transform="translate(1132.910156 0.015625)"/>
      <use xlink:href="#Verdana-20" transform="translate(1195.214844 0.015625)"/>
      <use xlink:href="#Verdana-43" transform="translate(1230.371094 0.015625)"/>
      <use xlink:href="#Verdana-4f" transform="translate(1300.195312 0.015625)"/>
      <use xlink:href="#DejaVuSans-32" transform="translate(1379.863281 -16.390625) scale(0.7)"/>
      <use xlink:href="#Verdana-20" transform="translate(1427.133789 0.015625)"/>
      <use xlink:href="#Verdana-65" transform="translate(1462.290039 0.015625)"/>
      <use xlink:href="#Verdana-71" transform="translate(1521.860352 0.015625)"/>
      <use xlink:href="#Verdana-2e" transform="translate(1584.165039 0.015625)"/>
      <use xlink:href="#Verdana-29" transform="translate(1620.541992 0.015625)"/>
     </g>
    </g>
   </g>
   <g id="matplotlib.axis_2">
    <g id="ytick_1">
     <g id="line2d_101">
      <path d="M 33.445 73.59892 
L 167.185254 73.59892 
" clip-path="url(#pc785fe7908)" style="fill: none; stroke: #dedede; stroke-width: 0.4; stroke-linecap: square"/>
     </g>
     <g id="line2d_102">
      <defs>
       <path id="mc9907e4fa6" d="M 0 0 
L -2.5 0 
" style="stroke: #000000; stroke-width: 0.5"/>
      </defs>
      <g>
       <use xlink:href="#mc9907e4fa6" x="33.445" y="73.59892" style="stroke: #000000; stroke-width: 0.5"/>
      </g>
     </g>
     <g id="text_8">
      <!-- $\mathdefault{10^{3}}$ -->
      <g transform="translate(17.505 76.068412) scale(0.065 -0.065)">
       <use xlink:href="#Verdana-31" transform="translate(0 0.864063)"/>
       <use xlink:href="#Verdana-30" transform="translate(63.574219 0.864063)"/>
       <use xlink:href="#Verdana-33" transform="translate(128.103008 39.046875) scale(0.7)"/>
      </g>
     </g>
    </g>
    <g id="ytick_2">
     <g id="line2d_103">
      <path d="M 33.445 47.161777 
L 167.185254 47.161777 
" clip-path="url(#pc785fe7908)" style="fill: none; stroke: #dedede; stroke-width: 0.4; stroke-linecap: square"/>
     </g>
     <g id="line2d_104">
      <g>
       <use xlink:href="#mc9907e4fa6" x="33.445" y="47.161777" style="stroke: #000000; stroke-width: 0.5"/>
      </g>
     </g>
     <g id="text_9">
      <!-- $\mathdefault{10^{5}}$ -->
      <g transform="translate(17.505 49.631269) scale(0.065 -0.065)">
       <use xlink:href="#Verdana-31" transform="translate(0 0.925)"/>
       <use xlink:href="#Verdana-30" transform="translate(63.574219 0.925)"/>
       <use xlink:href="#Verdana-35" transform="translate(128.103008 39.107813) scale(0.7)"/>
      </g>
     </g>
    </g>
    <g id="ytick_3">
     <g id="line2d_105">
      <path d="M 33.445 20.724634 
L 167.185254 20.724634 
" clip-path="url(#pc785fe7908)" style="fill: none; stroke: #dedede; stroke-width: 0.4; stroke-linecap: square"/>
     </g>
     <g id="line2d_106">
      <g>
       <use xlink:href="#mc9907e4fa6" x="33.445" y="20.724634" style="stroke: #000000; stroke-width: 0.5"/>
      </g>
     </g>
     <g id="text_10">
      <!-- $\mathdefault{10^{7}}$ -->
      <g transform="translate(17.505 23.194126) scale(0.065 -0.065)">
       <use xlink:href="#Verdana-31" transform="translate(0 0.925)"/>
       <use xlink:href="#Verdana-30" transform="translate(63.574219 0.925)"/>
       <use xlink:href="#Verdana-37" transform="translate(128.103008 39.107813) scale(0.7)"/>
      </g>
     </g>
    </g>
    <g id="text_11">
     <!-- EEIO-LCA GWP (kg CO$_2$ eq.) -->
     <g transform="translate(12.14 100.311062) rotate(-90) scale(0.065 -0.065)">
      <defs>
       <path id="Verdana-45" d="M 3691 0 
L 625 0 
L 625 4653 
L 3691 4653 
L 3691 4103 
L 1244 4103 
L 1244 2828 
L 3691 2828 
L 3691 2278 
L 1244 2278 
L 1244 550 
L 3691 550 
L 3691 0 
z
" transform="scale(0.015625)"/>
       <path id="Verdana-49" d="M 2266 0 
L 428 0 
L 428 475 
L 1038 475 
L 1038 4178 
L 428 4178 
L 428 4653 
L 2266 4653 
L 2266 4178 
L 1656 4178 
L 1656 475 
L 2266 475 
L 2266 0 
z
" transform="scale(0.015625)"/>
       <path id="Verdana-4c" d="M 3569 0 
L 625 0 
L 625 4653 
L 1244 4653 
L 1244 550 
L 3569 550 
L 3569 0 
z
" transform="scale(0.015625)"/>
       <path id="Verdana-41" d="M 4294 0 
L 3634 0 
L 3178 1297 
L 1166 1297 
L 709 0 
L 81 0 
L 1775 4653 
L 2600 4653 
L 4294 0 
z
M 2988 1828 
L 2172 4113 
L 1353 1828 
L 2988 1828 
z
" transform="scale(0.015625)"/>
      </defs>
      <use xlink:href="#Verdana-45" transform="translate(0 0.015625)"/>
      <use xlink:href="#Verdana-45" transform="translate(63.232422 0.015625)"/>
      <use xlink:href="#Verdana-49" transform="translate(126.464844 0.015625)"/>
      <use xlink:href="#Verdana-4f" transform="translate(168.554688 0.015625)"/>
      <use xlink:href="#Verdana-2d" transform="translate(247.265625 0.015625)"/>
      <use xlink:href="#Verdana-4c" transform="translate(292.675781 0.015625)"/>
      <use xlink:href="#Verdana-43" transform="translate(348.339844 0.015625)"/>
      <use xlink:href="#Verdana-41" transform="translate(418.164062 0.015625)"/>
      <use xlink:href="#Verdana-20" transform="translate(486.523438 0.015625)"/>
      <use xlink:href="#Verdana-47" transform="translate(521.679688 0.015625)"/>
      <use xlink:href="#Verdana-57" transform="translate(599.21875 0.015625)"/>
      <use xlink:href="#Verdana-50" transform="translate(698.095703 0.015625)"/>
      <use xlink:href="#Verdana-20" transform="translate(758.398438 0.015625)"/>
      <use xlink:href="#Verdana-28" transform="translate(793.554688 0.015625)"/>
      <use xlink:href="#Verdana-6b" transform="translate(838.964844 0.015625)"/>
      <use xlink:href="#Verdana-67" transform="translate(898.144531 0.015625)"/>
      <use xlink:href="#Verdana-20" transform="translate(960.449219 0.015625)"/>
      <use xlink:href="#Verdana-43" transform="translate(995.605469 0.015625)"/>
      <use xlink:href="#Verdana-4f" transform="translate(1065.429688 0.015625)"/>
      <use xlink:href="#DejaVuSans-32" transform="translate(1145.097656 -16.390625) scale(0.7)"/>
      <use xlink:href="#Verdana-20" transform="translate(1192.368164 0.015625)"/>
      <use xlink:href="#Verdana-65" transform="translate(1227.524414 0.015625)"/>
      <use xlink:href="#Verdana-71" transform="translate(1287.094727 0.015625)"/>
      <use xlink:href="#Verdana-2e" transform="translate(1349.399414 0.015625)"/>
      <use xlink:href="#Verdana-29" transform="translate(1385.776367 0.015625)"/>
     </g>
    </g>
   </g>
   <g id="line2d_107">
    <path d="M 33.445 90.783062 
L 167.185254 16.759062 
" clip-path="url(#pc785fe7908)" style="fill: none; stroke-dasharray: 0.9,1.8; stroke-dashoffset: 0; stroke: #555555; stroke-width: 0.9"/>
   </g>
   <g id="line2d_108">
    <path d="M 33.445 87.967714 
L 167.185254 13.943714 
" clip-path="url(#pc785fe7908)" style="fill: none; stroke-dasharray: 4.5,2.7; stroke-dashoffset: 0; stroke: #1d9e75; stroke-opacity: 0.75; stroke-width: 0.9"/>
   </g>
   <g id="patch_3">
    <path d="M 33.445 90.783062 
L 33.445 16.759062 
" style="fill: none; stroke: #000000; stroke-width: 0.5; stroke-linejoin: miter; stroke-linecap: square"/>
   </g>
   <g id="patch_4">
    <path d="M 167.185254 90.783062 
L 167.185254 16.759062 
" style="fill: none; stroke: #000000; stroke-width: 0.5; stroke-linejoin: miter; stroke-linecap: square"/>
   </g>
   <g id="patch_5">
    <path d="M 33.445 90.783062 
L 167.185254 90.783062 
" style="fill: none; stroke: #000000; stroke-width: 0.5; stroke-linejoin: miter; stroke-linecap: square"/>
   </g>
   <g id="patch_6">
    <path d="M 33.445 16.759062 
L 167.185254 16.759062 
" style="fill: none; stroke: #000000; stroke-width: 0.5; stroke-linejoin: miter; stroke-linecap: square"/>
   </g>
   <g id="PathCollection_1">
    <defs>
     <path id="m81d972a775" d="M 0 1.581139 
C 0.419323 1.581139 0.821528 1.41454 1.118034 1.118034 
C 1.41454 0.821528 1.581139 0.419323 1.581139 0 
C 1.581139 -0.419323 1.41454 -0.821528 1.118034 -1.118034 
C 0.821528 -1.41454 0.419323 -1.581139 0 -1.581139 
C -0.419323 -1.581139 -0.821528 -1.41454 -1.118034 -1.118034 
C -1.41454 -0.821528 -1.581139 -0.419323 -1.581139 0 
C -1.581139 0.419323 -1.41454 0.821528 -1.118034 1.118034 
C -0.821528 1.41454 -0.419323 1.581139 0 1.581139 
z
" style="stroke: #0f6e56; stroke-opacity: 0.8; stroke-width: 0.4"/>
    </defs>
    <g clip-path="url(#pc785fe7908)">
     <use xlink:href="#m81d972a775" x="121.634684" y="43.153958" style="fill: #1d9e75; fill-opacity: 0.8; stroke: #0f6e56; stroke-opacity: 0.8; stroke-width: 0.4"/>
     <use xlink:href="#m81d972a775" x="141.702867" y="28.241193" style="fill: #1d9e75; fill-opacity: 0.8; stroke: #0f6e56; stroke-opacity: 0.8; stroke-width: 0.4"/>
     <use xlink:href="#m81d972a775" x="132.259666" y="38.351361" style="fill: #1d9e75; fill-opacity: 0.8; stroke: #0f6e56; stroke-opacity: 0.8; stroke-width: 0.4"/>
     <use xlink:href="#m81d972a775" x="121.634684" y="42.183967" style="fill: #1d9e75; fill-opacity: 0.8; stroke: #0f6e56; stroke-opacity: 0.8; stroke-width: 0.4"/>
     <use xlink:href="#m81d972a775" x="114.147243" y="39.033714" style="fill: #1d9e75; fill-opacity: 0.8; stroke: #0f6e56; stroke-opacity: 0.8; stroke-width: 0.4"/>
     <use xlink:href="#m81d972a775" x="113.431655" y="38.841881" style="fill: #1d9e75; fill-opacity: 0.8; stroke: #0f6e56; stroke-opacity: 0.8; stroke-width: 0.4"/>
     <use xlink:href="#m81d972a775" x="102.595786" y="43.883924" style="fill: #1d9e75; fill-opacity: 0.8; stroke: #0f6e56; stroke-opacity: 0.8; stroke-width: 0.4"/>
     <use xlink:href="#m81d972a775" x="94.237413" y="46.614625" style="fill: #1d9e75; fill-opacity: 0.8; stroke: #0f6e56; stroke-opacity: 0.8; stroke-width: 0.4"/>
     <use xlink:href="#m81d972a775" x="105.884388" y="45.926876" style="fill: #1d9e75; fill-opacity: 0.8; stroke: #0f6e56; stroke-opacity: 0.8; stroke-width: 0.4"/>
     <use xlink:href="#m81d972a775" x="76.684777" y="56.725918" style="fill: #1d9e75; fill-opacity: 0.8; stroke: #0f6e56; stroke-opacity: 0.8; stroke-width: 0.4"/>
     <use xlink:href="#m81d972a775" x="78.473928" y="55.827974" style="fill: #1d9e75; fill-opacity: 0.8; stroke: #0f6e56; stroke-opacity: 0.8; stroke-width: 0.4"/>
     <use xlink:href="#m81d972a775" x="77.336142" y="56.879835" style="fill: #1d9e75; fill-opacity: 0.8; stroke: #0f6e56; stroke-opacity: 0.8; stroke-width: 0.4"/>
     <use xlink:href="#m81d972a775" x="97.279988" y="41.210127" style="fill: #1d9e75; fill-opacity: 0.8; stroke: #0f6e56; stroke-opacity: 0.8; stroke-width: 0.4"/>
     <use xlink:href="#m81d972a775" x="78.922085" y="58.207838" style="fill: #1d9e75; fill-opacity: 0.8; stroke: #0f6e56; stroke-opacity: 0.8; stroke-width: 0.4"/>
     <use xlink:href="#m81d972a775" x="79.692569" y="51.140963" style="fill: #1d9e75; fill-opacity: 0.8; stroke: #0f6e56; stroke-opacity: 0.8; stroke-width: 0.4"/>
     <use xlink:href="#m81d972a775" x="72.622395" y="59.053593" style="fill: #1d9e75; fill-opacity: 0.8; stroke: #0f6e56; stroke-opacity: 0.8; stroke-width: 0.4"/>
     <use xlink:href="#m81d972a775" x="77.336142" y="50.774053" style="fill: #1d9e75; fill-opacity: 0.8; stroke: #0f6e56; stroke-opacity: 0.8; stroke-width: 0.4"/>
     <use xlink:href="#m81d972a775" x="97.279988" y="51.557574" style="fill: #1d9e75; fill-opacity: 0.8; stroke: #0f6e56; stroke-opacity: 0.8; stroke-width: 0.4"/>
     <use xlink:href="#m81d972a775" x="54.263314" y="66.814916" style="fill: #1d9e75; fill-opacity: 0.8; stroke: #0f6e56; stroke-opacity: 0.8; stroke-width: 0.4"/>
     <use xlink:href="#m81d972a775" x="81.3085" y="56.756373" style="fill: #1d9e75; fill-opacity: 0.8; stroke: #0f6e56; stroke-opacity: 0.8; stroke-width: 0.4"/>
     <use xlink:href="#m81d972a775" x="81.3085" y="54.829133" style="fill: #1d9e75; fill-opacity: 0.8; stroke: #0f6e56; stroke-opacity: 0.8; stroke-width: 0.4"/>
     <use xlink:href="#m81d972a775" x="81.3085" y="60.561128" style="fill: #1d9e75; fill-opacity: 0.8; stroke: #0f6e56; stroke-opacity: 0.8; stroke-width: 0.4"/>
     <use xlink:href="#m81d972a775" x="79.999382" y="61.918178" style="fill: #1d9e75; fill-opacity: 0.8; stroke: #0f6e56; stroke-opacity: 0.8; stroke-width: 0.4"/>
     <use xlink:href="#m81d972a775" x="84.777839" y="60.890306" style="fill: #1d9e75; fill-opacity: 0.8; stroke: #0f6e56; stroke-opacity: 0.8; stroke-width: 0.4"/>
     <use xlink:href="#m81d972a775" x="82.901478" y="60.662737" style="fill: #1d9e75; fill-opacity: 0.8; stroke: #0f6e56; stroke-opacity: 0.8; stroke-width: 0.4"/>
     <use xlink:href="#m81d972a775" x="82.901478" y="61.017179" style="fill: #1d9e75; fill-opacity: 0.8; stroke: #0f6e56; stroke-opacity: 0.8; stroke-width: 0.4"/>
     <use xlink:href="#m81d972a775" x="80.183776" y="62.250284" style="fill: #1d9e75; fill-opacity: 0.8; stroke: #0f6e56; stroke-opacity: 0.8; stroke-width: 0.4"/>
    </g>
   </g>
   <g id="text_12">
    <g id="patch_7">
     <path d="M 55.953047 33.878345 
L 163.173047 33.878345 
Q 165.573047 33.878345 165.573047 31.478345 
L 165.573047 19.032282 
Q 165.573047 16.632282 163.173047 16.632282 
L 55.953047 16.632282 
Q 53.553047 16.632282 53.553047 19.032282 
L 53.553047 31.478345 
Q 53.553047 33.878345 55.953047 33.878345 
z
" style="fill: #ffffff; stroke: #cccccc; stroke-width: 0.4; stroke-linejoin: miter"/>
    </g>
    <!-- $n$ = 27 -->
    <g style="fill: #444444" transform="translate(142.713047 23.538845) scale(0.06 -0.06)">
     <defs>
      <path id="DejaVuSans-Oblique-6e" d="M 3566 2113 
L 3156 0 
L 2578 0 
L 2988 2091 
Q 3016 2238 3031 2350 
Q 3047 2463 3047 2528 
Q 3047 2791 2881 2937 
Q 2716 3084 2419 3084 
Q 1956 3084 1622 2776 
Q 1288 2469 1184 1941 
L 800 0 
L 225 0 
L 903 3500 
L 1478 3500 
L 1363 2950 
Q 1603 3253 1940 3418 
Q 2278 3584 2650 3584 
Q 3113 3584 3367 3334 
Q 3622 3084 3622 2631 
Q 3622 2519 3608 2391 
Q 3594 2263 3566 2113 
z
" transform="scale(0.015625)"/>
      <path id="Verdana-3d" d="M 4472 2444 
L 766 2444 
L 766 2944 
L 4472 2944 
L 4472 2444 
z
M 4472 1131 
L 766 1131 
L 766 1631 
L 4472 1631 
L 4472 1131 
z
" transform="scale(0.015625)"/>
     </defs>
     <use xlink:href="#DejaVuSans-Oblique-6e" transform="translate(0 0.78125)"/>
     <use xlink:href="#Verdana-20" transform="translate(63.378906 0.78125)"/>
     <use xlink:href="#Verdana-3d" transform="translate(98.535156 0.78125)"/>
     <use xlink:href="#Verdana-20" transform="translate(180.371094 0.78125)"/>
     <use xlink:href="#Verdana-32" transform="translate(215.527344 0.78125)"/>
     <use xlink:href="#Verdana-37" transform="translate(276.601562 0.78125)"/>
    </g>
    <!-- Spearman $\rho$ = 0.719  ($p$ &lt; 0.0001) -->
    <g style="fill: #444444" transform="translate(55.953047 30.218345) scale(0.06 -0.06)">
     <defs>
      <path id="Verdana-53" d="M 4006 1328 
Q 4006 1056 3879 790 
Q 3753 525 3525 341 
Q 3275 141 2942 28 
Q 2609 -84 2141 -84 
Q 1638 -84 1236 9 
Q 834 103 419 288 
L 419 1063 
L 463 1063 
Q 816 769 1278 609 
Q 1741 450 2147 450 
Q 2722 450 3042 665 
Q 3363 881 3363 1241 
Q 3363 1550 3211 1697 
Q 3059 1844 2750 1925 
Q 2516 1988 2242 2028 
Q 1969 2069 1663 2131 
Q 1044 2263 745 2580 
Q 447 2897 447 3406 
Q 447 3991 940 4364 
Q 1434 4738 2194 4738 
Q 2684 4738 3093 4644 
Q 3503 4550 3819 4413 
L 3819 3681 
L 3775 3681 
Q 3509 3906 3076 4054 
Q 2644 4203 2191 4203 
Q 1694 4203 1392 3997 
Q 1091 3791 1091 3466 
Q 1091 3175 1241 3009 
Q 1391 2844 1769 2756 
Q 1969 2713 2337 2650 
Q 2706 2588 2963 2522 
Q 3481 2384 3743 2106 
Q 4006 1828 4006 1328 
z
" transform="scale(0.015625)"/>
      <path id="Verdana-70" d="M 3650 1788 
Q 3650 1363 3528 1011 
Q 3406 659 3184 416 
Q 2978 184 2698 57 
Q 2419 -69 2106 -69 
Q 1834 -69 1614 -9 
Q 1394 50 1166 175 
L 1166 -1288 
L 578 -1288 
L 578 3491 
L 1166 3491 
L 1166 3125 
Q 1400 3322 1692 3455 
Q 1984 3588 2316 3588 
Q 2947 3588 3298 3111 
Q 3650 2634 3650 1788 
z
M 3044 1772 
Q 3044 2403 2828 2715 
Q 2613 3028 2166 3028 
Q 1913 3028 1656 2918 
Q 1400 2809 1166 2631 
L 1166 653 
Q 1416 541 1595 500 
Q 1775 459 2003 459 
Q 2494 459 2769 790 
Q 3044 1122 3044 1772 
z
" transform="scale(0.015625)"/>
      <path id="Verdana-6d" d="M 5672 0 
L 5084 0 
L 5084 1988 
Q 5084 2213 5064 2422 
Q 5044 2631 4978 2756 
Q 4906 2891 4772 2959 
Q 4638 3028 4384 3028 
Q 4138 3028 3891 2904 
Q 3644 2781 3397 2591 
Q 3406 2519 3412 2423 
Q 3419 2328 3419 2234 
L 3419 0 
L 2831 0 
L 2831 1988 
Q 2831 2219 2811 2426 
Q 2791 2634 2725 2759 
Q 2653 2894 2518 2961 
Q 2384 3028 2131 3028 
Q 1891 3028 1648 2909 
Q 1406 2791 1166 2606 
L 1166 0 
L 578 0 
L 578 3491 
L 1166 3491 
L 1166 3103 
Q 1441 3331 1714 3459 
Q 1988 3588 2297 3588 
Q 2653 3588 2901 3438 
Q 3150 3288 3272 3022 
Q 3628 3322 3922 3455 
Q 4216 3588 4550 3588 
Q 5125 3588 5398 3239 
Q 5672 2891 5672 2266 
L 5672 0 
z
" transform="scale(0.015625)"/>
      <path id="Verdana-6e" d="M 3497 0 
L 2909 0 
L 2909 1988 
Q 2909 2228 2881 2439 
Q 2853 2650 2778 2769 
Q 2700 2900 2553 2964 
Q 2406 3028 2172 3028 
Q 1931 3028 1668 2909 
Q 1406 2791 1166 2606 
L 1166 0 
L 578 0 
L 578 3491 
L 1166 3491 
L 1166 3103 
Q 1441 3331 1734 3459 
Q 2028 3588 2338 3588 
Q 2903 3588 3200 3247 
Q 3497 2906 3497 2266 
L 3497 0 
z
" transform="scale(0.015625)"/>
      <path id="DejaVuSans-Oblique-3c1" d="M 1203 2875 
Q 1453 3194 1981 3475 
Q 2188 3584 2756 3584 
Q 3394 3584 3694 3078 
Q 3994 2572 3834 1747 
Q 3672 922 3175 415 
Q 2678 -91 2041 -91 
Q 1656 -91 1409 63 
Q 1163 213 1044 525 
L 681 -1331 
L 103 -1331 
L 697 1716 
Q 838 2438 1203 2875 
z
M 3238 1747 
Q 3359 2381 3169 2744 
Q 2978 3103 2522 3103 
Q 2066 3103 1734 2744 
Q 1403 2381 1281 1747 
Q 1156 1113 1347 750 
Q 1538 391 1994 391 
Q 2450 391 2781 750 
Q 3113 1113 3238 1747 
z
" transform="scale(0.015625)"/>
      <path id="Verdana-39" d="M 3647 2606 
Q 3647 1997 3508 1500 
Q 3369 1003 3088 653 
Q 2803 297 2375 103 
Q 1947 -91 1369 -91 
Q 1206 -91 1062 -73 
Q 919 -56 806 -19 
L 806 578 
L 838 578 
Q 928 531 1093 489 
Q 1259 447 1463 447 
Q 2153 447 2545 861 
Q 2938 1275 3000 2003 
Q 2709 1828 2453 1753 
Q 2197 1678 1894 1678 
Q 1606 1678 1373 1734 
Q 1141 1791 906 1953 
Q 631 2144 492 2437 
Q 353 2731 353 3141 
Q 353 3853 822 4300 
Q 1291 4747 1966 4747 
Q 2303 4747 2590 4642 
Q 2878 4538 3094 4328 
Q 3359 4069 3503 3661 
Q 3647 3253 3647 2606 
z
M 3016 2741 
Q 3016 3225 2916 3519 
Q 2816 3813 2641 3975 
Q 2494 4116 2325 4177 
Q 2156 4238 1959 4238 
Q 1509 4238 1248 3956 
Q 988 3675 988 3166 
Q 988 2869 1072 2681 
Q 1156 2494 1356 2353 
Q 1497 2256 1665 2223 
Q 1834 2191 2041 2191 
Q 2284 2191 2534 2256 
Q 2784 2322 3003 2447 
Q 3006 2513 3011 2577 
Q 3016 2641 3016 2741 
z
" transform="scale(0.015625)"/>
      <path id="DejaVuSans-Oblique-70" d="M 3175 2156 
Q 3175 2616 2975 2859 
Q 2775 3103 2400 3103 
Q 2144 3103 1911 2972 
Q 1678 2841 1497 2591 
Q 1319 2344 1212 1994 
Q 1106 1644 1106 1300 
Q 1106 863 1306 627 
Q 1506 391 1875 391 
Q 2147 391 2380 519 
Q 2613 647 2778 891 
Q 2956 1147 3065 1494 
Q 3175 1841 3175 2156 
z
M 1394 2969 
Q 1625 3272 1939 3428 
Q 2253 3584 2638 3584 
Q 3175 3584 3472 3232 
Q 3769 2881 3769 2247 
Q 3769 1728 3584 1258 
Q 3400 788 3053 416 
Q 2822 169 2531 39 
Q 2241 -91 1919 -91 
Q 1547 -91 1294 64 
Q 1041 219 916 525 
L 556 -1331 
L -19 -1331 
L 922 3500 
L 1497 3500 
L 1394 2969 
z
" transform="scale(0.015625)"/>
      <path id="Verdana-3c" d="M 4400 241 
L 794 1844 
L 794 2231 
L 4400 3834 
L 4400 3272 
L 1556 2038 
L 4400 803 
L 4400 241 
z
" transform="scale(0.015625)"/>
     </defs>
     <use xlink:href="#Verdana-53" transform="translate(0 0.015625)"/>
     <use xlink:href="#Verdana-70" transform="translate(68.359375 0.015625)"/>
     <use xlink:href="#Verdana-65" transform="translate(130.664062 0.015625)"/>
     <use xlink:href="#Verdana-61" transform="translate(190.234375 0.015625)"/>
     <use xlink:href="#Verdana-72" transform="translate(250.292969 0.015625)"/>
     <use xlink:href="#Verdana-6d" transform="translate(292.96875 0.015625)"/>
     <use xlink:href="#Verdana-61" transform="translate(390.234375 0.015625)"/>
     <use xlink:href="#Verdana-6e" transform="translate(450.292969 0.015625)"/>
     <use xlink:href="#Verdana-20" transform="translate(513.574219 0.015625)"/>
     <use xlink:href="#DejaVuSans-Oblique-3c1" transform="translate(548.730469 0.015625)"/>
     <use xlink:href="#Verdana-20" transform="translate(612.207031 0.015625)"/>
     <use xlink:href="#Verdana-3d" transform="translate(647.363281 0.015625)"/>
     <use xlink:href="#Verdana-20" transform="translate(729.199219 0.015625)"/>
     <use xlink:href="#Verdana-30" transform="translate(764.355469 0.015625)"/>
     <use xlink:href="#Verdana-2e" transform="translate(827.929688 0.015625)"/>
     <use xlink:href="#Verdana-37" transform="translate(864.306641 0.015625)"/>
     <use xlink:href="#Verdana-31" transform="translate(927.880859 0.015625)"/>
     <use xlink:href="#Verdana-39" transform="translate(991.455078 0.015625)"/>
     <use xlink:href="#Verdana-20" transform="translate(1055.029297 0.015625)"/>
     <use xlink:href="#Verdana-20" transform="translate(1090.185547 0.015625)"/>
     <use xlink:href="#Verdana-28" transform="translate(1125.341797 0.015625)"/>
     <use xlink:href="#DejaVuSans-Oblique-70" transform="translate(1170.751953 0.015625)"/>
     <use xlink:href="#Verdana-20" transform="translate(1234.228516 0.015625)"/>
     <use xlink:href="#Verdana-3c" transform="translate(1269.384766 0.015625)"/>
     <use xlink:href="#Verdana-20" transform="translate(1351.220703 0.015625)"/>
     <use xlink:href="#Verdana-30" transform="translate(1386.376953 0.015625)"/>
     <use xlink:href="#Verdana-2e" transform="translate(1449.951172 0.015625)"/>
     <use xlink:href="#Verdana-30" transform="translate(1486.328125 0.015625)"/>
     <use xlink:href="#Verdana-30" transform="translate(1549.902344 0.015625)"/>
     <use xlink:href="#Verdana-30" transform="translate(1613.476562 0.015625)"/>
     <use xlink:href="#Verdana-31" transform="translate(1677.050781 0.015625)"/>
     <use xlink:href="#Verdana-29" transform="translate(1740.625 0.015625)"/>
    </g>
   </g>
   <g id="text_13">
    <!-- Dutta et al. (2015) -->
    <g style="fill: #333333" transform="translate(71.73544 11.759062) scale(0.06 -0.06)">
     <defs>
      <path id="Verdana-44" d="M 4556 2322 
Q 4556 1688 4279 1172 
Q 4003 656 3544 372 
Q 3225 175 2833 87 
Q 2441 0 1800 0 
L 625 0 
L 625 4653 
L 1788 4653 
Q 2469 4653 2870 4554 
Q 3272 4456 3550 4284 
Q 4025 3988 4290 3494 
Q 4556 3000 4556 2322 
z
M 3909 2331 
Q 3909 2878 3718 3253 
Q 3528 3628 3150 3844 
Q 2875 4000 2565 4061 
Q 2256 4122 1825 4122 
L 1244 4122 
L 1244 531 
L 1825 531 
Q 2272 531 2605 597 
Q 2938 663 3216 841 
Q 3563 1063 3736 1425 
Q 3909 1788 3909 2331 
z
" transform="scale(0.015625)"/>
      <path id="Verdana-75" d="M 3472 0 
L 2884 0 
L 2884 388 
Q 2588 153 2316 28 
Q 2044 -97 1716 -97 
Q 1166 -97 859 239 
Q 553 575 553 1225 
L 553 3491 
L 1141 3491 
L 1141 1503 
Q 1141 1238 1166 1048 
Q 1191 859 1272 725 
Q 1356 588 1490 525 
Q 1625 463 1881 463 
Q 2109 463 2379 581 
Q 2650 700 2884 884 
L 2884 3491 
L 3472 3491 
L 3472 0 
z
" transform="scale(0.015625)"/>
      <path id="Verdana-74" d="M 2391 31 
Q 2225 -13 2029 -41 
Q 1834 -69 1681 -69 
Q 1147 -69 869 218 
Q 591 506 591 1141 
L 591 2997 
L 194 2997 
L 194 3491 
L 591 3491 
L 591 4494 
L 1178 4494 
L 1178 3491 
L 2391 3491 
L 2391 2997 
L 1178 2997 
L 1178 1406 
Q 1178 1131 1190 976 
Q 1203 822 1278 688 
Q 1347 563 1467 505 
Q 1588 447 1834 447 
Q 1978 447 2134 489 
Q 2291 531 2359 559 
L 2391 559 
L 2391 31 
z
" transform="scale(0.015625)"/>
      <path id="Verdana-6c" d="M 1172 0 
L 584 0 
L 584 4863 
L 1172 4863 
L 1172 0 
z
" transform="scale(0.015625)"/>
     </defs>
     <use xlink:href="#Verdana-44"/>
     <use xlink:href="#Verdana-75" transform="translate(77.050781 0)"/>
     <use xlink:href="#Verdana-74" transform="translate(140.332031 0)"/>
     <use xlink:href="#Verdana-74" transform="translate(179.736328 0)"/>
     <use xlink:href="#Verdana-61" transform="translate(219.140625 0)"/>
     <use xlink:href="#Verdana-20" transform="translate(279.199219 0)"/>
     <use xlink:href="#Verdana-65" transform="translate(314.355469 0)"/>
     <use xlink:href="#Verdana-74" transform="translate(373.925781 0)"/>
     <use xlink:href="#Verdana-20" transform="translate(413.330078 0)"/>
     <use xlink:href="#Verdana-61" transform="translate(448.486328 0)"/>
     <use xlink:href="#Verdana-6c" transform="translate(508.544922 0)"/>
     <use xlink:href="#Verdana-2e" transform="translate(535.986328 0)"/>
     <use xlink:href="#Verdana-20" transform="translate(572.363281 0)"/>
     <use xlink:href="#Verdana-28" transform="translate(607.519531 0)"/>
     <use xlink:href="#Verdana-32" transform="translate(652.929688 0)"/>
     <use xlink:href="#Verdana-30" transform="translate(716.503906 0)"/>
     <use xlink:href="#Verdana-31" transform="translate(780.078125 0)"/>
     <use xlink:href="#Verdana-35" transform="translate(843.652344 0)"/>
     <use xlink:href="#Verdana-29" transform="translate(907.226562 0)"/>
    </g>
   </g>
   <g id="legend_1">
    <g id="patch_8">
     <path d="M 37.645 39.124062 
L 132.15625 39.124062 
Q 133.35625 39.124062 133.35625 37.924062 
L 133.35625 20.959062 
Q 133.35625 19.759062 132.15625 19.759062 
L 37.645 19.759062 
Q 36.445 19.759062 36.445 20.959062 
L 36.445 37.924062 
Q 36.445 39.124062 37.645 39.124062 
z
" style="fill: #ffffff; opacity: 0.9; stroke: #cccccc; stroke-width: 0.4; stroke-linejoin: miter"/>
    </g>
    <g id="line2d_109">
     <path d="M 39.445 25.218125 
L 46.045 25.218125 
L 52.645 25.218125 
" style="fill: none; stroke-dasharray: 0.9,1.8; stroke-dashoffset: 0; stroke: #555555; stroke-width: 0.9"/>
    </g>
    <g id="text_14">
     <!-- 1:1 parity -->
     <g transform="translate(57.445 27.318125) scale(0.06 -0.06)">
      <defs>
       <path id="Verdana-3a" d="M 1828 2600 
L 1081 2600 
L 1081 3491 
L 1828 3491 
L 1828 2600 
z
M 1828 0 
L 1081 0 
L 1081 891 
L 1828 891 
L 1828 0 
z
" transform="scale(0.015625)"/>
       <path id="Verdana-69" d="M 1209 4075 
L 547 4075 
L 547 4684 
L 1209 4684 
L 1209 4075 
z
M 1172 0 
L 584 0 
L 584 3491 
L 1172 3491 
L 1172 0 
z
" transform="scale(0.015625)"/>
       <path id="Verdana-79" d="M 3597 3491 
L 1559 -1288 
L 931 -1288 
L 1581 169 
L 191 3491 
L 828 3491 
L 1900 903 
L 2981 3491 
L 3597 3491 
z
" transform="scale(0.015625)"/>
      </defs>
      <use xlink:href="#Verdana-31"/>
      <use xlink:href="#Verdana-3a" transform="translate(63.574219 0)"/>
      <use xlink:href="#Verdana-31" transform="translate(108.984375 0)"/>
      <use xlink:href="#Verdana-20" transform="translate(172.558594 0)"/>
      <use xlink:href="#Verdana-70" transform="translate(207.714844 0)"/>
      <use xlink:href="#Verdana-61" transform="translate(270.019531 0)"/>
      <use xlink:href="#Verdana-72" transform="translate(330.078125 0)"/>
      <use xlink:href="#Verdana-69" transform="translate(372.753906 0)"/>
      <use xlink:href="#Verdana-74" transform="translate(400.195312 0)"/>
      <use xlink:href="#Verdana-79" transform="translate(439.099609 0)"/>
     </g>
    </g>
    <g id="line2d_110">
     <path d="M 39.445 32.784687 
L 46.045 32.784687 
L 52.645 32.784687 
" style="fill: none; stroke-dasharray: 4.5,2.7; stroke-dashoffset: 0; stroke: #1d9e75; stroke-opacity: 0.75; stroke-width: 0.9"/>
    </g>
    <g id="text_15">
     <!-- Aggregate ratio (1.63×) -->
     <g transform="translate(57.445 34.884687) scale(0.06 -0.06)">
      <defs>
       <path id="Verdana-d7" d="M 4328 675 
L 3981 328 
L 2619 1703 
L 1256 328 
L 909 675 
L 2284 2038 
L 909 3400 
L 1256 3747 
L 2619 2372 
L 3981 3747 
L 4328 3400 
L 2953 2038 
L 4328 675 
z
" transform="scale(0.015625)"/>
      </defs>
      <use xlink:href="#Verdana-41"/>
      <use xlink:href="#Verdana-67" transform="translate(68.359375 0)"/>
      <use xlink:href="#Verdana-67" transform="translate(130.664062 0)"/>
      <use xlink:href="#Verdana-72" transform="translate(192.96875 0)"/>
      <use xlink:href="#Verdana-65" transform="translate(235.644531 0)"/>
      <use xlink:href="#Verdana-67" transform="translate(295.214844 0)"/>
      <use xlink:href="#Verdana-61" transform="translate(357.519531 0)"/>
      <use xlink:href="#Verdana-74" transform="translate(417.578125 0)"/>
      <use xlink:href="#Verdana-65" transform="translate(456.982422 0)"/>
      <use xlink:href="#Verdana-20" transform="translate(516.552734 0)"/>
      <use xlink:href="#Verdana-72" transform="translate(551.708984 0)"/>
      <use xlink:href="#Verdana-61" transform="translate(592.634766 0)"/>
      <use xlink:href="#Verdana-74" transform="translate(652.693359 0)"/>
      <use xlink:href="#Verdana-69" transform="translate(692.097656 0)"/>
      <use xlink:href="#Verdana-6f" transform="translate(719.539062 0)"/>
      <use xlink:href="#Verdana-20" transform="translate(780.232422 0)"/>
      <use xlink:href="#Verdana-28" transform="translate(815.388672 0)"/>
      <use xlink:href="#Verdana-31" transform="translate(860.798828 0)"/>
      <use xlink:href="#Verdana-2e" transform="translate(924.373047 0)"/>
      <use xlink:href="#Verdana-36" transform="translate(960.75 0)"/>
      <use xlink:href="#Verdana-33" transform="translate(1024.324219 0)"/>
      <use xlink:href="#Verdana-d7" transform="translate(1087.898438 0)"/>
      <use xlink:href="#Verdana-29" transform="translate(1169.734375 0)"/>
     </g>
    </g>
   </g>
  </g>
 </g>
 <defs>
  <clipPath id="pc785fe7908">
   <rect x="33.445" y="16.759062" width="133.740254" height="74.024"/>
  </clipPath>
 </defs>
</svg>
